<?xml version="1.0" encoding="UTF-8"?>
<svg width="468px" height="323px" viewBox="0 0 468 323" version="1.1" xmlns="http://www.w3.org/2000/svg" xmlns:xlink="http://www.w3.org/1999/xlink">
    <title>contact us</title>
    <g id="Page-1" stroke="none" stroke-width="1" fill="none" fill-rule="evenodd">
        <g id="contact" transform="translate(-494.000000, -296.000000)" fill-rule="nonzero">
            <g id="contact-us" transform="translate(494.000000, 296.000000)">
                <path d="M145.422254,301.213146 C143.394523,300.965903 141.3578,300.934436 139.330069,301.100763 C139.973008,309.848644 126.529737,302.835954 121.691957,311.507415 C124.475029,305.438741 131.497902,292.950758 138.947903,300.21069 C140.454089,300.06684 141.964771,300.030878 143.479949,300.111794 C140.346183,298.295687 137.28885,296.322244 134.321439,294.200455 C132.032936,293.962203 129.721952,293.795877 127.433448,294.025138 C128.094372,302.78201 114.633116,295.76932 109.795336,304.440781 C112.578408,298.372107 119.601281,285.884124 127.051282,293.144056 C128.984595,292.959748 130.935893,292.955253 132.878198,293.144056 C130.077142,291.076212 127.352519,288.878003 124.72681,286.54943 C122.492259,286.230263 120.239724,286.171824 118.005174,286.360627 C118.666097,295.117499 105.204841,288.104809 100.367062,296.77627 C103.150134,290.707596 110.177503,278.219613 117.623007,285.479545 C119.592289,285.290742 121.579555,285.290742 123.553333,285.493031 C119.713683,282.036134 116.656351,277.527334 111.081214,277.091289 C109.606501,285.744769 98.3797956,275.090874 91.6266872,282.094574 C95.8170314,276.826065 105.708402,267.053252 110.923852,276.120301 C112.457014,276.421487 113.972192,276.839551 115.455898,277.378989 C110.860907,272.843217 108.091323,266.023825 101.351703,264.31111 C98.8338994,272.672395 88.9829936,260.431654 81.4835364,266.365469 C84.9724925,262.490508 89.4011288,258.287389 94.9537845,258.723434 C97.3142252,258.957191 100.776205,260.121477 101.315734,263.322141 C102.871377,263.87956 104.391051,264.558352 105.856772,265.363013 C103.604238,262.17134 101.486585,258.862789 99.5173032,255.455341 C97.5884859,254.133718 95.6012197,252.919983 93.4835672,252.034406 C90.6015815,260.260832 81.3126854,247.494139 73.5569518,253.00989 C77.2437353,249.368685 81.8522147,245.385836 87.3464214,246.105087 C89.6933739,246.469207 93.0924085,247.817801 93.4925594,251.049933 C95.2190531,251.773678 96.8870979,252.65476 98.4832054,253.693177 C95.1291316,248.029081 94.4637121,244.823922 90.6825109,238.665341 C84.12723,242.774059 83.0796439,227.251738 73.9346223,227.161832 C80.9305189,226.352675 93.6544181,227.606868 91.4603323,237.546008 C93.8252691,241.133269 95.2775021,245.282444 97.3097291,249.054013 C97.2602723,247.233411 97.3367056,245.417304 97.5300369,243.614683 C94.6660356,241.897472 95.1651002,237.761783 96.0103628,235.244407 C97.9077074,229.836544 103.294008,227.05844 108.284654,225.107473 C100.12877,229.944432 106.162506,244.0777 98.3393309,243.915869 C96.7477195,250.609392 100.992017,255.913863 104.404539,261.222829 C104.265161,258.979667 104.314618,256.736505 104.548414,254.51582 C102.125028,252.641274 102.610605,248.676407 103.401914,246.208479 C105.209337,240.778139 110.370834,237.892147 115.303031,235.873751 C107.403423,240.728691 113.207859,255.999274 105.335227,254.960856 C105.024998,257.469241 105.209337,260.027075 105.26329,262.530965 C107.538305,265.911442 110.029132,269.166049 112.623369,272.281302 C112.519959,270.195476 112.578408,268.105155 112.79422,266.037311 C110.379826,264.162765 110.860907,260.202393 111.652216,257.734465 C113.459639,252.304125 118.621136,249.418133 123.553333,247.399737 C115.653725,252.254677 121.458161,267.511774 113.590026,266.486842 C113.369718,268.770462 113.342741,271.076558 113.531577,273.378159 C116.04938,276.345066 118.693074,279.172619 121.453665,281.860817 C121.300799,279.568207 121.350255,277.266606 121.588548,274.991977 C119.165162,273.117431 119.650738,269.152563 120.442048,266.684636 C122.249471,261.254296 127.410968,258.368304 132.343165,256.349908 C124.443557,261.204848 130.247993,276.475431 122.375361,275.432518 C120.855687,283.83426 124.537974,284.751304 130.234505,289.601749 C130.072646,287.273176 130.11311,284.940108 130.355899,282.634011 C127.972978,280.781942 128.449562,276.875514 129.231879,274.443548 C131.012326,269.089629 136.106382,266.2396 140.975634,264.248176 C133.179435,269.040181 138.907438,284.090493 131.147208,283.079047 C130.908916,285.479545 130.908916,287.907015 131.120232,290.320999 C133.808886,292.420311 136.591958,294.380268 139.442471,296.218851 C139.303093,293.966699 139.35255,291.705556 139.586346,289.47588 C137.16296,287.601334 137.648536,283.636466 138.439846,281.168539 C140.247269,275.738199 145.408766,272.852207 150.340963,270.833811 C142.441355,275.688751 148.245791,290.945848 140.377655,289.920916 C140.157348,292.20004 140.134867,294.501641 140.319206,296.794252 C154.580764,305.897263 170.780131,311.50292 187.271744,313.260588 C187.991116,313.337008 187.919179,314.568725 187.199806,314.492304 C172.610035,312.963897 158.294524,308.387667 145.431246,301.226631 L145.422254,301.213146 Z" id="Path" fill="#E8E8E8"></path>
                <path d="M315.621268,255.729555 C315.760646,253.693177 315.684213,251.6568 315.409952,249.642899 C306.710042,250.748746 312.995558,236.957122 304.079837,232.583181 C310.28892,235.037623 323.134213,241.389502 316.277695,249.211349 C316.502499,250.708289 316.619397,252.214219 316.614901,253.72914 C318.264961,250.505999 320.072384,247.350289 322.032674,244.270998 C322.145076,241.973893 322.194533,239.658806 321.839343,237.384177 C313.130441,238.512501 319.415957,224.6984 310.500235,220.328954 C316.709318,222.783396 329.554612,229.135275 322.698094,236.957122 C322.985843,238.876621 323.093748,240.823092 323.003827,242.774059 C324.919156,239.86559 326.969367,237.033542 329.158957,234.28241 C329.36128,232.034753 329.298335,229.7826 328.988106,227.561915 C320.279204,228.690239 326.56472,214.876138 317.648999,210.506692 C323.858082,212.961134 336.703375,219.313013 329.846857,227.13486 C330.139102,229.090322 330.242512,231.072755 330.148094,233.059684 C333.398758,229.040873 337.737473,225.750303 337.876851,220.162628 C329.158957,219.151182 339.198698,207.377953 331.847611,201.003598 C337.332826,204.905531 347.619851,214.264775 338.839012,219.955843 C338.618704,221.502231 338.281498,223.035133 337.822898,224.545559 C342.10766,219.717591 348.770847,216.588853 350.124166,209.769461 C341.640068,207.697121 353.338862,197.218543 347.017377,190.039526 C351.072839,193.31661 355.505971,197.515234 355.366593,203.080433 C355.254191,205.449464 354.278542,208.964799 351.108807,209.679554 C350.636719,211.261905 350.038741,212.812789 349.310376,214.318719 C352.376701,211.90024 355.568916,209.612125 358.869037,207.463364 C360.082978,205.467445 361.193509,203.417581 361.962338,201.259831 C353.590642,198.818875 365.851445,188.866249 359.925615,181.417513 C363.756273,184.905877 367.982586,189.293304 367.555459,194.818045 C367.317167,197.178085 366.152682,200.648468 362.946979,201.214877 C362.317528,202.977041 361.521723,204.689755 360.57305,206.339536 C366.053769,202.693836 369.214511,201.853212 375.167318,197.753485 C370.711705,191.428578 386.160227,189.554032 385.764572,180.424049 C386.942545,187.364814 386.371543,200.136002 376.32281,198.477231 C372.865326,201.026074 368.800872,202.702827 365.136569,204.928007 C366.952984,204.779662 368.7694,204.76168 370.581319,204.860577 C372.145954,201.911651 376.300329,202.190361 378.858597,202.90062 C384.3573,204.505448 387.419129,209.737993 389.631199,214.619905 C384.366292,206.735123 370.572327,213.509562 370.31605,205.687715 C363.544958,204.455999 358.473382,208.97379 353.35235,212.664443 C355.582404,212.40821 357.825947,212.340781 360.060497,212.453163 C361.804976,209.935787 365.7885,210.210002 368.297311,210.866317 C373.813999,212.381238 376.974741,217.384523 379.254252,222.199005 C373.989346,214.570456 359.039888,221.174073 359.664843,213.257825 C357.142543,213.082507 354.597763,213.401675 352.097944,213.590478 C348.842784,216.040424 345.722506,218.697155 342.750599,221.457278 C344.827787,221.241503 346.918463,221.187559 348.995651,221.295447 C350.740129,218.782566 354.723654,219.05678 357.227969,219.713096 C362.744656,221.228017 365.905398,226.231302 368.184909,231.045784 C362.915507,223.41274 347.988529,230.020852 348.591004,222.113594 C346.298004,222.014697 343.991517,222.113594 341.707509,222.423771 C338.879476,225.093987 336.195318,227.885578 333.65953,230.785055 C335.943538,230.510841 338.241033,230.438916 340.529537,230.551299 C342.274015,228.033923 346.25754,228.308137 348.766351,228.964453 C354.283038,230.479374 357.44378,235.482659 359.723292,240.297141 C354.458385,232.668592 339.508927,239.272209 340.133882,231.35596 C331.663272,230.28158 330.9439,234.012691 326.398365,239.955497 C328.713845,239.667797 331.047309,239.586881 333.367285,239.703759 C335.089283,237.226841 339.014359,237.49656 341.487201,238.143885 C346.931951,239.636329 350.047733,244.572185 352.295772,249.323732 C347.156755,241.816557 332.369156,248.307791 332.967135,240.512916 C330.557237,240.400533 328.133851,240.530897 325.732946,240.868045 C323.777152,243.664131 321.969729,246.545628 320.2837,249.485563 C322.527243,249.224835 324.784274,249.15291 327.027816,249.269788 C328.772294,246.752412 332.755819,247.026626 335.26463,247.682942 C340.781317,249.197863 343.94206,254.201148 346.221571,259.01563 C340.952168,251.387081 326.025191,257.990698 326.627665,250.08344 C324.339162,249.984543 322.03717,250.08344 319.757659,250.389121 C311.426427,265.111276 306.683066,281.582108 305.80633,298.142846 C305.770362,298.862096 304.533941,298.857601 304.574405,298.138351 C305.32525,283.488121 309.133428,268.95477 315.603283,255.729555 L315.621268,255.729555 Z" id="Path" fill="#E8E8E8"></path>
                <g id="Group" transform="translate(277.152829, 225.300772)" fill="#E8E8E8">
                    <polygon id="Path" points="31.9446305 80.9426305 28.4242019 78.0521434 34.0128262 74.6761623 37.5737196 77.4093134 37.771547 77.1306039 34.3275516 74.4873591 39.8127661 71.1698171 43.4635811 73.9793885 43.6659046 73.7051744 40.1229955 70.9810139 46.0488256 67.4027436 49.8929719 71.2057796 50.1267679 70.9585373 46.3500628 67.222931 51.6599303 64.0132766 51.5520245 64.1661173 55.0319884 66.7554184 55.2253198 66.4722136 51.8038048 63.9278656 56.3088744 61.2037051 56.2908901 61.2261817 59.7708541 63.8154828 59.9641854 63.5367733 56.5966234 61.0283879 62.1807516 57.6569021 65.4943608 60.1203343 65.6876921 59.8416249 62.4954771 57.4636036 68.4258033 53.880838 71.8608065 56.4386719 72.0586339 56.1599624 68.7405287 53.6920348 75.8847958 49.3720377 79.3063108 51.9163856 79.4996421 51.6376761 76.1995212 49.1832345 82.6424003 45.2902923 86.0459309 47.8256496 86.2392623 47.5424447 82.9571257 45.101489 89.3055871 41.2624906 92.7720629 43.842801 92.9698903 43.5640915 89.6248086 41.0736874 94.2018155 38.3045737 96.6611699 40.0038026 96.8455091 39.7161024 94.521037 38.1157705 100.213071 34.6723597 102.02499 35.9984775 102.218322 35.7152726 100.527797 34.4835565 105.639837 31.3952755 107.708032 32.7573558 107.883379 32.4651604 105.963554 31.201977 111.214973 28.0282851 112.999915 29.3319262 113.193247 29.0487214 111.534194 27.8349866 116.902511 24.5893696 118.399705 25.5918247 118.579548 25.3041246 117.226228 24.3960711 121.272698 21.9506201 123.633139 22.6159266 123.718564 22.2832733 121.677345 21.7078731 125.701334 19.275908 127.603175 19.8108504 127.688601 19.4781972 126.105981 19.0286657 129.473543 16.9967836 131.132596 17.5407167 131.23151 17.2125587 129.860206 16.7630273 133.969621 14.2771184 133.632415 13.6837369 129.518504 16.1696458 129.806253 14.6727061 129.482536 14.6052764 129.131842 16.4034021 125.777768 18.4307889 126.168926 16.7720179 125.840713 16.6911022 125.377617 18.6735359 121.367116 21.092015 121.861684 18.9927032 121.537967 18.9117875 120.966965 21.334762 116.920495 23.780213 116.808093 22.1618998 116.475383 22.1843764 116.601274 23.9735115 111.237453 27.2146332 111.017145 25.2052277 110.684436 25.2411902 110.922728 27.4034364 105.783711 30.5096986 105.545419 28.3249758 105.212709 28.3654337 105.468986 30.6940065 105.477978 30.6940065 100.258032 33.8497172 100.04222 31.8717789 99.7095104 31.9077414 99.9433065 34.0385204 94.2692567 37.4684453 94.0444528 34.7757519 93.7117431 34.8072191 93.9500352 37.6617438 89.3730283 40.4263621 88.8964441 36.4075511 88.5682304 36.4480089 89.0583029 40.6151653 82.7188336 44.4451732 82.2602337 40.5477356 81.927524 40.5881934 82.4041082 44.6384717 75.9792135 48.5224233 75.5206135 44.642967 75.1879038 44.6834248 75.664488 48.7112265 68.5337091 53.0177376 68.0796053 49.1607579 67.7468956 49.2012158 68.2189837 53.2065409 62.2976497 56.7848111 61.8660262 53.1211299 61.5378126 53.1615877 61.9874203 56.9736143 56.4122842 60.3406048 55.9581804 56.4926157 55.6254707 56.5330735 56.0975588 60.529408 51.6284578 63.2355872 51.1698579 59.342645 50.8371481 59.3831028 51.3137324 63.4243904 46.129755 66.5576245 44.8888376 61.7701147 44.5651201 61.8555257 45.8285178 66.7374371 39.9656328 70.2797448 39.4305996 66.2609338 39.0978898 66.3103822 39.6509074 70.468548 34.1791811 73.7770994 33.6666282 69.9156244 33.3339185 69.9605775 33.8689517 73.9659026 28.1544372 77.418304 27.6104118 73.3320633 27.2777021 73.3770164 27.8397118 77.6071072 0 94.4285736 0.337205812 95.0264504 28.1139725 78.2409466 31.7333149 81.207854"></polygon>
                    <path d="M129.37463,15.2705829 C127.778522,13.5938306 129.221763,2.81406679 132.310568,0.935025388 C130.799886,3.99183916 131.654141,13.7241948 129.37463,15.2705829 Z" id="Path"></path>
                    <path d="M131.694606,13.5533728 C130.413224,11.611397 133.704352,1.27217397 137.071914,-5.67842306e-14 C135.053176,2.72416051 134.207913,12.4565161 131.694606,13.5533728 Z" id="Path"></path>
                    <path d="M133.23676,14.0298761 C132.647774,11.7642377 139.063677,3.13323411 142.651547,3.07479503 C139.872971,4.95833175 135.961383,13.8500636 133.23676,14.0298761 Z" id="Path"></path>
                    <path d="M125.903658,17.1316431 C124.060266,15.1941626 125.728311,2.72865582 129.298196,0.561914296 C127.549222,4.09523139 128.538359,15.3470033 125.903658,17.1316431 Z" id="Path"></path>
                    <path d="M121.63688,19.2309549 C119.609149,17.1046712 121.443549,3.39845766 125.368625,1.01594105 C123.444303,4.89989266 124.532354,17.2665025 121.63688,19.2309549 Z" id="Path"></path>
                    <path d="M116.596777,22.2877686 C114.31277,19.8917661 116.37647,4.45935185 120.80061,1.77564918 C118.633501,6.14959005 119.86093,20.076074 116.596777,22.2877686 Z" id="Path"></path>
                    <path d="M110.936216,25.7311794 C108.418413,23.0879346 110.693428,6.07316971 115.571672,3.11075754 C113.184255,7.93422986 114.533078,23.2947191 110.936216,25.7311794 Z" id="Path"></path>
                    <path d="M105.406041,29.2195434 C102.762347,26.4459344 105.15426,8.58155513 110.270796,5.47079759 C107.766481,10.5325216 109.182746,26.6572142 105.406041,29.2195434 Z" id="Path"></path>
                    <path d="M99.8129202,32.618001 C97.1692266,29.8443921 99.5611399,11.9800128 104.677676,8.86925525 C102.173361,13.9309792 103.589625,30.0556719 99.8129202,32.618001 Z" id="Path"></path>
                    <path d="M93.8421293,35.3511522 C90.924175,32.2898431 93.5633725,12.5644037 99.2149419,9.13447879 C96.4498542,14.7221546 98.0144892,32.5235994 93.8421293,35.3511522 Z" id="Path"></path>
                    <path d="M88.7480735,36.6682793 C85.8301192,33.6069702 88.4693167,13.8815308 94.1208861,10.4516059 C91.3557985,16.0392817 92.9204334,33.8407266 88.7480735,36.6682793 Z" id="Path"></path>
                    <path d="M51.1293932,59.8371295 C47.1998215,58.4256008 39.8847034,37.4639499 43.4635811,31.7953585 C43.3961399,38.0753127 53.6427005,55.3912636 51.1293932,59.8371295 Z" id="Path"></path>
                    <path d="M44.9472866,62.2016649 C41.0177149,60.7901362 34.4489457,41.3658828 38.0233273,35.6972914 C37.9558861,41.9772456 47.4560979,57.755799 44.9472866,62.2016649 Z" id="Path"></path>
                    <path d="M39.4126153,66.9532122 C35.4830435,65.5416835 28.6579979,45.672394 32.2323795,39.9993072 C32.1649383,46.2792614 41.9214265,62.502851 39.4126153,66.9532122 Z" id="Path"></path>
                    <path d="M33.7160851,71.4215547 C29.7865134,70.010026 23.1233265,50.4194459 26.6977081,44.7508545 C26.630267,51.0308087 36.2248963,66.9711934 33.7160851,71.4215547 Z" id="Path"></path>
                    <path d="M27.6553726,75.4808235 C23.7258009,74.0692948 17.5841591,55.1709932 21.1630367,49.5024018 C21.0955956,55.782356 30.1686799,71.0349576 27.6553726,75.4808235 Z" id="Path"></path>
                    <path d="M82.1972886,42.8583272 C78.7487972,39.2395991 81.8645789,15.9179082 88.54575,11.8631346 C85.2726056,18.4712467 87.1249895,39.5183086 82.1972886,42.8583272 Z" id="Path"></path>
                    <path d="M67.9312348,50.7251273 C64.2444512,47.3626322 66.555435,22.7462907 72.9443611,18.2105185 C70.1343127,25.038901 72.6206436,47.0299789 67.9312348,50.7251273 Z" id="Path"></path>
                    <path d="M75.3542587,45.3757032 C71.6989477,41.8963299 73.7176865,18.2015279 80.2639753,13.7646526 C77.2830759,20.6020257 80.1650616,41.7479845 75.3542587,45.3757032 L75.3542587,45.3757032 Z" id="Path"></path>
                    <path d="M61.623238,53.7145114 C57.5452958,50.7790711 57.4733585,24.7601915 63.3722122,19.4422346 C61.3175048,26.6347376 65.912496,49.4439627 61.623238,53.7145114 Z" id="Path"></path>
                    <path d="M55.9671726,57.9041444 C51.6689225,55.3238339 48.6520545,31.7279288 54.1013004,25.9289733 C52.6310831,33.2743169 59.8967443,53.2829612 55.9671726,57.9041444 Z" id="Path"></path>
                    <path d="M130.489657,17.217054 C131.141588,19.4647112 141.001486,23.38013 144.094787,21.5055839 C140.76769,21.3887058 132.908547,15.9089175 130.489657,17.217054 Z" id="Path"></path>
                    <path d="M133.025445,15.5897502 C133.992101,17.7160339 144.301607,20.0940552 147.089175,17.7654824 C143.780062,18.1565747 135.228523,13.9264839 133.025445,15.5897502 Z" id="Path"></path>
                    <path d="M133.452572,14.7356405 C135.07116,16.3854209 145.533532,14.9379296 147.363436,11.7597424 C144.396025,13.3106258 134.958758,12.3890864 133.452572,14.7356405 Z" id="Path"></path>
                    <path d="M133.803266,13.9804277 C135.889446,14.9109578 145.115397,9.637954 145.699887,5.98775874 C143.483321,8.54559261 134.378764,11.2292953 133.803266,13.9804277 Z" id="Path"></path>
                    <path d="M127.086126,19.4961784 C127.836971,22.0944701 139.239024,26.625747 142.808909,24.4545102 C138.960267,24.3196507 129.87819,17.9857528 127.086126,19.4961784 Z" id="Path"></path>
                    <path d="M123.4488,22.3956562 C124.276078,25.2501808 136.806646,30.2309891 140.736217,27.8439772 C136.505409,27.6956318 126.51962,20.7323899 123.4488,22.3956562 Z" id="Path"></path>
                    <path d="M118.413193,25.4569653 C119.343881,28.6756103 133.457068,34.2812674 137.881208,31.5930694 C133.115366,31.4267427 121.870676,23.5869145 118.413193,25.4569653 Z" id="Path"></path>
                    <path d="M112.793096,28.9723011 C113.822698,32.5191041 129.383622,38.7001614 134.261866,35.7422445 C129.010447,35.562432 116.610266,26.9134471 112.793096,28.9723011 Z" id="Path"></path>
                    <path d="M106.799825,31.9751711 C107.878883,35.6972914 124.217629,42.1885253 129.334165,39.0777678 C123.817478,38.8889646 110.801334,29.8084296 106.799825,31.9751711 Z" id="Path"></path>
                    <path d="M101.161743,35.1983115 C102.240802,38.9204318 118.579548,45.4116657 123.696084,42.3009082 C118.179397,42.112105 105.163252,33.03157 101.161743,35.1983115 Z" id="Path"></path>
                    <path d="M95.9462936,39.0283193 C97.1377541,43.141532 115.176017,50.3025678 120.827586,46.8726429 C114.739897,46.6613631 100.370434,36.6368121 95.9462936,39.0283193 Z" id="Path"></path>
                    <path d="M92.3674159,42.984196 C93.5588764,47.0929133 111.597139,54.2629397 117.244213,50.8285196 C111.156524,50.6172398 96.7870601,40.5971841 92.3674159,42.984196 Z" id="Path"></path>
                    <path d="M54.4744748,65.6765429 C53.7730867,69.9021384 68.0481328,86.6336985 74.5944216,86.1526999 C69.2261051,83.1723064 59.4651208,65.56416 54.4744748,65.6765429 Z" id="Path"></path>
                    <path d="M49.3309622,70.3381839 C48.6295741,74.5637794 62.1043183,89.6500544 68.6551032,89.1690558 C63.2867867,86.1886624 54.3261043,70.225801 49.3309622,70.3381839 Z" id="Path"></path>
                    <path d="M42.6767675,73.2691289 C41.9753794,77.4947244 55.5580295,93.2597919 62.1088144,92.7787932 C56.7404979,89.7983998 47.6719096,73.156746 42.6767675,73.2691289 Z" id="Path"></path>
                    <path d="M36.2024159,75.7685237 C35.5010278,79.9941192 48.9218191,95.4759818 55.472604,94.9949832 C50.1042875,92.0145898 41.197558,75.6561408 36.2024159,75.7685237 Z" id="Path"></path>
                    <path d="M29.822482,79.2658782 C29.1210939,83.4914737 42.2091754,98.1686752 48.7599603,97.6876765 C43.3916438,94.7072831 34.8176241,79.1534954 29.822482,79.2658782 Z" id="Path"></path>
                    <path d="M83.9372706,45.8926644 C85.3445429,50.7520992 106.669438,59.2257668 113.35061,55.1664979 C106.152389,54.9192556 89.1617126,43.0651116 83.9372706,45.8926644 Z" id="Path"></path>
                    <path d="M70.3456284,54.9462275 C71.4201909,59.8955686 93.4599627,69.7223258 100.401906,66.1620369 C93.2396549,65.3933381 75.7499135,52.5097671 70.3456284,54.9462275 Z" id="Path"></path>
                    <path d="M78.4835286,50.8420055 C79.6704931,55.8183185 100.784073,65.4652631 107.726017,61.7116756 C100.473844,61.0913223 83.8968059,48.261695 78.4835286,50.8420055 Z" id="Path"></path>
                    <path d="M64.757004,59.1808136 C65.278549,64.2740048 87.3542895,76.9328101 94.7278566,74.186173 C87.6195581,72.5543739 70.4625264,57.3781926 64.757004,59.1808136 Z" id="Path"></path>
                    <path d="M58.4579995,62.2511134 C58.5704014,67.3712764 77.1616818,81.5090401 84.7285802,79.4007377 C77.7731484,77.1710617 64.2849159,60.9429769 58.4579995,62.2511134 Z" id="Path"></path>
                </g>
                <g id="Group" transform="translate(103.109669, 173.249527)" fill="#E8E8E8">
                    <polygon id="Path" points="92.2909826 107.267191 89.822636 111.088209 85.8301192 105.914102 88.1455991 102.070608 87.8533541 101.904281 85.6098114 105.626402 81.698224 100.551192 84.076649 96.6043058 83.7799079 96.4379791 81.4734201 100.263492 77.2471073 94.7792081 80.596685 90.531136 80.3224243 90.3288469 77.0357917 94.5004986 73.2455983 89.58712 73.4119532 89.6770263 75.5925508 85.9279341 75.2913136 85.7661028 73.1466846 89.4567559 69.9319892 85.2895995 69.9544696 85.2985901 72.1350672 81.5539933 71.83383 81.3921619 69.7251697 85.0198806 65.741645 79.8502691 67.8188328 76.2854848 67.5175956 76.1236535 65.5168411 79.562569 61.2860322 74.0737901 63.4396533 70.3696511 63.1429122 70.2078198 61.0612284 73.7815947 55.9671726 67.1689873 58.1118015 63.4873248 57.8105643 63.3254935 55.7423687 66.8812872 51.1473775 60.9205003 53.2785182 57.2523238 52.9817771 57.0904925 50.9225736 60.6283049 46.3950236 54.752929 48.566629 51.0173228 48.2653918 50.8554914 46.1702197 54.4607336 42.9015714 50.2216521 44.3133397 47.5918932 44.0076064 47.4390525 42.6767675 49.9249614 38.6168095 44.6609482 39.7273407 42.7144771 39.4261035 42.5526458 38.3920057 44.3687528 34.7456868 39.6396821 35.8652101 37.4324827 35.5549808 37.2886327 34.5163869 39.338496 30.7666582 34.4790612 31.8637011 32.559562 31.562464 32.3977306 30.5418544 34.1868658 26.7111963 29.2195434 27.5384746 27.6192115 27.2327413 27.4708661 26.4818964 28.9183573 23.5954147 25.1737605 23.9910695 22.7552813 23.6493676 22.7058329 23.3076657 24.8006494 20.4391683 21.0740338 20.7538937 19.1275626 20.4166879 19.0781142 20.1514193 20.7009227 17.7460178 17.5856698 18.101208 15.872955 17.7640022 15.8145159 17.4717571 17.2260447 14.5403146 13.4230087 13.9872971 13.827587 16.9232357 17.6351183 15.4035615 17.5137448 15.3720889 17.846398 17.1974964 17.9947434 19.5894096 21.0965103 17.8988845 20.8942212 17.8539237 21.2268744 19.8771586 21.4651261 22.7321678 25.1782558 20.5920349 24.9220229 20.5470741 25.2546761 23.0199167 25.5468715 25.9063985 29.2914684 24.310291 29.5836639 24.3732361 29.9118218 26.1356984 29.5881592 29.9573643 34.5509862 27.9880824 34.9960223 28.0600196 35.319685 30.1821682 34.8386863 33.8464713 39.5947289 31.7063384 40.0802229 31.7827718 40.4038855 34.0667791 39.8869244 34.0667791 39.8779338 37.7895313 44.7103967 35.8517219 45.1464422 35.9236591 45.4746001 38.0143352 45.0025921 42.0608049 50.2531193 39.4126153 50.7790711 39.4800564 51.107229 42.2901048 50.5453147 45.5542571 54.7843962 41.6156932 55.7059356 41.6921265 56.0295983 45.779061 55.0720963 50.2976188 60.9384816 46.475953 61.8330491 46.5523863 62.1567118 50.5224227 61.2261817 55.1084218 67.1779779 51.3047402 68.0680502 51.3856696 68.3917128 55.3332256 67.465678 60.4182893 74.0647995 56.6370881 74.9503764 56.7135214 75.2785344 60.6430931 74.356995 64.8649099 79.8322878 61.272544 80.6729116 61.3489773 81.0010696 65.0897138 80.1244833 69.0642463 85.2806089 65.2875412 86.1661858 65.3639745 86.4898484 69.2890502 85.5728043 72.4767691 89.7084935 68.6595993 90.6030611 68.7360326 90.9267237 72.701573 90.0006889 76.3973487 94.7971894 71.7798771 96.5683432 71.9057672 96.8785199 76.6131604 95.0714036 80.7945124 100.501743 76.8604446 101.481722 76.9458701 101.805384 81.0148202 100.789443 84.9219116 105.855663 81.1407104 106.799679 81.2261359 107.123341 85.1422194 106.143363 89.2201617 111.429853 85.2186527 112.427812 85.3040782 112.751475 89.4404694 111.717553 109.299644 137.480199 109.852661 137.080116 90.0429438 111.375909 92.5832276 107.442509"></polygon>
                    <path d="M16.0420045,17.8778652 C14.5582989,19.6535144 3.67779138,19.433244 1.46572126,16.5787194 C4.67142451,17.7385105 14.2480696,15.7875441 16.0420045,17.8778652 Z" id="Path"></path>
                    <path d="M14.0772186,15.7650675 C12.2922758,17.2530165 1.64556436,15.1537047 0,11.9485456 C2.9359386,13.6477744 12.7014189,13.3915415 14.0772186,15.7650675 Z" id="Path"></path>
                    <path d="M14.3784558,14.1827168 C12.1933621,15.0233406 2.89097782,9.62446806 2.42788184,6.06417908 C4.6129755,8.61302233 13.8883834,11.4945188 14.3784558,14.1827168 Z" id="Path"></path>
                    <path d="M18.2855471,21.1189869 C16.5680455,23.1688502 3.99251681,22.9171126 1.43424872,19.6130566 C5.14351265,20.9526603 16.2128554,18.7005078 18.2855471,21.1189869 Z" id="Path"></path>
                    <path d="M20.8528074,25.1198167 C18.9644548,27.3719692 5.14351265,27.097755 2.32896814,23.465541 C6.40691042,24.9355088 18.5732961,22.4630859 20.8528074,25.1198167 Z" id="Path"></path>
                    <path d="M24.4586615,29.7814577 C22.336513,32.3213103 6.76659662,32.0111336 3.59686199,27.9203975 C8.1873571,29.5791685 21.8914013,26.7920736 24.4586615,29.7814577 Z" id="Path"></path>
                    <path d="M28.5186195,35.0184989 C26.1761631,37.8190798 9.01013928,37.4774359 5.51668708,32.9641403 C10.5792703,34.7937332 25.6905868,31.7189382 28.5186195,35.0184989 Z" id="Path"></path>
                    <path d="M32.61005,40.1206807 C30.1506956,43.056121 12.1304171,42.7009912 8.46161783,37.9629298 C13.7759814,39.8824291 29.6381428,36.6547934 32.61005,40.1206807 Z" id="Path"></path>
                    <path d="M36.6160551,45.2902923 C34.1567007,48.2302278 16.1364221,47.8706027 12.4676229,43.1370367 C17.7819865,45.0565359 33.6441478,41.8289002 36.6160551,45.2902923 Z" id="Path"></path>
                    <path d="M40.0105936,50.9139305 C37.2949628,54.1595475 17.3998199,53.7639598 13.3488541,48.5359092 C19.2162352,50.6532023 36.728457,47.0929133 40.0105936,50.9139305 Z" id="Path"></path>
                    <path d="M41.8899539,55.8273091 C39.1743231,59.0684308 19.2791803,58.6728431 15.2282144,53.4492878 C21.0955956,55.5665809 38.6078174,52.0062919 41.8899539,55.8273091 Z" id="Path"></path>
                    <path d="M69.1541678,90.5850798 C68.1965033,94.648844 48.1889585,104.277807 42.1507264,101.364844 C48.4002741,100.722014 64.4512708,88.5936556 69.1541678,90.5850798 Z" id="Path"></path>
                    <path d="M72.2025084,96.4604557 C71.2448439,100.52422 52.6805399,109.240634 46.6423078,106.327671 C52.8918556,105.684841 67.4996113,94.4690314 72.2025084,96.4604557 Z" id="Path"></path>
                    <path d="M77.5483445,101.423283 C76.59068,105.487047 57.6127369,114.509143 51.5745049,111.591684 C57.8240526,110.948854 72.8454474,99.4273632 77.5483445,101.423283 Z" id="Path"></path>
                    <path d="M82.6334081,106.579408 C81.6757436,110.643173 62.958573,119.47197 56.920341,116.559006 C63.1698887,115.916176 77.9305111,104.587984 82.6334081,106.579408 Z" id="Path"></path>
                    <path d="M87.3542895,112.144608 C86.396625,116.208372 68.3089053,124.439292 62.2706732,121.526329 C68.5202209,120.883499 82.6513924,110.153183 87.3542895,112.144608 Z" id="Path"></path>
                    <path d="M48.7779447,61.6352553 C45.5677453,65.4697584 22.0442679,65.0022458 17.2559454,58.8211885 C24.193393,61.3250786 44.8978298,57.112969 48.7779447,61.6352553 Z" id="Path"></path>
                    <path d="M58.2062191,74.9234046 C55.2792727,78.9646922 30.5553426,79.4456908 25.3309006,73.6107728 C32.434703,75.6336642 54.0113789,70.6843231 58.2062191,74.9234046 Z" id="Path"></path>
                    <path d="M52.0555851,68.1534611 C49.0117407,72.1767675 25.2364829,72.842074 20.0839781,66.8408293 C27.214757,69.0300474 47.9057056,63.7795202 52.0555851,68.1534611 Z" id="Path"></path>
                    <path d="M61.8885066,80.8482289 C59.4336483,85.2311604 33.5812027,88.2385257 27.6328922,82.9790079 C35.0154515,84.2062287 57.1631292,77.0721648 61.8885066,80.8482289 Z" id="Path"></path>
                    <path d="M66.6903174,85.9953638 C64.6131296,90.5581079 41.5032913,96.2132134 35.1233573,91.4526755 C42.591342,92.0820195 61.6547106,82.6103921 66.6903174,85.9953638 Z" id="Path"></path>
                    <path d="M17.8539237,16.5517475 C20.016537,15.6526846 22.7951129,5.4123585 20.5830427,2.55333856 C20.8438152,5.87537588 16.2847927,14.299595 17.8539237,16.5517475 Z" id="Path"></path>
                    <path d="M15.9520829,14.214184 C17.9573335,13.0139351 19.1577862,2.5038901 16.5320769,5.67842306e-14 C17.291914,3.24112166 14.0547382,12.2137691 15.9520829,14.214184 Z" id="Path"></path>
                    <path d="M15.0528674,13.8860261 C16.5095965,12.0923956 13.8928794,1.86106015 10.5253174,0.400082979 C12.4001817,3.17369194 12.5485523,12.6498146 15.0528674,13.8860261 Z" id="Path"></path>
                    <path d="M14.2615578,13.6252978 C14.9539537,11.4450704 8.67293347,2.8770012 4.97715778,2.71067456 C7.7692219,4.62567848 11.4605015,13.3645696 14.2615578,13.6252978 L14.2615578,13.6252978 Z" id="Path"></path>
                    <path d="M20.5021133,19.675991 C22.9974363,18.6330781 26.2166278,6.79691532 23.6538637,3.49285926 C23.9551009,7.33185773 18.685698,17.0687087 20.5021133,19.675991 Z" id="Path"></path>
                    <path d="M23.7932421,22.9620658 C26.5403454,21.8157606 30.0742623,8.80632085 27.2597178,5.17410684 C27.5924275,9.39520703 21.7969837,20.0985505 23.7932421,22.9620658 Z" id="Path"></path>
                    <path d="M27.4035923,27.6192115 C30.4968936,26.3290562 34.4759222,11.6788267 31.3061875,7.58809065 C31.679362,12.3396379 25.1510575,24.3960711 27.4035923,27.6192115 Z" id="Path"></path>
                    <path d="M31.5309914,32.8068043 C34.9390182,31.3862849 39.3271898,15.2256298 35.8382336,10.7168295 C36.2518728,15.958366 29.0536527,29.2510106 31.5309914,32.8068043 Z" id="Path"></path>
                    <path d="M35.1907985,38.4214519 C38.7696762,36.9290075 43.3781556,19.9681864 39.7093564,15.2346204 C40.1409798,20.7323899 32.5875696,34.690341 35.1907985,38.4214519 Z" id="Path"></path>
                    <path d="M39.0259526,43.6584931 C42.6048303,42.1660488 47.2133097,25.2052277 43.5445105,20.4716616 C43.9761339,25.9739264 36.4227237,39.9273822 39.0259526,43.6584931 Z" id="Path"></path>
                    <path d="M43.4231164,48.4055451 C47.3751685,46.76026 52.4602321,28.0327804 48.4137624,22.8047298 C48.8903466,28.8778995 40.5501229,44.2833418 43.4231164,48.4055451 Z" id="Path"></path>
                    <path d="M47.7573351,51.520798 C51.7093872,49.8755129 56.7944508,31.1480333 52.7479811,25.9199826 C53.2245653,31.9931524 44.8843416,47.3985947 47.7573351,51.520798 Z" id="Path"></path>
                    <path d="M74.5854294,86.6022313 C78.8611991,86.826997 93.882594,70.7562481 92.6686531,64.3009767 C90.3127085,69.9695681 73.9110178,81.6528902 74.5854294,86.6022313 Z" id="Path"></path>
                    <path d="M79.7963832,91.1919473 C84.0721529,91.4122177 97.5468972,76.3214473 96.3284602,69.8706712 C93.9725156,75.5437579 79.1174755,86.2426061 79.7963832,91.1919473 Z" id="Path"></path>
                    <path d="M83.4561903,97.4674061 C87.73196,97.6876765 101.867628,82.4125983 100.653687,75.9618222 C98.2977421,81.6349089 82.7817787,92.518065 83.4561903,97.4674061 Z" id="Path"></path>
                    <path d="M86.6708857,103.616996 C90.9466554,103.837267 104.821551,88.7554869 103.60761,82.3047108 C101.251665,87.9777975 85.9964741,98.667655 86.6708857,103.616996 Z" id="Path"></path>
                    <path d="M90.865726,109.564297 C95.1414957,109.789063 108.252058,95.1253473 107.038117,88.6745712 C104.682172,94.3431626 90.1913144,104.614956 90.865726,109.564297 L90.865726,109.564297 Z" id="Path"></path>
                    <path d="M51.6014813,59.5674107 C56.2729058,57.6209396 62.2886575,35.4815163 57.500335,29.300459 C58.0623447,36.4794761 48.2024467,54.6944899 51.6014813,59.5674107 Z" id="Path"></path>
                    <path d="M62.1267987,72.0464034 C66.9241134,70.4235949 74.2077589,47.4165759 69.8825324,40.9208467 C69.9229971,48.1268356 59.0919464,66.9487169 62.1267987,72.0464034 Z" id="Path"></path>
                    <path d="M57.1316566,64.4268455 C61.9424595,62.6871589 69.1496717,40.6241559 64.63561,34.1509032 C64.8379334,41.4288172 53.9529298,59.342645 57.1316566,64.4268455 Z" id="Path"></path>
                    <path d="M66.9690742,77.1216133 C71.9732084,76.0292519 82.0624063,52.6715984 78.5015129,45.6544127 C77.6832268,52.9008595 64.5366962,71.655311 66.9690742,77.1216133 Z" id="Path"></path>
                    <path d="M70.7277949,83.0329517 C75.8038664,82.3451686 87.7544404,62.2780852 84.8095096,55.0001713 C83.3752609,62.1612071 68.7720012,77.3913321 70.7277949,83.0329517 Z" id="Path"></path>
                </g>
                <g id="Group" transform="translate(148.124397, 60.645284)">
                    <path d="M107.307881,137.490304 L92.5562511,150.994228 L75.3902273,137.180127 C83.7079707,136.766558 95.9462936,136.757567 107.307881,137.490304 L107.307881,137.490304 Z" id="Path" fill="#F9CBCB"></path>
                    <g transform="translate(74.576437, 107.920126)" id="Path">
                        <path d="M33.3788793,33.2788123 C23.5999107,46.4545787 11.1637604,50.477885 0,33.2788123 C1.06107429,26.8325315 4.45561279,6.23500103 5.45374199,0.14385006 L27.4035923,0 L33.3788793,33.2788123 Z" fill="#F9CBCB"></path>
                        <path d="M33.3788793,33.2788123 C25.9019024,25.4974231 25.3398927,7.17002642 3.97003642,9.18392725 L5.45374199,0.148345374 L27.4035923,0.00449531437 L33.3788793,33.2833076 L33.3788793,33.2788123 Z" fill="#EBB0B0"></path>
                    </g>
                    <path d="M133.025445,62.6747865 C129.361141,130.877696 58.4759838,128.234451 53.7595985,62.6747865 C54.7082709,4.82009063 132.085764,4.82458594 133.025445,62.6747865 Z" id="Path" fill="#F9CBCB"></path>
                    <path d="M93.3925216,18.6791448 C92.7675668,18.6791448 92.1561002,18.7510699 91.5356416,18.7825371 C143.254021,21.1740443 137.773302,107.852696 92.7945433,113.759539 C141.752331,113.152672 148.65381,19.1017044 93.3925216,18.6791448 Z" id="Path" fill="#EBB0B0"></path>
                    <path d="M136.280605,57.8108564 L136.280605,57.9097533 C136.280605,57.8603048 136.280605,57.8108564 136.231148,57.7659032 L136.280605,57.8153517 L136.280605,57.8108564 Z" id="Path" fill="#754C24"></path>
                    <path d="M150.942313,32.0392191 C150.942313,32.0392191 153.046478,58.6020317 130.615547,64.454931 C130.615547,63.9199886 130.602059,63.3670649 130.588571,62.8456085 C122.437182,56.7319809 121.605408,47.939146 120.512861,41.9603779 C118.727918,29.8320198 96.7106267,40.5488492 75.1744156,25.9480682 C76.5097506,43.2999816 62.4235398,53.0188513 54.8116806,59.8202619 C54.8116806,59.8202619 54.1192847,64.468417 54.3036239,66.9228586 C45.2844924,58.3188269 36.3957473,20.1176454 67.886274,14.3456618 C88.311954,-21.9360205 134.455197,39.2002549 153.89174,3.21975871 C153.89174,3.21975871 153.347715,30.4388872 141.743339,34.8173234 C141.743339,34.8173234 148.487455,35.0915376 150.946809,32.0302285 L150.942313,32.0392191 Z" id="Path" fill="#252E51"></path>
                    <path d="M186.50179,256.162108 L0,256.162108 C0,256.162108 9.71602345,172.468345 18.0697354,160.785023 C26.4414317,150.279473 59.4291522,141.171966 75.3902273,137.175632 L92.5562511,150.989733 L107.307881,137.485808 C125.561956,139.693008 153.657944,146.328092 163.53133,157.863068 C171.885042,169.559876 186.506286,256.162108 186.506286,256.162108 L186.50179,256.162108 Z" id="Path" fill="#3D4547"></path>
                    <path d="M114.362227,140.951696 C109.083832,146.759642 106.489595,152.760886 106.925715,158.982402 C103.540168,157.440509 95.8114112,153.947649 92.3539277,152.387775 C88.5952069,154.257826 81.0238124,158.011414 77.2740838,159.867978 C74.9046509,153.057577 71.6404987,147.038351 67.2972878,141.967637 L73.2366062,137.769013 L75.3857312,137.180127 L92.5517551,150.994228 L107.303385,137.490304 C107.878883,137.076735 113.800217,140.731425 114.362227,140.951696 Z" id="Path" fill="#646A6C"></path>
                    <g transform="translate(36.400243, 0.000000)" id="Path">
                        <path d="M100.001755,58.5121254 L96.7331071,58.5121254 C104.745117,-12.3475149 7.41852785,-12.2935712 15.4485222,58.5121254 L12.1798739,58.5121254 C4.07794228,-16.6405402 108.126167,-16.5865964 100.001755,58.5121254 L100.001755,58.5121254 Z" fill="#323536"></path>
                        <path d="M10.3229939,55.7250305 C10.2555527,51.1937536 17.3728434,51.1937536 17.3098983,55.7250305 C17.3773395,60.2563074 10.2600488,60.2563074 10.3229939,55.7250305 Z" fill="#838889"></path>
                        <path d="M94.8762271,55.7250305 C94.808786,51.1937536 101.926077,51.1937536 101.863132,55.7250305 C101.930573,60.2563074 94.813282,60.2563074 94.8762271,55.7250305 Z" fill="#838889"></path>
                        <path d="M52.3073655,99.9903911 C52.3073655,99.9903911 52.3253498,99.9858958 52.3343419,99.9814005 C52.2174439,99.6937004 51.3002441,96.0435051 51.1923383,95.6389268 C49.9783973,95.8367206 48.6925192,96.4525787 48.3598094,97.6932855 C29.1570625,102.566206 13.9288481,97.9045652 14.7651185,77.9543601 L11.5009662,77.7745475 C9.63509405,100.561296 30.98247,106.396214 49.4118916,100.795052 C50.2886267,101.482835 51.5385362,101.316509 52.5591458,100.97936 L52.3073655,99.9903911 Z" fill="#323536"></path>
                        <g style="mix-blend-mode: multiply;" transform="translate(12.508088, 77.931883)">
                            <path d="M39.7992779,22.0585076 C39.7992779,22.0585076 39.8172622,22.0540123 39.8262544,22.049517 C39.7093564,21.7618169 38.7921566,18.1116216 38.6842507,17.7070433 L38.6213056,17.7205292 C38.7426997,18.1835466 39.3451741,20.5930351 39.4845525,20.9886228 C39.4755603,20.9886228 39.4665682,20.9931181 39.457576,20.9976134 L39.7093564,21.9865826 C38.6887468,22.3282265 37.4388372,22.4945531 36.5665982,21.8022747 C22.7591442,25.6457685 4.95467739,24.7107431 0,9.83574784 C4.35669908,25.5693481 22.7186795,26.868494 36.903804,22.8631689 C37.7805391,23.550952 39.0304487,23.3846253 40.0510583,23.0474768 L39.7992779,22.0585076 L39.7992779,22.0585076 Z" fill="#FFFFFF"></path>
                            <path d="M1.88835254,0 C1.80742315,3.29506543 2.22555836,6.25298228 3.12027778,8.82879742 C2.37842499,6.23050571 2.08168388,3.28157949 2.26152698,0.0224765718 L1.88835254,0 Z" fill="#CCCCCC"></path>
                        </g>
                        <path d="M0,71.7777981 C0,77.9183976 4.44662063,82.8947106 9.93183517,82.8947106 L9.93183517,60.6608857 C4.44662063,60.6608857 0,65.6371987 0,71.7777981 L0,71.7777981 Z" fill="#379C73"></path>
                        <path d="M0.391158741,69.3728049 L0.391158741,69.3728049 C0.391158741,69.0940955 0.409143051,68.8198813 0.427127361,68.5456671 C0.148370557,69.5705988 0,70.6539695 0,71.7777981 L0,71.7777981 C0,77.9183976 4.44662063,82.8947106 9.93183517,82.8947106 L9.93183517,80.4717361 C4.63095981,80.2379798 0.391158741,75.3695543 0.391158741,69.3773003 L0.391158741,69.3728049 Z" fill="#CCCCCC"></path>
                        <path d="M98.2213088,45.8084006 C96.1036563,45.8173577 94.6199507,44.0192319 94.637935,41.933406 C92.6686531,22.1944807 75.8083625,6.77105706 55.4905883,7.08572907 C35.4740514,7.39590576 19.0993372,22.9541888 17.4897414,42.6301798 C17.2874179,44.4283055 15.7902241,45.8084006 13.9693128,45.8084006 C11.6088721,45.8128623 10.0082685,43.605663 10.4983409,41.3085573 C12.7868444,17.9194367 32.7539245,-0.367502152 56.8124351,0.00560894054 C80.5067635,0.374224719 99.8983457,18.8095089 101.764218,42.1132186 C101.872124,44.1181288 100.244544,45.8084006 98.2213088,45.8084006 L98.2213088,45.8084006 Z" fill="#51B88E"></path>
                        <g style="mix-blend-mode: multiply;" transform="translate(11.950574, 0.810270)" fill="#CCCCCC">
                            <path d="M41.5482521,5.69106799 C21.2979191,5.69106799 4.62196766,21.3122854 2.94942683,41.1366218 C2.81004843,42.7864021 1.58261928,44.1035293 0,44.3687528 C2.14013288,45.9286269 5.40428514,44.3912294 5.54366354,41.712022 C7.16225144,19.3927862 28.9637312,2.53985262 51.2148187,6.92278413 C48.1215173,6.12711348 44.8843416,5.69106799 41.543756,5.69106799 L41.5482521,5.69106799 Z"></path>
                            <path d="M89.8046517,41.1995562 C88.1051344,20.5885398 72.6970769,3.80303595 52.743485,0 C71.424687,4.70659414 85.587331,20.9122024 87.210415,40.6241559 C87.3632816,42.4717301 86.0369388,44.0675667 84.2699803,44.3687528 C86.571972,46.0769723 90.1283693,44.085548 89.8091478,41.2040515 L89.8046517,41.1995562 Z"></path>
                        </g>
                        <path d="M13.8164461,56.5926262 C10.4938449,56.5926262 7.80069444,59.2853195 7.80069444,62.6073568 L7.80069444,80.9482394 C7.80069444,84.2702768 10.4938449,86.9629701 13.8164461,86.9629701 C17.1390474,86.9629701 19.8321978,84.2702768 19.8321978,80.9482394 L19.8321978,62.6073568 C19.8321978,59.2853195 17.1390474,56.5926262 13.8164461,56.5926262 Z" fill="#51B88E"></path>
                        <path d="M14.9989145,56.7095044 C16.8423063,58.3368082 15.6238693,75.9449545 15.9520829,78.2870133 C15.9970437,82.0361055 12.418166,84.9580599 8.75386287,84.1848658 C9.82392931,85.8526274 11.6898015,86.9629701 13.8164461,86.9629701 C17.1390474,86.9629701 19.8321978,84.2702768 19.8321978,80.9482394 L19.8321978,62.6073568 C19.8321978,59.6898978 17.75501,57.2579327 14.9944184,56.7095044 L14.9989145,56.7095044 Z" fill="#CCCCCC"></path>
                        <path d="M101.845147,59.1909179 L101.845147,81.4247428 C114.89726,81.1954817 114.888268,59.4156836 101.845147,59.1909179 Z" fill="#379C73"></path>
                        <path d="M111.385824,67.9073325 C111.385824,67.628623 111.367839,67.3544088 111.349855,67.0801946 C111.628612,68.1051263 111.781478,69.1884971 111.781478,70.3123256 L111.781478,70.3123256 C111.781478,76.4529251 107.334858,81.4292381 101.849643,81.4292381 L101.849643,79.0062636 C107.150519,78.7725073 111.39032,73.9040818 111.39032,67.9118278 L111.385824,67.9073325 Z" fill="#CCCCCC"></path>
                        <path d="M97.9605363,55.1226584 C94.637935,55.1226584 91.9447846,57.8153517 91.9447846,61.137389 L91.9447846,79.4782716 C91.9447846,82.800309 94.637935,85.4930023 97.9605363,85.4930023 C101.283138,85.4930023 103.976288,82.800309 103.976288,79.4782716 L103.976288,61.137389 C103.976288,57.8153517 101.283138,55.1226584 97.9605363,55.1226584 Z" fill="#51B88E"></path>
                        <path d="M96.782564,55.2395366 C94.9391722,56.8668404 96.1576092,74.4749868 95.8293956,76.8170455 C95.7844348,80.5661377 99.3633125,83.4880921 103.027616,82.714898 C101.957549,84.3826596 100.091677,85.4930023 97.9650324,85.4930023 C94.5839821,85.6053851 91.8188944,82.4092166 91.9492807,79.4737763 C91.9492807,78.9523199 91.9492807,61.1733515 91.9492807,61.0025296 C92.0122258,58.1435097 94.0714293,55.7834696 96.782564,55.2440319 L96.782564,55.2395366 Z" fill="#CCCCCC"></path>
                        <g transform="translate(50.190529, 91.970750)">
                            <path d="M11.8553399,7.80836106 C8.51925037,8.37926598 1.45591263,12.0474425 0.125073698,6.71599966 L0.125073698,6.71599966 C-0.418951678,4.59421128 0.862430406,2.43196507 2.98457898,1.88803203 C6.25322731,1.33061305 13.4739278,-2.35554473 14.7148451,2.98039343 L14.7148451,2.98039343 C15.2588705,5.10218181 13.9774884,7.26442802 11.8553399,7.80836106 Z" fill="#838889"></path>
                            <path d="M14.7148451,2.98039343 C14.2652374,1.22272551 12.7006024,0.0449531437 10.9741087,0 C14.647404,1.03841762 14.5394981,6.77893407 10.7358166,7.61056722 C10.0119481,7.74093134 3.33527302,9.65593526 2.75078295,9.49859926 C4.26596106,10.267298 10.2772167,8.02863146 11.8598359,7.80386574 C13.9819845,7.2599327 15.2633666,5.09768649 14.7193412,2.97589811 L14.7148451,2.98039343 Z" fill="#CCCCCC"></path>
                            <g transform="translate(1.027007, 0.788250)" fill="#CCCCCC">
                                <path d="M3.28841063,3.13166446 C3.66158506,2.92488 3.98080656,3.51376618 3.60313605,3.71156002 C3.22996162,3.91834448 2.91074012,3.3294583 3.28841063,3.13166446 Z"></path>
                                <path d="M5.11831417,3.47780367 C5.14079455,3.05074881 5.80621402,3.09570195 5.77474148,3.5182615 C5.75226109,3.94531636 5.08684162,3.90036322 5.11831417,3.47780367 Z"></path>
                                <path d="M5.06885731,5.60858268 C5.0913377,5.18152782 5.75675717,5.22648096 5.72528463,5.64904051 C5.70280424,6.07609537 5.03738477,6.03114223 5.06885731,5.60858268 Z"></path>
                                <path d="M3.73801838,4.87584644 C4.11119281,4.66906198 4.43041431,5.25794816 4.0527438,5.45574199 C3.67956937,5.66252645 3.36034787,5.07364027 3.73801838,4.87584644 Z"></path>
                                <path d="M4.13816927,1.73811701 C4.51134371,1.53133255 4.83056521,2.12021873 4.4528947,2.31801256 C4.07972027,2.52479702 3.76049877,1.93591084 4.13816927,1.73811701 Z"></path>
                                <path d="M6.07148259,1.86848113 C6.44465703,1.66169667 6.76387853,2.25058285 6.38620802,2.44837668 C6.01303359,2.65516114 5.69381208,2.06627496 6.07148259,1.86848113 Z"></path>
                                <path d="M7.00217063,0.78061505 C7.37534506,0.573830589 7.69456657,1.16271677 7.31689606,1.3605106 C6.94372163,1.56729506 6.62450012,0.978408882 7.00217063,0.78061505 Z"></path>
                                <path d="M8.6072703,1.25262306 C8.98044473,1.0458386 9.29966623,1.63472478 8.92199572,1.83251861 C8.54882129,2.03930307 8.22959979,1.45041689 8.6072703,1.25262306 Z"></path>
                                <path d="M9.34912308,0.0433834934 C9.72229751,-0.163400968 10.041519,0.425485215 9.65935243,0.623279047 C9.286178,0.830063508 8.9669565,0.241177326 9.34912308,0.0433834934 Z"></path>
                                <path d="M10.8328287,1.18968866 C11.2060031,0.982904196 11.5252246,1.57179038 11.1475541,1.76958421 C10.7743796,1.97636867 10.4551581,1.38748249 10.8328287,1.18968866 Z"></path>
                                <path d="M10.2438425,2.45287199 C10.6170169,2.24608753 10.9362384,2.83497372 10.5585679,3.03276755 C10.1853935,3.23955201 9.86617199,2.65066583 10.2438425,2.45287199 Z"></path>
                                <path d="M9.49749364,4.36787591 C9.10183882,4.52521192 8.86354671,3.90036322 9.26369761,3.75651316 C9.65935243,3.59917716 9.89764454,4.22402586 9.49749364,4.36787591 Z"></path>
                                <path d="M11.1790266,4.76346358 C10.7833718,4.92079958 10.5450797,4.29595088 10.9452306,4.14760551 C11.3408854,3.99026951 11.5791775,4.6151182 11.1790266,4.76346358 Z"></path>
                                <path d="M8.33750565,5.56812485 C7.94185083,5.72546085 7.70355872,5.10061216 8.10370962,4.9567621 C8.49936444,4.79942609 8.73765654,5.42427479 8.33750565,5.56812485 Z"></path>
                                <path d="M6.89426477,3.7699991 C7.26743921,3.56321464 7.58666071,4.15210083 7.2089902,4.34989466 C6.83581577,4.55667912 6.51659426,3.96779294 6.89426477,3.7699991 Z"></path>
                                <path d="M8.06324492,2.74506743 C8.43641935,2.53828297 8.75564085,3.12716915 8.37797034,3.32496298 C8.00479591,3.53174744 7.68557441,2.94286126 8.06324492,2.74506743 Z"></path>
                                <path d="M0.4783622,2.97882378 C0.410921038,2.55626422 1.07634051,2.46186262 1.13029344,2.88442217 C1.1977346,3.30698172 0.53231513,3.40138333 0.4783622,2.97882378 Z"></path>
                                <path d="M2.02501286,4.25998837 C2.39818729,4.05320391 2.71740879,4.64209009 2.33973828,4.83988392 C1.96656385,5.04666838 1.64734235,4.4577822 2.02501286,4.25998837 Z"></path>
                                <path d="M1.94408346,6.00866566 C2.31725789,5.8018812 2.63647939,6.39076738 2.25880888,6.58856121 C1.88563445,6.79534567 1.56641295,6.20645949 1.94408346,6.00866566 Z"></path>
                                <path d="M12.1501794,3.23955201 C11.7545245,3.39688801 11.5162324,2.77203931 11.9163833,2.62369394 C12.3120381,2.46635794 12.5503303,3.09120663 12.1501794,3.23955201 Z"></path>
                                <path d="M2.01152462,2.12471405 C2.38469905,1.91792958 2.70392056,2.50681577 2.32625005,2.7046096 C1.95307562,2.91139406 1.63385411,2.32250788 2.01152462,2.12471405 Z"></path>
                                <path d="M0.172628931,4.31393214 C0.545803362,4.10714768 0.865024864,4.69603386 0.482858277,4.8938277 C0.109683846,5.10061216 -0.209537655,4.51172597 0.172628931,4.31393214 Z"></path>
                            </g>
                        </g>
                    </g>
                </g>
                <g id="Group" transform="translate(168.306033, 223.361181)">
                    <path d="M6.57452096,0.154951065 L135.665898,0.154951065 C139.26276,0.154951065 142.180714,3.07241009 142.180714,6.66866158 L142.180714,82.9226792 C142.180714,86.5189307 139.26276,89.4363897 135.665898,89.4363897 L6.57452096,89.4363897 C2.97765897,89.4363897 0.0597046825,86.5189307 0.0597046825,82.9226792 L0.0597046825,6.66866158 C0.0597046825,3.07241009 2.97765897,0.154951065 6.57452096,0.154951065 Z" id="Path" fill="#FFFFFF"></path>
                    <path d="M126.021812,0.154951065 C121.516742,78.7645134 60.3700881,79.6860529 0.0597046825,76.6876782 C0.284508557,80.6974986 -1.45547343,89.4318944 4.85252328,89.4363897 C4.85252328,89.4363897 137.383399,89.4363897 137.383399,89.4363897 C140.031589,89.4363897 142.176405,87.1302934 142.176405,84.2802641 L142.176405,5.31107664 C142.230171,-2.48829378 130.603315,0.802276334 126.021812,0.154951065 Z" id="Path" fill="#D3E6F0"></path>
                    <path d="M63.7960991,49.2572699 C63.8365638,39.992427 78.3993588,39.992427 78.4398235,49.2572699 C78.3993588,58.5221128 63.8365638,58.5221128 63.7960991,49.2572699 Z" id="Path" fill="#D3E6F0"></path>
                </g>
                <g id="Group" transform="translate(333.973132, 9.296421)">
                    <g id="Shape">
                        <path d="M39.7014883,79.2973454 C-12.4125458,78.3623201 -12.4035537,0.92603476 39.7014883,0 C91.8155225,0.935025388 91.8065303,78.3668154 39.7014883,79.2973454 Z M39.7014883,3.11075754 C-8.33010749,3.9738579 -8.32111533,75.3369735 39.7014883,76.1910832 C87.728588,75.3279829 87.7240919,3.96486727 39.7014883,3.11075754 Z" fill="#ACACAC"></path>
                        <path d="M43.7389659,82.250767 C-7.01275679,81.3427135 -7.00376463,5.92931965 43.7389659,5.02576146 C94.4906886,5.93381496 94.4816964,81.3472088 43.7389659,82.250767 Z M43.7389659,6.06417908 C-5.65044531,6.94975601 -5.64594923,80.3402584 43.7389659,81.2168447 C93.1283771,80.3312677 93.1193849,6.94076538 43.7389659,6.06417908 Z" fill="#3CA97C"></path>
                        <path d="M38.06042,83.7611926 C-12.6913027,82.8531391 -12.6823105,7.43974528 38.06042,6.53618709 C88.8121427,7.44424059 88.8031505,82.8576344 38.06042,83.7611926 Z M38.06042,7.57460471 C-11.3334873,8.46018164 -11.3244951,81.850684 38.06042,82.7272703 C87.4498312,81.8416934 87.4408391,8.45119101 38.06042,7.57460471 Z" fill="#3CA97C"></path>
                    </g>
                    <g transform="translate(19.223635, 28.943621)" id="Path">
                        <path d="M17.1552516,16.2387837 C16.9304477,16.1219055 16.7191321,15.9915414 16.5123125,15.8476913 C16.7461085,15.9241116 16.9664163,16.072457 17.1552516,16.2387837 Z" fill="#FFFFFF"></path>
                        <path d="M19.8798745,16.9715199 C30.3737194,16.9265668 30.3737194,0.972696064 19.8798745,0.92774292 C9.38602968,0.972696064 9.38602968,16.9265668 19.8798745,16.9715199 Z" fill="#51B88E"></path>
                        <path d="M12.4433624,15.200366 C12.5108035,15.285777 12.5872369,15.3756833 12.6591741,15.4610943 C12.2859997,15.613935 11.8948409,15.7398038 11.49469,15.8342054 C11.7734468,15.5689818 12.1016605,15.357702 12.4433624,15.200366 Z" fill="#FFFFFF"></path>
                        <path d="M28.3280041,15.4296271 C28.1841297,15.371188 28.0447513,15.3082536 27.9053729,15.2408239 C27.9188611,15.2228426 27.9323493,15.2093567 27.9458375,15.1868801 C28.0762238,15.2543098 28.202114,15.3352255 28.3280041,15.4296271 Z" fill="#FFFFFF"></path>
                        <path d="M27.2399534,17.0344543 C24.3984324,15.5644865 21.5344311,21.9163657 15.0465912,17.1693137 C12.0027468,15.7218225 10.2717569,20.3969494 10.2537726,23.1975303 C10.1458668,24.622545 11.2474058,25.8767377 12.6906466,25.8677951 L27.6850651,25.8677951 C32.2216072,25.3013374 29.6093862,18.4684596 27.2399534,17.0344543 L27.2399534,17.0344543 Z" fill="#51B88E"></path>
                        <g transform="translate(26.776857, 0.002349)" fill="#51B88E">
                            <path d="M12.6654503,8.02349526 C12.8093248,13.8269461 6.25853986,17.872729 1.12851545,15.2384748 C4.50057356,11.4174576 3.91608349,4.66549543 0,1.47831754 C5.0131264,-2.31123247 12.8632777,1.65813012 12.6609542,8.01899995 L12.6654503,8.02349526 Z"></path>
                            <path d="M14.8820165,22.2781371 C14.9899223,23.7031518 13.8838873,24.9573445 12.4451425,24.9484019 L5.0131264,24.9484019 C5.72350664,22.6107904 5.0131264,19.8057142 3.8351541,17.8952056 C7.39155139,18.8751841 9.85540185,14.7844481 12.0000308,16.1105658 C13.7849736,17.5041133 14.8820165,19.5629672 14.8820165,22.2781371 Z"></path>
                        </g>
                        <g fill="#51B88E">
                            <path d="M10.2267962,8.94738375 C10.2267962,11.4377879 11.1350038,13.6944357 12.6591741,15.4610943 C7.54263791,17.6413217 1.49990977,13.6135201 1.61680779,8.02584431 C1.43696469,1.86276831 8.83301215,-2.15154742 13.9045876,1.2334243 C11.665541,3.05852193 10.2312923,5.84112152 10.2312923,8.95187907 L10.2267962,8.94738375 Z"></path>
                            <path d="M8.31596324,23.2020256 C8.29797893,23.7999024 8.3834044,24.4157605 8.58572789,24.9507029 C6.3466813,24.609059 -0.316505534,26.3262691 0.0117081228,22.2804862 C0.0117081228,19.6776991 0.996349092,17.6772843 2.61943307,16.2882321 C4.79553457,14.9171612 6.91318707,18.531394 9.71424334,17.9514984 C8.79254745,19.4574287 8.31596324,21.2330779 8.31596324,23.2020256 L8.31596324,23.2020256 Z"></path>
                        </g>
                    </g>
                </g>
                <g id="Group" transform="translate(0.000000, 117.817805)">
                    <g id="Shape">
                        <path d="M39.7059844,79.2973454 C-12.4080498,78.3623201 -12.3990576,0.930530074 39.7059844,0 C91.8200185,0.935025388 91.8110264,78.3668154 39.7059844,79.2973454 Z M39.7059844,3.11075754 C-8.32561141,3.9738579 -8.31661926,75.3369735 39.7059844,76.1910832 C87.7330841,75.3279829 87.728588,3.96486727 39.7059844,3.11075754 Z" fill="#ACACAC"></path>
                        <path d="M43.743462,82.250767 C-7.00826071,81.3382182 -6.99926855,5.92931965 43.743462,5.02576146 C94.4951846,5.93381496 94.4861925,81.3472088 43.743462,82.250767 L43.743462,82.250767 Z M43.743462,6.06417908 C-5.64594923,6.94975601 -5.64145315,80.3402584 43.743462,81.2168447 C93.1328732,80.3312677 93.123881,6.94076538 43.743462,6.06417908 Z" fill="#3CA97C"></path>
                        <path d="M38.06042,83.7611926 C-12.6913027,82.8531391 -12.6823105,7.43974528 38.06042,6.53618709 C88.8121427,7.44424059 88.8031505,82.8576344 38.06042,83.7611926 L38.06042,83.7611926 Z M38.06042,7.57460471 C-11.3289912,8.46018164 -11.3244951,81.850684 38.06042,82.7272703 C87.4498312,81.8416934 87.4408391,8.45119101 38.06042,7.57460471 Z" fill="#3CA97C"></path>
                    </g>
                    <g transform="translate(15.777860, 18.994160)" id="Path">
                        <path d="M16.3747142,10.0770383 C4.72088136,9.73988976 -2.91345821,23.6438971 3.39004243,33.2908417 C1.44773695,34.7293423 0.678907701,37.9659687 0,41.3419498 C7.12178674,37.48497 9.32036863,39.7191413 16.3747142,40.5552697 C36.4092355,40.2136259 36.4047394,10.4141869 16.3747142,10.0770383 L16.3747142,10.0770383 Z" fill="#51B88E"></path>
                        <path d="M47.4201293,31.2364831 C41.6381736,26.9479532 38.5763448,28.9303868 32.8033813,30.3464108 C36.1529591,20.0116831 28.3073039,8.69248151 17.52571,8.17102504 C27.4260727,-9.9585778 54.5194356,5.22659413 44.0300868,23.185375 C46.3185903,24.5474553 47.1233881,27.5997737 47.4201293,31.2364831 L47.4201293,31.2364831 Z" fill="#51B88E"></path>
                        <path d="M8.45262568,25.0958836 C8.42115313,22.8976749 11.8741406,22.8976749 11.8426681,25.0958836 C11.8741406,27.2940924 8.42115313,27.2940924 8.45262568,25.0958836 Z" fill="#FFFFFF"></path>
                        <path d="M14.1131872,25.0958836 C14.0817147,22.8976749 17.5347022,22.8976749 17.5032297,25.0958836 C17.5347022,27.2940924 14.0817147,27.2940924 14.1131872,25.0958836 Z" fill="#FFFFFF"></path>
                        <path d="M19.7737488,25.0958836 C19.7422762,22.8976749 23.1952638,22.8976749 23.1637912,25.0958836 C23.1952638,27.2940924 19.7422762,27.2940924 19.7737488,25.0958836 Z" fill="#FFFFFF"></path>
                    </g>
                </g>
                <g id="Group" transform="translate(93.008669, 7.129680)">
                    <g id="Shape">
                        <path d="M29.6139764,59.1493464 C-9.25910955,58.4525727 -9.25461347,0.692278413 29.6139764,0 C68.4870624,0.696773727 68.4780702,58.457068 29.6139764,59.1493464 Z M29.6139764,2.31958221 C-6.21526509,2.96241217 -6.20627294,56.1959249 29.6139764,56.8342595 C65.4387218,56.1914296 65.4342257,2.95791685 29.6139764,2.31958221 Z" fill="#ACACAC"></path>
                        <path d="M32.6308444,61.3520505 C-5.22612804,60.673258 -5.22163197,4.42338934 32.6308444,3.74909218 C70.4878168,4.42788465 70.4833208,60.6777533 32.6308444,61.3520505 Z M32.6308444,4.52228625 C-4.21001453,5.18309747 -4.20551845,59.9270358 32.6308444,60.5788564 C69.4717033,59.9180452 69.4672072,5.17410684 32.6308444,4.52228625 Z" fill="#3CA97C"></path>
                        <path d="M28.3910433,62.4803744 C-9.46592911,61.8015819 -9.46143304,5.55171324 28.3910433,4.87741609 C66.2480158,5.55620856 66.2435197,61.8060772 28.3910433,62.4803744 Z M28.3910433,5.65061016 C-8.4498156,6.31142137 -8.44531952,61.0553597 28.3910433,61.7071803 C65.2319023,61.0463691 65.2274062,6.30243074 28.3910433,5.65061016 Z" fill="#3CA97C"></path>
                    </g>
                    <g transform="translate(10.474875, 13.305951)" id="Path">
                        <path d="M19.7235912,0.0541235645 C30.1410027,0.499159687 38.2339422,9.12566796 37.7978227,19.3165456 C37.3302306,38.1339316 10.2368677,43.4384025 2.11245566,26.8821597 C-4.6856135,14.7582969 5.92063329,-1.04273314 19.7235912,0.0541235645 Z" fill="#51B88E"></path>
                        <path d="M19.3863854,0.0451329358 C18.7344541,1.2858397 17.4036152,0.68796289 16.4009899,1.30831627 C15.5782077,1.85674463 15.1510804,2.93112476 15.4163489,3.27276865 C15.6141764,3.52900157 16.1402174,3.28625459 16.2481233,3.50202968 C16.4594389,4.14036432 14.4811648,5.16979131 13.8966748,5.53840709 C13.1862945,6.87801077 12.3410319,7.46689696 10.8303499,6.93195455 C10.1694265,8.11871754 10.5515931,10.8653546 7.84045838,9.68308694 C7.46278787,9.87638546 7.86293877,10.6450842 7.38185848,11.3463533 C6.46016259,12.4656865 5.59691571,12.0835848 4.84607077,12.4342193 C3.73104356,14.8796703 5.63288433,16.0934052 4.37398264,19.0108643 C3.87491804,20.1886366 3.24097111,20.3729445 3.38934167,20.9708213 C3.25445934,21.2000823 4.72917276,22.4407891 5.01242564,23.2049926 C4.96746487,23.6365427 4.15817092,23.6140662 3.83445334,24.2254289 C3.61864162,24.6255119 4.09972191,24.9446792 3.90639058,25.5830139 C3.64561808,26.2618063 2.95771823,27.043991 2.12144782,26.8821597 C-0.495269281,22.0946499 -0.630151606,15.5090144 1.86067532,10.5911404 C3.48825537,9.36841493 5.6193961,8.90989287 6.3387685,7.03085146 C7.56170158,4.12687838 7.04015659,5.30465075 9.21625809,4.69328799 C9.71082661,0.395767456 15.5737117,0.220450196 19.3953775,0.0406376214 L19.3863854,0.0451329358 Z" fill="#3CA97C"></path>
                        <path d="M6.72992724,28.2757072 C6.88728995,28.9185371 8.00231717,29.5119186 8.75765819,30.1187861 C9.90865402,31.0448208 9.37811688,30.7661113 8.71269741,31.1706896 C8.52386216,31.4943522 9.00044637,32.2765369 9.36912473,32.2540604 C10.2233794,30.8380364 12.3050633,30.0963095 11.302438,28.1228665 C12.0218104,27.5654475 12.6152927,28.5274448 13.0244357,28.9005559 C13.4066023,29.0219293 13.617918,28.5364354 14.0900061,28.5948745 C14.5710864,28.6533136 14.5710864,29.1837607 15.1106157,29.3410967 C16.0682802,29.3141248 16.3425409,28.8556027 17.9296563,29.1118356 C19.188558,29.17477 19.0986364,29.1118356 19.3324324,29.1702747 C20.177695,29.4040311 20.2316479,29.9659454 21.0409419,30.2941033 C22.8708454,30.5683175 28.009862,30.1277767 28.4459815,29.5568718 C26.0765487,28.0464461 31.5797475,27.7227835 32.06982,26.9046363 C33.3781785,24.8322964 34.6190959,22.3688641 35.8735015,20.0447866 C38.5216912,15.0594829 34.452741,20.2470757 33.6479432,14.6818765 C33.4770922,14.331242 33.3916667,11.2474563 32.7442316,11.1350735 C31.552771,10.6450842 32.4699709,15.0909501 31.1481241,15.6303878 C29.345197,16.1293677 29.5070558,14.9246235 28.2841227,16.9115524 C27.7535856,16.4035819 27.5557582,14.9695766 25.919186,14.7043531 C24.6782686,14.9111375 24.9705136,14.0300559 24.2286608,13.2253947 C23.3878943,12.7039382 22.8168925,12.8567789 22.5381357,11.7509315 C22.1379848,11.1081016 21.683881,11.2609423 21.1803203,10.6405889 C20.7936576,10.1640856 20.9195478,9.89886203 20.523893,9.55721814 C19.8494813,8.91438818 19.2604952,9.14364922 18.4062405,9.81794637 C17.6688838,10.1505996 17.3271819,9.79097448 16.9899761,10.1101418 C16.580833,10.4967388 17.0169525,11.1081016 16.5628487,11.8453332 C16.3919978,12.1240426 16.2930841,12.1015661 15.8344842,12.515135 C14.8318589,13.4186932 14.953253,13.845748 14.3597707,14.2053732 C13.5864454,14.6728859 13.1413337,14.0974856 12.2421182,14.4661014 C11.0956185,14.9381094 10.4032225,16.4485351 10.7359323,16.8576087 C11.181044,17.4105323 13.5145082,16.0574427 13.9056669,16.6418336 C13.1952867,19.1547143 16.347037,17.334112 17.043929,17.1273275 C17.3091976,17.2981495 17.1698192,18.2556514 16.6168016,18.8625189 C15.0521667,20.3684492 14.8543393,18.9749017 13.4785395,18.3770249 C10.4751598,18.4579406 12.1477006,22.1306124 11.8644477,23.2229738 C11.5362341,23.7129631 10.8977911,23.5016833 10.4167108,24.211943 C10.1919069,25.0615574 9.52648744,25.1020152 8.9554856,25.556042 C8.456421,26.9630754 7.93937208,25.942639 7.17503891,26.1808907 C7.04914874,26.3022642 7.16604676,26.4685908 7.14356637,26.8821597 C7.10310167,27.6553538 6.66698216,27.7947085 6.73442332,28.2667165 L6.72992724,28.2757072 Z" fill="#3CA97C"></path>
                    </g>
                </g>
                <g id="Group" transform="translate(402.685602, 141.801201)">
                    <g id="Shape">
                        <path d="M61.8682328,33.1925077 C60.0068567,73.2682353 -0.420424727,71.5465299 0.00220655686,31.4348398 C1.86358264,-8.63639245 62.2908641,-6.91918236 61.8682328,33.1925077 Z M2.42559232,31.5067649 C2.04342574,68.4807255 57.7363376,70.0540856 59.444847,33.125078 C59.8270136,-3.84438733 4.13410177,-5.41774736 2.42559232,31.5067649 Z" fill="#ACACAC"></path>
                        <path d="M64.260146,30.1491799 C62.4482268,69.1774992 3.59906855,67.500747 4.01270768,28.4409605 C5.8246269,-10.5828636 64.6737851,-8.91060663 64.260146,30.1491799 Z M4.81750555,28.463437 C4.42185073,66.4848059 61.6928858,68.1031191 63.4508521,30.1267033 C63.8465069,-7.89017026 6.57547184,-9.50848344 4.81750555,28.463437 L4.81750555,28.463437 Z" fill="#3CA97C"></path>
                        <path d="M65.3122281,34.554588 C63.5003089,73.5829073 4.65115068,71.9061551 5.06478981,32.8418732 C6.87670903,-6.18195081 65.7258673,-4.50969386 65.3122281,34.554588 Z M5.86958768,32.8688451 C5.47393286,70.890214 62.7449679,72.5085272 64.5029342,34.5321114 C64.898589,-3.48476218 7.62755397,-5.10307536 5.86958768,32.8688451 L5.86958768,32.8688451 Z" fill="#3CA97C"></path>
                    </g>
                    <g transform="translate(14.629128, 30.579131)" fill="#51B88E" id="Shape">
                        <path d="M15.3124586,4.21820381 L13.5185237,4.2451757 C13.2397669,3.86756929 12.9205454,3.5259254 12.5698513,3.22024402 C12.5383788,2.6808063 13.2172865,1.09845564 12.4304729,0.824241465 C11.9448965,0.653419519 11.0321928,-0.0748214087 10.5556086,0.464616315 C9.43158922,1.61991211 9.52600685,1.74578091 7.88044249,1.60193085 C6.8193682,0.307280312 6.73394273,-0.501876274 4.89055096,0.352233456 C4.07226486,0.523055402 4.53536084,2.17733109 4.44543929,2.70777818 C4.04978447,2.96850642 3.69009827,3.26969248 3.37087677,3.60234574 C2.81785924,3.62931763 1.14981449,2.98199236 0.848577298,3.72821455 C-0.320402849,5.43643401 0.614781268,5.55331218 1.77027318,6.69512203 C1.68934379,7.14015815 1.65787125,7.5941849 1.68035163,8.05720228 C0.398969549,9.05066676 -0.558694956,9.05066676 0.371993084,10.8937456 C0.569820494,11.6804257 2.31429856,11.2353895 2.85382786,11.3252958 C3.13258466,11.7029022 3.45180616,12.0445461 3.80250021,12.3502275 C3.82947667,12.8896652 3.15956113,14.4720159 3.94187861,14.7462301 C5.66387629,15.8296008 5.85720762,15.0294349 7.06215638,13.8786344 C7.52974844,13.95955 8.00633266,13.9910172 8.49190903,13.9685407 C9.55298331,15.2631912 9.63840878,16.0723478 11.4862966,15.2182381 C12.3045827,15.0474161 11.8414868,13.3931404 11.9314083,12.8626933 C12.3270631,12.6019651 12.6912454,12.300779 13.0059708,11.9636305 C13.5589884,11.9366586 15.2270331,12.5839838 15.5282703,11.8377617 C16.6972504,10.1295422 15.7620663,10.012664 14.6065744,8.87085418 C14.6875038,8.42581806 14.7189763,7.97179131 14.696496,7.51326924 C15.0606782,7.12217689 16.7242269,6.465861 16.382525,5.72862944 C16.1667133,5.26561206 16.0498153,4.14627878 15.3214507,4.21820381 L15.3124586,4.21820381 Z M9.68336956,11.9771164 C4.10823348,13.9145969 0.84408122,5.43643401 6.67549372,3.5888598 C12.2461337,1.65137931 15.5147821,10.1295422 9.68336956,11.9771164 Z"></path>
                        <path d="M4.79613333,7.6885865 C4.61179415,11.8557429 11.508777,12.0490414 11.5582339,7.88188502 C11.742573,3.7147286 4.84559018,3.51693477 4.79613333,7.6885865 Z M9.91716559,7.83243656 C9.89018912,9.97670152 6.33828791,9.87330929 6.43270554,7.73353965 C6.459682,5.58477938 10.0115832,5.68817161 9.91716559,7.83243656 Z"></path>
                    </g>
                    <g transform="translate(27.458144, 12.719865)" fill="#51B88E" id="Shape">
                        <path d="M20.2519412,3.71860656 C17.9364613,4.45134281 18.1972338,4.74803355 16.061597,3.46237364 C15.7783441,2.72514209 15.9896597,0.29767233 14.7981992,0.243728558 C14.0698346,0.212261357 12.4917114,-0.430568598 12.0825684,0.508952105 C10.9450608,2.69367489 11.3811803,2.59477797 8.93531414,3.13871101 C6.85363026,1.82607921 6.57037738,0.675278737 4.29536217,2.6352358 C3.2522722,3.20614073 4.63256798,5.28747128 4.74047384,6.03818878 C4.31334648,6.55514993 3.95815636,7.11256891 3.6704074,7.69695978 C1.32795103,8.18694904 0.176955194,7.44522217 0.0240885599,10.4570828 C-0.272652554,11.5809114 2.25863907,12.1158538 2.86560953,12.5698806 C2.951035,13.2127105 3.11289379,13.8465498 3.3511859,14.4669032 C1.97988227,16.4403462 0.75694919,16.6965791 2.83863307,18.8723113 C3.4500996,19.8612805 5.63069719,18.5576393 6.41301467,18.4587424 C6.96153612,18.8633207 7.55052227,19.2049646 8.16648489,19.4791787 C8.44074562,20.2164103 8.24291821,22.6393847 9.42988266,22.6978238 C12.3613252,23.4395507 12.0645841,22.4326003 13.3010054,20.2523728 C13.975417,20.1714571 14.6408365,20.0231118 15.2927677,19.7983461 C17.3744516,21.1109779 17.6577045,22.2662736 19.9372157,20.3018213 C20.9803057,19.7309163 19.6000099,17.6540811 19.4921041,16.9033636 C19.9147354,16.3864025 20.2744216,15.8289835 20.5576744,15.2445926 C22.9001308,14.7546033 24.0511267,15.4963302 24.2039933,12.4844696 C24.5007344,11.360641 21.9694428,10.8256986 21.3624723,10.3716718 C21.2770468,9.73333719 21.1151881,9.09500255 20.8768959,8.47914448 C21.2051096,7.79585669 23.1743915,6.22249667 22.3785858,5.35939631 C21.8795212,4.81995858 21.2185978,3.33200953 20.2564373,3.72310188 L20.2519412,3.71860656 Z M16.0391166,16.5931869 C9.24554349,21.3762014 1.04919423,11.4685285 8.18896528,6.34387015 C14.9780423,1.56085567 23.1788876,11.4730238 16.0391166,16.5931869 Z"></path>
                        <path d="M7.45610465,12.7002447 C8.98926707,18.3913127 18.5344396,16.0582445 16.7719772,10.2323171 C15.2388148,4.53675378 5.69364227,6.86982194 7.45610465,12.7002447 Z M14.5104502,10.8301939 C15.4186579,13.8240733 10.5044452,15.0243222 9.71313554,12.0978725 C8.80492789,9.09949786 13.7191406,7.89924893 14.5104502,10.8301939 Z"></path>
                    </g>
                </g>
                <path d="M420.307936,119.350708 C420.137085,119.782258 412.92088,129.343791 413.307543,129.653968 C414.539468,130.885684 416.823476,129.75736 418.176795,128.7594 C422.812251,124.951869 423.153953,117.219928 417.057272,114.603656 C400.363336,108.139393 396.43826,137.862412 415.67248,133.915526 L418.334158,135.228158 C399.558538,142.636436 393.039226,114.81044 411.837326,111.38501 C422.717833,110.566863 428.270489,123.558322 419.435697,130.472115 C417.232619,132.468035 410.029903,133.708742 410.425557,129.24939 C405.488864,131.191366 402.530445,125.909371 405.070729,121.60286 C407.017531,116.761406 415.533102,111.955915 416.823476,119.4541 L417.78114,118.105505 L420.312432,119.350708 L420.307936,119.350708 Z M407.480627,123.580798 C406.199245,125.662129 407.125437,128.53913 409.760138,127.595114 C411.765389,126.592659 415.488141,122.092849 415.11047,119.629417 C413.100724,115.273457 408.514725,121.211768 407.485123,123.585294 L407.480627,123.580798 Z" id="Shape" fill="#E8E8E8"></path>
                <g id="Group" transform="translate(385.854962, 147.931044)" fill="#FFFFFF" opacity="0.11">
                    <g transform="translate(4.834191, 9.148837)" id="Path">
                        <path d="M6.31111687,5.85289931 C6.74723639,5.78996491 6.95405595,5.53373199 6.92258341,5.09319118 C6.70227561,4.38742682 6.27065217,3.82551253 5.63220917,3.40295298 C4.6475682,2.51288073 3.61347038,1.68124757 2.53890786,0.903558188 C1.99038641,0.368615778 1.3519434,0.0674297155 0.614586696,0 C0.17846718,0.0629344011 -0.0283523847,0.31916732 0.00312015766,0.759708128 C0.223427955,1.46547248 0.655051393,2.02738678 1.2934944,2.44994633 C2.27813537,3.34001857 3.31223319,4.17165173 4.38679571,4.94934112 C4.93531716,5.48428353 5.57376016,5.78546959 6.31111687,5.85289931 Z"></path>
                    </g>
                    <g transform="translate(0.000000, 5.777351)" id="Path">
                        <path d="M6.8650423,6.17206663 C7.31914613,6.11362754 7.52146962,5.86188994 7.46751669,5.40786318 C7.19325596,4.66613631 6.71667175,4.07725013 6.03326797,3.63221401 C4.95870545,2.69269331 3.83468608,1.80711638 2.67020201,0.979978532 C2.08121586,0.418064236 1.393316,0.0944016017 0.610998518,0 C0.156894692,0.0539437724 -0.0454287949,0.310176691 0.00852413494,0.764203442 C0.282784862,1.50593031 0.759369075,2.0948165 1.44277285,2.53985262 C2.51733537,3.47937332 3.64135474,4.36495025 4.80583881,5.18759278 C5.39482496,5.74950708 6.08272482,6.07316971 6.8650423,6.16757131 L6.8650423,6.17206663 Z"></path>
                    </g>
                    <g transform="translate(7.332634, 5.031129)" id="Path">
                        <path d="M1.39378402,2.70168393 C1.92881724,2.70168393 2.64818964,2.21169467 2.64818964,1.61831317 C2.64818964,1.13281922 1.77145453,0 1.25440562,0 C0.737356708,0 0,0.489989266 0,1.08337076 C0,1.56886471 0.87673511,2.70168393 1.39378402,2.70168393 Z"></path>
                    </g>
                    <g transform="translate(1.463353, 0.000000)" id="Path">
                        <path d="M8.67483322,10.0389094 C9.23234683,10.1647782 9.47063894,9.94001251 9.38970954,9.37809822 C8.9985508,8.33518528 8.38708426,7.42263647 7.55530993,6.65393771 C6.19299845,5.07608237 4.77673404,3.54767548 3.3065167,2.06871705 C2.60063254,1.17864481 1.74188174,0.499852341 0.730264304,0.0323396465 C0.172750696,-0.0890338415 -0.0655414113,0.131236563 0.0153879835,0.693150858 C0.406546725,1.74055911 1.01801326,2.64861261 1.8497876,3.41731137 C3.21209908,4.99516671 4.62836349,6.52357359 6.09858082,8.00253202 C6.80446499,8.89260426 7.66321579,9.57139673 8.67483322,10.0389094 Z"></path>
                    </g>
                    <g transform="translate(10.484904, 4.336251)" id="Path">
                        <path d="M1.83837631,3.05042306 C2.16658997,2.96051678 2.43635462,2.77620889 2.64317419,2.50199471 C2.83650552,2.20080865 2.83200944,1.89512727 2.62968595,1.58495058 C2.41387423,1.13991446 2.13511743,0.73084085 1.79791162,0.366720387 C1.5820999,0.0655343241 1.29884702,-0.0513438494 0.948152972,0.0205811805 C0.615443238,0.110487468 0.350174667,0.294795357 0.143355102,0.569009533 C-0.0499762296,0.870195596 -0.0499762296,1.17587697 0.156843335,1.48605366 C0.372655054,1.93108979 0.651411858,2.34016339 0.984121592,2.70428386 C1.19993331,3.00546992 1.48318619,3.12234809 1.83388024,3.05042306 L1.83837631,3.05042306 Z"></path>
                    </g>
                    <g transform="translate(4.055166, 8.883614)" id="Path">
                        <path d="M1.78477108,2.69269331 C2.33778861,2.69269331 2.91778261,1.91500392 2.80987675,1.38905214 C2.69297873,0.827137844 1.60492798,0 1.03842222,0 C0.471916454,0 -0.0945893098,0.777689386 0.0133165499,1.30364117 C0.130214565,1.86555546 1.21826532,2.69269331 1.78477108,2.69269331 Z"></path>
                    </g>
                    <g transform="translate(4.499710, 12.138221)" id="Path">
                        <path d="M3.97492765,3.8479891 C4.80670198,3.8479891 5.34623128,3.27258886 4.87414314,2.45444164 C4.343606,1.90601329 3.75012377,1.43400528 3.09369646,1.04291293 C2.46424561,0.602372125 1.79433007,0.256232919 1.07495767,0 C0.243183333,0 -0.296345966,0.575400239 0.175742171,1.38905214 C0.706279314,1.93748049 1.29976154,2.4094885 1.95618886,2.80058085 C2.5856397,3.23662634 3.25555525,3.58726087 3.97492765,3.84349378 L3.97492765,3.8479891 Z"></path>
                    </g>
                    <g transform="translate(7.128878, 1.466345)" id="Path">
                        <path d="M5.8148609,8.37027535 C7.58181935,8.37027535 5.8148609,5.96078685 5.51811978,5.50226479 C4.62340036,4.18513768 3.67472801,2.91296371 2.66311058,1.68124757 C2.19551852,0.921539445 1.56606767,0.359625149 0.774758033,0 C-0.99220042,0 0.774758033,2.4094885 1.07149915,2.86801057 C1.96621857,4.18513768 2.91489092,5.45731164 3.92650835,6.68902778 C4.39410041,7.44873591 5.02355126,8.0106502 5.8148609,8.37027535 Z"></path>
                    </g>
                    <g transform="translate(4.867866, 6.141472)" id="Path">
                        <path d="M2.15004277,3.23662634 C2.77949362,3.23662634 3.43592093,2.75113239 3.29654253,2.04087272 C3.07173865,1.58684597 2.76600538,1.19575362 2.3838388,0.863100359 C2.03314475,0.49448458 1.62849778,0.206784461 1.1654018,0 C0.53595095,0 -0.120476364,0.485493952 0.0189020385,1.19575362 C0.243705913,1.64978037 0.549439182,2.04087272 0.931605768,2.37352599 C1.28229981,2.74214176 1.68694679,3.02984188 2.15004277,3.23662634 Z"></path>
                    </g>
                    <g transform="translate(3.809953, 0.513338)" id="Path">
                        <path d="M5.0918124,6.61710275 C6.71040029,6.61710275 5.1907261,4.50880031 4.92096145,4.1311939 C4.14314005,3.10626223 3.31136571,2.1262837 2.42114237,1.19575362 C1.99401501,0.584390868 1.43200532,0.184307889 0.73511331,0 C-0.883474585,0 0.636199606,2.10830244 0.905964255,2.48590885 C1.68378566,3.51084052 2.51556,4.49081905 3.40578334,5.42134913 C3.8329107,6.03271188 4.39492038,6.43279486 5.0918124,6.61710275 Z"></path>
                    </g>
                    <g transform="translate(5.721193, 4.451234)" id="Path">
                        <path d="M6.85386788,8.10954712 C8.73322827,8.10954712 6.3907719,5.44832101 6.20193665,5.21006935 C5.13636628,3.9423907 4.01684299,2.72416051 2.84336676,1.55537877 C2.28135708,0.822642529 1.57547291,0.305681377 0.725714268,0 C-1.15364612,0 1.18881025,2.66122611 1.3776455,2.89947777 C2.44321587,4.16715642 3.56273916,5.38538661 4.73621539,6.55416835 C5.29822507,7.28690459 6.00410924,7.80386574 6.85386788,8.10954712 Z"></path>
                    </g>
                    <g transform="translate(4.213956, 10.991916)" id="Path">
                        <path d="M2.1160533,2.79608554 C2.70953553,2.79608554 3.22658444,1.96894769 3.0557335,1.43400528 C2.86240217,0.827137844 1.59450831,0 0.974049621,0 C0.353590928,0 -0.136481518,0.827137844 0.0343694262,1.36208025 C0.223204681,1.96894769 1.49559461,2.79608554 2.1160533,2.79608554 Z"></path>
                    </g>
                </g>
                <g id="Group" transform="translate(82.512498, 91.358385)" fill="#E8E8E8">
                    <path d="M16.2854331,14.3355575 L0.526681521,13.8770355 C1.49783426,12.5104599 21.1906537,0.269718862 22.8542023,0 L16.2899292,14.3310622 L16.2854331,14.3355575 Z" id="Path"></path>
                    <path d="M26.1003703,1.6273038 C38.5859774,20.8942212 35.3038409,13.6972229 12.1850104,29.6645795 C10.5574304,30.6760252 8.42179359,30.1770453 7.41017615,28.5497415 C6.79870962,27.0842691 -0.61532216,16.9383445 0.0411051527,15.3425079 L17.2206172,15.8414878 L24.3783726,0.21577509 C25.0707685,0.476503323 25.6822351,0.953006646 26.1003703,1.6273038 L26.1003703,1.6273038 Z" id="Path"></path>
                </g>
                <path d="M334.046193,15.5044503 C330.948396,12.3127771 328.866712,17.2261557 325.948758,15.3246377 C323.350025,13.4725682 318.049149,10.1775028 319.388981,6.28905585 C322.217013,2.4230855 317.631014,-2.19360236 313.777876,1.15540685 C313.777876,1.15540685 311.664719,3.331139 311.664719,3.331139 L311.664719,3.331139 C305.118431,8.46928332 320.980592,20.8358931 326.749059,24.2163696 C329.7974,26.0189906 331.726217,23.3352879 333.51116,21.4967044 C333.51116,21.4967044 333.51116,21.4967044 333.51116,21.4967044 C335.381528,20.0132506 335.862608,17.2351463 334.050689,15.5044503 L334.046193,15.5044503 Z" id="Path" fill="#E8E8E8"></path>
                <path d="M181.035684,16.7766243 L175.878683,20.1256335 C172.286317,15.814627 176.13496,13.1444103 175.501013,8.73900218 C173.284447,6.06429014 170.069751,10.1415403 172.160427,12.739832 L166.472889,15.5089456 C160.151404,6.12722454 179.655388,-4.51767988 181.777537,7.65113611 C182.110247,9.98420426 178.985473,14.4255749 181.031188,16.7766243 L181.035684,16.7766243 Z M176.59356,21.6090872 L182.114743,18.0218264 L185.279981,22.8902518 L179.758798,26.4775127 L176.59356,21.6090872 L176.59356,21.6090872 Z" id="Shape" fill="#E8E8E8"></path>
                <path d="M155.632846,159.471388 C156.603999,157.839589 152.786829,158.702689 152.413655,157.830598 C150.875996,154.405169 150.772587,154.387188 149.176479,157.803627 C149.055085,158.284625 146.600227,158.320588 146.249533,158.446457 C144.505055,159.192679 148.101917,160.739067 147.886105,161.665102 C147.117276,165.337773 147.189213,165.414194 150.489334,163.589096 C151.312116,163.112593 153.843407,166.097482 154.050227,164.20945 C153.483721,161.035758 153.29039,161.660606 155.632846,159.471388 Z" id="Path" fill="#E8E8E8"></path>
                <path d="M68.0447608,261.393651 C69.0159135,259.761852 65.1987437,260.624952 64.8255693,259.752861 C63.2879108,256.327432 63.184501,256.30945 61.5883935,259.725889 C61.4669994,260.206888 59.0121411,260.24285 58.6614471,260.368719 C56.916969,261.119437 60.513831,262.66133 60.2980193,263.587364 C59.52919,267.260036 59.6011273,267.336456 62.9012481,265.511359 C63.7240303,265.034856 66.2553219,268.019744 66.4576454,266.131712 C65.8911397,262.953525 65.6978083,263.582869 68.0402647,261.393651 L68.0447608,261.393651 Z" id="Path" fill="#E8E8E8"></path>
                <path d="M258.781856,25.9021124 C259.753009,24.2703133 255.935839,25.1334137 255.562665,24.2613227 C254.025006,20.8358931 253.921596,20.8179119 252.325489,24.2343508 C252.204095,24.7153494 249.749236,24.751312 249.398542,24.8771808 C247.654064,25.6278983 251.250926,27.1697911 251.035115,28.0958259 C250.266285,31.7684977 250.338222,31.844918 253.638343,30.0198204 C254.461126,29.5433171 256.992417,32.5282058 257.199237,30.6401738 C256.632731,27.4664818 256.4394,28.0913305 258.781856,25.9021124 L258.781856,25.9021124 Z" id="Path" fill="#E8E8E8"></path>
                <path d="M353.590642,112.302055 C354.561795,110.670255 350.744625,111.533356 350.37145,110.661265 C348.833792,107.235835 348.730382,107.217854 347.134275,110.634293 C347.012881,111.115292 344.558022,111.151254 344.207328,111.277123 C342.46285,112.023345 346.059712,113.569733 345.8439,114.495768 C345.075071,118.16844 345.147008,118.24486 348.447129,116.419763 C349.269912,115.943259 351.801203,118.928148 352.008023,117.040116 C351.441517,113.866424 351.248186,114.491273 353.590642,112.302055 L353.590642,112.302055 Z" id="Path" fill="#E8E8E8"></path>
                <path d="M320.346645,167.778729 C321.317798,166.14693 317.500628,167.01003 317.127454,166.137939 C315.589795,162.71251 315.486385,162.694529 313.890278,166.110968 C313.768884,166.591966 311.314025,166.627929 310.963331,166.753798 C309.218853,167.50002 312.815715,169.046408 312.599904,169.972443 C311.831074,173.645114 311.903012,173.721535 315.203132,171.896437 C316.025915,171.419934 318.557206,174.404823 318.75953,172.516791 C318.193024,169.343099 317.999693,169.967947 320.342149,167.778729 L320.346645,167.778729 Z" id="Path" fill="#E8E8E8"></path>
                <path d="M430.338685,279.581693 C431.309837,277.949894 427.492668,278.812994 427.119493,277.940903 C425.581835,274.515474 425.478425,274.497492 423.882317,277.913931 C423.760923,278.39493 421.306065,278.430892 420.955371,278.556761 C419.210893,279.307479 422.807755,280.849371 422.591943,281.775406 C421.823114,285.448078 421.895051,285.524498 425.195172,283.699401 C426.017954,283.222897 428.553742,286.207786 428.756065,284.319754 C428.18956,281.146062 427.996228,281.770911 430.338685,279.581693 L430.338685,279.581693 Z" id="Path" fill="#E8E8E8"></path>
                <path d="M167.376601,66.5981934 C168.347753,64.9663943 164.530584,65.8294947 164.157409,64.9574037 C162.619751,61.5319741 162.516341,61.5139929 160.920233,64.9304318 C160.794343,65.4114304 158.343981,65.4473929 157.993287,65.5732617 C156.248809,66.3194839 159.845671,67.8658721 159.629859,68.7919068 C158.86103,72.4645787 158.932967,72.540999 162.233088,70.7159014 C163.05587,70.239398 165.587162,73.2242868 165.793981,71.3362548 C165.227476,68.1625628 165.034144,68.7874115 167.376601,66.5981934 Z" id="Path" fill="#E8E8E8"></path>
                <path d="M403.411677,321.909573 L53.1177835,321.909573 C50.303239,321.909573 48.0192317,319.625953 48.0192317,316.811886 L48.0192317,316.811886 C48.0192317,313.99782 50.303239,311.7142 53.1177835,311.7142 L403.411677,311.7142 C406.230717,311.7142 408.510228,313.99782 408.510228,316.811886 L408.510228,316.811886 C408.510228,319.630449 406.226221,321.909573 403.411677,321.909573 Z" id="Path" fill="#E8E8E8"></path>
            </g>
        </g>
    </g>
</svg>