<?xml version="1.0" encoding="UTF-8"?>
<svg width="61px" height="61px" viewBox="0 0 61 61" version="1.1" xmlns="http://www.w3.org/2000/svg" xmlns:xlink="http://www.w3.org/1999/xlink">
    <title>ic_email</title>
    <g id="Page-1" stroke="none" stroke-width="1" fill="none" fill-rule="evenodd">
        <g id="contact" transform="translate(-1389.000000, -324.000000)" fill="#186E4B" fill-rule="nonzero">
            <g transform="translate(1211.000000, 321.000000)" id="ic_email">
                <path d="M208.380859,3 C225.133223,3 239,16.6284961 239,33.3808594 C239,50.1332227 225.133223,64 208.380859,64 C191.628496,64 178,50.1332227 178,33.3808594 C178,16.6284961 191.628496,3 208.380859,3 Z M208.619141,13.7226562 C197.779607,13.7226562 188.960938,22.5413262 188.960938,33.3808594 C188.960938,44.2203926 197.779607,53.0390625 208.619141,53.0390625 C212.987432,53.0390625 217.120182,51.6376113 220.573949,48.9866133 C222.439572,47.5540664 220.280982,44.7133965 218.395939,46.152377 C215.573855,48.3200215 212.193359,49.4648438 208.619141,49.4648438 C199.749955,49.4648438 192.535156,42.2500449 192.535156,33.3808594 C192.535156,24.5116738 199.749955,17.296875 208.619141,17.296875 C216.788375,17.296875 224.703125,23.2073223 224.703125,35.1679688 C224.703125,37.1383164 223.099254,38.7421875 221.128906,38.7421875 C219.158559,38.7421875 217.554688,37.1383164 217.554688,35.1679688 L217.554688,26.2324219 C217.554688,25.244627 216.755373,24.4453125 215.767578,24.4453125 C214.779783,24.4453125 213.980469,25.244627 213.980469,26.2324219 L213.980469,26.2780527 C212.482395,25.1440723 210.638336,24.4453125 208.619141,24.4453125 C203.692318,24.4453125 199.683594,28.4540371 199.683594,33.3808594 C199.683594,38.3076816 203.692318,42.3164062 208.619141,42.3164062 C211.28241,42.3164062 213.650449,41.1215449 215.28899,39.2668828 C216.583453,41.1058184 218.713568,42.3164062 221.128906,42.3164062 C225.071389,42.3164062 228.277344,39.1104512 228.277344,35.1679688 C228.277344,21.0063184 218.495541,13.7226562 208.619141,13.7226562 Z M208.619141,28.0195312 C211.575496,28.0195312 213.980469,30.4245039 213.980469,33.3808594 C213.980469,36.3372148 211.575496,38.7421875 208.619141,38.7421875 C205.662785,38.7421875 203.257812,36.3372148 203.257812,33.3808594 C203.257812,30.4245039 205.662785,28.0195312 208.619141,28.0195312 Z"></path>
            </g>
        </g>
    </g>
</svg>