<?xml version="1.0" encoding="UTF-8"?>
<svg width="60px" height="60px" viewBox="0 0 60 60" version="1.1" xmlns="http://www.w3.org/2000/svg" xmlns:xlink="http://www.w3.org/1999/xlink">
    <title>ic_location</title>
    <g id="Page-1" stroke="none" stroke-width="1" fill="none" fill-rule="evenodd">
        <g id="contact" transform="translate(-1390.000000, -532.000000)" fill="#186E4B">
            <g transform="translate(1148.000000, 529.000000)" id="ic_location">
                <path d="M272,63 C255.434094,63 242,49.5659055 242,33 C242,16.4340945 255.434094,3 272,3 C288.565906,3 302,16.4340945 302,33 C302,49.5659055 288.565906,63 272,63 Z M272,13.4867717 C280.206772,13.4867717 286.859449,20.1394488 286.859449,28.3462205 C286.859449,36.5527559 272,52.5129921 272,52.5129921 C272,52.5129921 257.140551,36.5527559 257.140551,28.3462205 C257.140551,20.1394488 263.793228,13.4867717 272,13.4867717 Z M272,22.4423622 C275.111496,22.4423622 277.634803,24.9656693 277.634803,28.0774016 C277.634803,31.1888976 275.111496,33.7122047 272,33.7122047 C268.888504,33.7122047 266.365197,31.1888976 266.365197,28.0774016 C266.365197,24.9656693 268.888504,22.4423622 272,22.4423622 Z"></path>
            </g>
        </g>
    </g>
</svg>