<?xml version="1.0" encoding="UTF-8"?>
<svg width="60px" height="60px" viewBox="0 0 60 60" version="1.1" xmlns="http://www.w3.org/2000/svg" xmlns:xlink="http://www.w3.org/1999/xlink">
    <title>ic_phone</title>
    <g id="Page-1" stroke="none" stroke-width="1" fill="none" fill-rule="evenodd">
        <g id="contact" transform="translate(-1390.000000, -428.000000)" fill="#186E4B" fill-rule="nonzero">
            <g transform="translate(1211.000000, 425.000000)" id="ic_phone">
                <path d="M230.210004,11.783586 C218.492552,0.0696579892 199.497528,0.0724704851 187.783592,11.7900313 C176.069656,23.5075921 176.072468,42.502486 187.790037,54.216414 C199.507606,65.930342 218.502513,65.9275295 230.216449,54.2099687 C235.842148,48.5825161 239.001755,40.9506914 239,32.9935547 C238.998356,25.0377071 235.836523,17.4083433 230.210004,11.783586 Z M224.433954,44.789631 C224.432665,44.7909201 224.431376,44.7923263 224.429969,44.7936154 L224.429969,44.7836545 L222.909932,46.2936132 C220.944113,48.2842743 218.081107,49.1032965 215.359898,48.45361 C212.618299,47.719783 210.012051,46.5516597 207.639944,44.9936542 C205.436117,43.5851797 203.393775,41.9386977 201.549948,40.0836224 C199.853426,38.3995233 198.329287,36.5503073 196.999913,34.5636305 C195.545852,32.4258993 194.394954,30.0971527 193.579916,27.6436017 C192.64558,24.7612622 193.419838,21.5984934 195.579953,19.4736528 L197.359913,17.6936945 C197.854795,17.1965858 198.658935,17.194828 199.155927,17.6897101 C199.157216,17.6909992 199.158622,17.6922882 199.159911,17.6936945 L204.779868,23.3136471 C205.276977,23.8085292 205.278735,24.6126686 204.783852,25.1096601 C204.782563,25.1109491 204.781274,25.1122382 204.779868,25.1136445 L201.47987,28.4136396 C200.532996,29.3502007 200.413934,30.8384798 201.19991,31.9136735 C202.393463,33.5517179 203.714283,35.0930828 205.149946,36.5237057 C206.750608,38.1312815 208.490724,39.5936621 210.349902,40.8937383 C211.424159,41.6430341 212.880565,41.5167062 213.809861,40.5937388 L216.999819,37.3537436 C217.494701,36.8566349 218.298841,36.8548771 218.795833,37.3497592 C218.797122,37.3510483 218.798411,37.3523373 218.799818,37.3537436 L224.429852,42.9937352 C224.927078,43.4885001 224.928836,44.2925224 224.433954,44.789631 Z"></path>
            </g>
        </g>
    </g>
</svg>