<?xml version="1.0" encoding="UTF-8"?>
<svg width="102px" height="87px" viewBox="0 0 102 87" version="1.1" xmlns="http://www.w3.org/2000/svg" xmlns:xlink="http://www.w3.org/1999/xlink">
    <title>beneficiary</title>
    <g id="Page-1" stroke="none" stroke-width="1" fill="none" fill-rule="evenodd" opacity="0.699999988">
        <g id="website" transform="translate(-596.000000, -3962.000000)" fill="#3F3E3F" fill-rule="nonzero">
            <g id="Group-5" transform="translate(521.000000, 3928.000000)">
                <path d="M97.6125676,80.9698401 C96.8085192,83.1833104 96.369241,85.5718552 96.369241,88.0617589 L96.369241,118.038757 C96.369241,119.076785 96.5489366,120.072947 96.8758552,121 L83.8345719,121 C78.9630663,121 75,117.014952 75,112.116873 L75,95.7750519 C75,87.6114529 81.6053098,80.9698401 89.7242866,80.9698401 Z M162.275913,80.9696398 C170.394889,80.9696398 177,87.6112526 177,95.7746513 L177,112.116472 C177,117.014552 173.036934,120.999599 168.165428,120.999599 L155.124344,120.999599 C155.451263,120.072947 155.630958,119.076584 155.630958,118.038557 L155.630958,88.0615586 C155.630958,85.5718552 155.19168,83.1831101 154.387632,80.9696398 L162.275913,80.9696398 Z M135.016957,73.256547 C143.135934,73.256547 149.741244,79.8981599 149.741244,88.0617589 L149.741244,118.038757 C149.741244,119.674121 148.422811,120.9998 146.796386,120.9998 L105.203813,120.9998 C103.577388,120.9998 102.258956,119.673921 102.258956,118.038757 L102.258956,88.0617589 C102.258956,79.8981599 108.864265,73.256547 116.983242,73.256547 L135.016957,73.256547 Z M94.9055779,50.5958192 C102.207955,50.5958192 108.14867,56.5693846 108.14867,63.911696 C108.14867,66.1714389 107.584282,68.300577 106.592171,70.1669031 C105.178711,72.8260721 102.894465,74.9490005 100.124123,76.1482808 C98.5218038,76.841768 96.7579175,77.2275729 94.9055779,77.2275729 C87.6032004,77.2275729 81.6624857,71.2542077 81.6624857,63.911696 C81.6624857,56.5691843 87.6032004,50.5958192 94.9055779,50.5958192 Z M157.094621,50.5958192 C164.396999,50.5958192 170.337714,56.5691843 170.337714,63.911696 C170.337714,71.2542077 164.396999,77.2275729 157.094621,77.2275729 C155.242282,77.2275729 153.478395,76.841768 151.876076,76.1482808 C149.105735,74.9492008 146.821488,72.8262725 145.408028,70.1669031 C144.415917,68.3007773 143.851529,66.1716392 143.851529,63.911696 C143.851529,56.5691843 149.792244,50.5958192 157.094621,50.5958192 Z M126.0001,34 C135.764228,34 143.707892,41.987523 143.707892,51.8053155 C143.707892,58.4645559 140.052619,64.2808748 134.65398,67.3344623 C132.093416,68.7827329 129.141387,69.6104306 126.0001,69.6104306 C122.858812,69.6104306 119.906783,68.7827329 117.346219,67.3344623 C111.947779,64.2808748 108.292307,58.4647562 108.292307,51.8053155 C108.292307,41.9873227 116.235971,34 126.0001,34 Z" id="beneficiary"></path>
            </g>
        </g>
    </g>
</svg>