<?xml version="1.0" encoding="UTF-8"?>
<svg width="103px" height="101px" viewBox="0 0 103 101" version="1.1" xmlns="http://www.w3.org/2000/svg" xmlns:xlink="http://www.w3.org/1999/xlink">
    <title>company</title>
    <g id="Page-1" stroke="none" stroke-width="1" fill="none" fill-rule="evenodd" opacity="0.699999988">
        <g id="website" transform="translate(-1068.000000, -3610.000000)" fill="#3F3E3F" fill-rule="nonzero">
            <g id="Group-4" transform="translate(367.240343, 3579.000000)">
                <g id="Group-5" transform="translate(626.000000, 0.000000)">
                    <path d="M130.3775,38.1737126 L83.67,31.0932833 C81.5025,30.7541011 79.2925,31.34767 77.635,32.7467967 C75.9775,34.1883213 75,36.2658125 75,38.4280993 L75,127.760222 C75,130.0921 76.9125,132 79.25,132 L93.0625,132 L93.0625,109.741165 C93.0625,105.628581 96.3775,102.321554 100.5,102.321554 L111.125,102.321554 C115.2475,102.321554 118.5625,105.628581 118.5625,109.741165 L118.5625,132 L136.625,132 L136.625,45.5085286 C136.625,41.8623195 133.99,38.7672815 130.3775,38.1737126 Z M98.375,92.7820534 L92,92.7820534 C90.2405,92.7820534 88.8125,91.357488 88.8125,89.6022199 C88.8125,87.8469518 90.2405,86.4223864 92,86.4223864 L98.375,86.4223864 C100.1345,86.4223864 101.5625,87.8469518 101.5625,89.6022199 C101.5625,91.357488 100.1345,92.7820534 98.375,92.7820534 Z M98.375,80.0627194 L92,80.0627194 C90.2405,80.0627194 88.8125,78.6381539 88.8125,76.8828858 C88.8125,75.1276178 90.2405,73.7030523 92,73.7030523 L98.375,73.7030523 C100.1345,73.7030523 101.5625,75.1276178 101.5625,76.8828858 C101.5625,78.6381539 100.1345,80.0627194 98.375,80.0627194 Z M98.375,67.3433853 L92,67.3433853 C90.2405,67.3433853 88.8125,65.9188199 88.8125,64.1635518 C88.8125,62.4082837 90.2405,60.9837183 92,60.9837183 L98.375,60.9837183 C100.1345,60.9837183 101.5625,62.4082837 101.5625,64.1635518 C101.5625,65.9188199 100.1345,67.3433853 98.375,67.3433853 Z M98.375,54.6240513 L92,54.6240513 C90.2405,54.6240513 88.8125,53.1994859 88.8125,51.4442178 C88.8125,49.6889497 90.2405,48.2643843 92,48.2643843 L98.375,48.2643843 C100.1345,48.2643843 101.5625,49.6889497 101.5625,51.4442178 C101.5625,53.1994859 100.1345,54.6240513 98.375,54.6240513 Z M119.625,92.7820534 L113.25,92.7820534 C111.4905,92.7820534 110.0625,91.357488 110.0625,89.6022199 C110.0625,87.8469518 111.4905,86.4223864 113.25,86.4223864 L119.625,86.4223864 C121.3845,86.4223864 122.8125,87.8469518 122.8125,89.6022199 C122.8125,91.357488 121.3845,92.7820534 119.625,92.7820534 Z M119.625,80.0627194 L113.25,80.0627194 C111.4905,80.0627194 110.0625,78.6381539 110.0625,76.8828858 C110.0625,75.1276178 111.4905,73.7030523 113.25,73.7030523 L119.625,73.7030523 C121.3845,73.7030523 122.8125,75.1276178 122.8125,76.8828858 C122.8125,78.6381539 121.3845,80.0627194 119.625,80.0627194 Z M119.625,67.3433853 L113.25,67.3433853 C111.4905,67.3433853 110.0625,65.9188199 110.0625,64.1635518 C110.0625,62.4082837 111.4905,60.9837183 113.25,60.9837183 L119.625,60.9837183 C121.3845,60.9837183 122.8125,62.4082837 122.8125,64.1635518 C122.8125,65.9188199 121.3845,67.3433853 119.625,67.3433853 Z M119.625,54.6240513 L113.25,54.6240513 C111.4905,54.6240513 110.0625,53.1994859 110.0625,51.4442178 C110.0625,49.6889497 111.4905,48.2643843 113.25,48.2643843 L119.625,48.2643843 C121.3845,48.2643843 122.8125,49.6889497 122.8125,51.4442178 C122.8125,53.1994859 121.3845,54.6240513 119.625,54.6240513 Z M171.135,76.2130009 L140.875,69.8914919 L140.875,132 L169.5625,132 C173.66375,132 177,128.671774 177,124.580388 L177,83.4630213 C177,79.9609647 174.60725,76.9804007 171.135,76.2130009 Z M161.0625,119.280666 L154.6875,119.280666 C152.928,119.280666 151.5,117.856101 151.5,116.100832 C151.5,114.345564 152.928,112.920999 154.6875,112.920999 L161.0625,112.920999 C162.822,112.920999 164.25,114.345564 164.25,116.100832 C164.25,117.856101 162.822,119.280666 161.0625,119.280666 Z M161.0625,106.561332 L154.6875,106.561332 C152.928,106.561332 151.5,105.136767 151.5,103.381498 C151.5,101.62623 152.928,100.201665 154.6875,100.201665 L161.0625,100.201665 C162.822,100.201665 164.25,101.62623 164.25,103.381498 C164.25,105.136767 162.822,106.561332 161.0625,106.561332 Z M161.0625,93.8419979 L154.6875,93.8419979 C152.928,93.8419979 151.5,92.4174325 151.5,90.6621644 C151.5,88.9068963 152.928,87.4823309 154.6875,87.4823309 L161.0625,87.4823309 C162.822,87.4823309 164.25,88.9068963 164.25,90.6621644 C164.25,92.4174325 162.822,93.8419979 161.0625,93.8419979 Z" id="company"></path>
                </g>
            </g>
        </g>
    </g>
</svg>