<?xml version="1.0" encoding="UTF-8"?>
<svg width="102px" height="102px" viewBox="0 0 102 102" version="1.1" xmlns="http://www.w3.org/2000/svg" xmlns:xlink="http://www.w3.org/1999/xlink">
    <title>effective</title>
    <g id="Page-1" stroke="none" stroke-width="1" fill="none" fill-rule="evenodd" opacity="0.699999988">
        <g id="website" transform="translate(-909.000000, -3955.000000)" fill="#3F3E3F" fill-rule="nonzero">
            <g id="Group-6" transform="translate(521.000000, 3928.000000)">
                <g id="Group-5" transform="translate(313.000000, 0.000000)">
                    <path d="M126.249687,27.0641442 C131.347663,26.7665977 136.453024,27.5063736 141.256441,29.2386496 L139.761963,30.7320284 C139.525638,30.6834108 139.285154,30.6577944 139.043884,30.6555383 L134.742701,30.6555383 C133.008944,30.6534525 131.513637,31.8719694 131.166887,33.5694483 L130.073366,39.0184599 C129.019204,39.3643702 127.993145,39.7905654 127.004217,40.2932955 L122.3768,37.1972662 C120.930946,36.2510928 119.018902,36.4496104 117.798592,37.6725978 L114.775006,40.6939582 C113.527048,41.9182599 113.325131,43.8557026 114.293857,45.3106843 L117.383054,49.9128409 C116.879954,50.901041 116.453444,51.9263446 116.107279,52.9797311 L110.661545,54.0724473 C108.957743,54.4136498 107.731868,55.9092292 107.732731,57.6456295 L107.732731,61.9436467 C107.730643,63.6761271 108.950058,65.1703337 110.648787,65.5168288 L116.101812,66.609545 C116.447977,67.6629315 116.874486,68.6882351 117.377586,69.6764353 L114.279277,74.3004462 C113.332406,75.7452365 113.53107,77.6558731 114.754958,78.8752848 L117.780367,81.8984664 C119.007751,83.1398179 120.94233,83.3404572 122.398671,82.3774404 L127.004217,79.290517 C127.993145,79.7932471 129.019204,80.2194424 130.073366,80.5653526 L131.166887,86.0070795 C131.508341,87.7096268 133.005022,88.9345994 134.742701,88.9337378 L139.043884,88.9337378 C140.77764,88.9358236 142.272947,87.7173066 142.619698,86.0198278 L143.713219,80.5708162 C144.767381,80.2249059 145.79344,79.7987107 146.782368,79.2959806 L151.409785,82.3920099 C152.855639,83.3381833 154.767683,83.1396657 155.987993,81.9166784 L159.011578,78.895318 C160.259536,77.6710161 160.461454,75.7335736 159.492728,74.2785918 L156.405353,69.6818988 C156.908454,68.6936987 157.334963,67.6683951 157.681128,66.6150086 L163.126863,65.5222924 C164.210991,65.3035714 165.136218,64.6029541 165.640139,63.6191449 L166.356395,64.0981189 C166.365508,64.5078874 166.376443,64.917656 166.365508,65.3292458 C166.337131,69.9702024 164.980648,74.5061786 162.45617,78.4017745 C161.508452,79.8969745 160.41493,81.368499 159.35786,82.7926725 C157.248964,85.4222018 155.449266,88.2850568 153.994139,91.3249652 C151.525969,96.9423111 150.603589,103.116331 151.322303,109.209088 C151.741909,113.074657 152.509262,116.894578 153.615052,120.622509 C154.21405,122.584532 154.970424,124.495087 155.876818,126.335594 C156.293027,127.156058 156.764952,127.947091 157.289283,128.703145 L157.411393,128.885265 L116.072651,129 C114.863418,124.68418 112.670777,120.70667 109.66644,117.378963 L111.306722,116.807108 C112.52782,116.370021 113.450023,116.049491 113.927527,115.896511 C121.731623,113.405118 125.635493,109.85379 125.527963,105.333587 C125.523384,104.848599 125.322669,104.386085 124.97149,104.051287 C124.62031,103.716489 124.148535,103.537881 123.66351,103.556102 C122.657554,103.579962 121.861289,104.413957 121.884716,105.419184 C121.928457,107.282265 120.392059,110.008592 112.815781,112.421673 C112.320051,112.580117 111.366866,112.911575 110.103849,113.354125 C108.749705,113.825814 107.029232,114.426808 105.131973,115.07151 L105.121038,115.07151 C99.9917254,116.949206 94.7584624,118.530191 89.4472358,119.806614 C87.7490957,120.128454 86.0970738,119.06184 85.6928135,117.382605 C85.2989812,116.355127 85.1450164,115.251383 85.2426473,114.15545 C85.2955008,113.782105 85.38116,113.40876 85.4668191,113.035416 C85.8507413,111.763889 85.9102615,110.416593 85.63996,109.116207 C85.1122581,107.450194 83.8866375,106.095229 82.2810278,105.402793 C82.1498052,105.328124 82.0185827,105.253455 81.8891827,105.176965 C82.0860831,104.779028 82.3217195,104.401433 82.5926813,104.049646 C82.8988269,103.66219 83.034448,103.167141 82.9684796,102.677892 C82.9025113,102.188644 82.640606,101.747116 82.2427545,101.454445 C81.9735801,101.257195 81.4794035,100.888905 80.9628222,100.493027 L80.574351,100.193187 C80.3811805,100.042923 80.1919819,99.8938218 80.0174392,99.7534498 C80.1103885,99.5950059 80.2051603,99.4201714 80.292642,99.2635487 C80.57878,98.7608992 80.9068363,98.1781172 81.2239574,97.5024543 C81.8016128,96.2261365 81.9715323,94.802916 81.7105743,93.4266228 C81.2713433,91.2065876 79.1426223,90.1175138 77.5879999,89.3234733 C77.0642382,89.0744835 76.5619425,88.7827086 76.0862309,88.4511215 C75.6979622,88.1876827 75.3343969,87.8896079 75,87.5605577 C75.0072901,87.2837363 75.2970732,86.6153582 76.6840224,84.9271116 C79.944339,80.7298594 82.7394437,76.1916153 85.020298,71.3919998 C85.449035,70.6395109 85.6903229,69.7950004 85.7237966,68.9297458 C85.5352275,67.0969959 84.5605236,65.4360364 83.0519601,64.3767615 C82.3120109,63.7010986 81.6139799,63.0673232 81.5356109,62.5209651 C81.5529372,62.0759704 81.6530617,61.6380937 81.8308616,61.2297387 C82.1279348,60.4502678 82.472394,59.6853664 82.8150306,58.9186439 C83.5835712,57.3367972 84.1940403,55.6830337 84.6375657,53.9813877 C85.0552041,51.9403207 85.6030834,49.9280418 86.2778473,47.9568788 C87.7153356,43.9937232 89.9396214,40.3617864 92.8171032,37.2792199 C96.3036129,33.5967662 101.798556,30.9833532 109.154308,29.5263982 C114.785239,28.2911801 120.498874,27.4682432 126.249687,27.0641442 Z M139.043884,34.2979258 L140.356109,40.8123358 C140.492056,41.4885603 140.998635,42.0300176 141.664689,42.2110125 C143.170512,42.6166551 144.617023,43.2166287 145.967695,43.9957824 C146.569574,44.3446434 147.317715,44.3206187 147.895937,43.9338618 L153.410928,40.2477657 L156.465497,43.2818745 L152.765751,48.7982703 C152.378709,49.3760668 152.354667,50.123657 152.703784,50.7250933 C153.483512,52.074771 154.083928,53.5202175 154.489869,55.0249317 C154.670405,55.6912019 155.212376,56.1982208 155.889576,56.33437 L162.408784,57.6438083 L162.408784,61.9436467 L155.889576,63.253085 C155.212376,63.3892341 154.670405,63.896253 154.489869,64.5625233 C154.083928,66.0672374 153.483512,67.5126839 152.703784,68.8623617 C152.354667,69.463798 152.378709,70.2113882 152.765751,70.7891846 L156.454562,76.3001169 L153.416396,79.3524376 L147.895937,75.6554143 C147.317715,75.2686574 146.569574,75.2446328 145.967695,75.5934937 C144.617023,76.3726474 143.170512,76.9726211 141.664689,77.3782636 C140.997928,77.5586667 140.490536,78.100239 140.354287,78.7769404 L139.043884,85.2913504 L134.742701,85.2913504 L133.432298,78.7769404 C133.296049,78.100239 132.788656,77.5586667 132.121895,77.3782636 C130.616073,76.9726211 129.169562,76.3726474 127.81889,75.5934937 C127.217011,75.2446328 126.46887,75.2686574 125.890648,75.6554143 L120.375657,79.3415104 L117.321088,76.3055805 L121.020834,70.7891846 C121.407876,70.2113882 121.431918,69.463798 121.0828,68.8623617 C120.303073,67.5126839 119.702657,66.0672374 119.296716,64.5625233 C119.11618,63.896253 118.574209,63.3892341 117.897009,63.253085 L111.377801,61.9436467 L111.377801,57.6456295 L117.895186,56.3361912 C118.572386,56.200042 119.114357,55.6930231 119.294893,55.0267529 C119.700835,53.5220387 120.30125,52.0765922 121.080978,50.7269145 C121.430096,50.1254782 121.406053,49.377888 121.019012,48.8000915 L117.3302,43.2891592 L120.368367,40.2368385 L125.888825,43.9338618 C126.467047,44.3206187 127.215188,44.3446434 127.817068,43.9957824 C129.167739,43.2166287 130.61425,42.6166551 132.120073,42.2110125 C132.786834,42.0306094 133.294226,41.4890371 133.430476,40.8123358 L134.742701,34.2979258 L139.043884,34.2979258 Z M136.893292,47.0462819 C129.847384,47.0462819 124.135547,52.7539155 124.135547,59.7946381 C124.135547,66.8353607 129.847384,72.5429942 136.893292,72.5429942 C143.939201,72.5429942 149.651038,66.8353607 149.651038,59.7946381 C149.643003,52.7572437 143.93587,47.0543108 136.893292,47.0462819 Z M136.893292,50.6886694 C141.926084,50.6886694 146.005968,54.7655505 146.005968,59.7946381 C146.005968,64.8237256 141.926084,68.9006067 136.893292,68.9006067 C131.860501,68.9006067 127.780617,64.8237256 127.780617,59.7946381 C127.786642,54.7680465 131.862998,50.6946904 136.893292,50.6886694 Z M87.6848444,59.7946381 C86.678286,59.7946381 85.8623093,60.6100144 85.8623093,61.6158318 C85.8623093,62.6216492 86.678286,63.4370255 87.6848444,63.4370255 C88.6914027,63.4370255 89.5073795,62.6216492 89.5073795,61.6158318 C89.5073795,60.6100144 88.6914027,59.7946381 87.6848444,59.7946381 Z M158.366401,27.0131508 L159.345102,31.9194467 C159.480412,32.5980237 159.98885,33.1413689 160.657328,33.3217659 C161.827218,33.6327038 162.949277,34.1014159 163.992567,34.7149791 C164.597219,35.0742167 165.354783,35.0536613 165.939034,34.6621645 L170.107172,31.8702745 L172.130186,33.8917996 L169.334417,38.0550484 C168.945466,38.6406434 168.928443,39.3976202 169.290676,40.0000833 C169.904692,41.0426055 170.373749,42.1638384 170.684916,43.3328679 C170.865446,44.0008539 171.409191,44.508917 172.088268,44.6441274 L177,45.6221084 L177,48.4704554 L172.079155,49.4484364 C171.400078,49.5836468 170.856333,50.0917099 170.675803,50.7596959 C170.364636,51.9287255 169.895579,53.0499583 169.281564,54.0924805 C168.922062,54.6966872 168.942632,55.4536939 169.334417,56.0375154 L172.128364,60.2007643 L170.10535,62.2222893 L166.053854,59.5068894 L166.053854,57.6456295 C166.052457,56.5812384 165.586589,55.5703832 164.77808,54.877415 C167.990753,51.7892796 169.000062,47.0586562 167.327203,42.9296947 C165.654343,38.8007331 161.635874,36.1041295 157.178108,36.1191195 C156.077404,36.1264216 154.984627,36.3058566 153.939463,36.6509081 C153.048971,36.521264 152.141736,36.7207089 151.387914,37.2118357 L146.782368,40.3078651 C145.79344,39.8051349 144.767381,39.3789398 143.713219,39.0330295 L142.626988,33.5749119 C142.594738,33.4289949 142.552726,33.285405 142.501233,33.1451101 L143.777007,31.8702745 L147.943323,34.6621645 C148.52544,35.0570724 149.283047,35.0818821 149.88979,34.7259063 C150.93308,34.1123431 152.055139,33.643631 153.225029,33.3326931 C153.893507,33.1522961 154.401945,32.6089508 154.537255,31.9303739 L155.515956,27.0131508 L158.366401,27.0131508 Z M136.893292,57.9734443 C135.886734,57.9734443 135.070757,58.7888206 135.070757,59.7946381 C135.070757,60.8004555 135.886734,61.6158318 136.893292,61.6158318 C137.899851,61.6158318 138.715827,60.8004555 138.715827,59.7946381 C138.715827,58.7888206 137.899851,57.9734443 136.893292,57.9734443 Z M111.961923,34.5246644 C111.766148,33.5379574 110.806967,32.896664 109.819533,33.0922955 C103.205553,34.4071974 98.3521424,36.6654776 95.3923454,39.7833613 C92.8495334,42.509912 90.8854817,45.7226884 89.6185541,49.228072 C89.1887123,50.452136 88.8296875,51.6998932 88.5432584,52.9651616 C88.3857482,53.5929598 88.5793246,54.2620347 89.0507007,54.7136152 C89.5220768,55.1651956 90.1992074,55.3302617 90.8257349,55.1463208 C91.4522623,54.9623797 91.932428,54.4575449 92.0844441,53.8229438 C92.3388811,52.6917284 92.657736,51.5759497 93.0394525,50.4810533 C94.1369954,47.4405281 95.8380452,44.6529585 98.0404889,42.2856815 C100.469928,39.7214407 104.670872,37.8292204 110.528499,36.6654776 C111.515933,36.4698461 112.157699,35.5113714 111.961923,34.5246644 Z M158.180502,39.8634938 C161.333869,40.2898059 163.840737,42.7205131 164.362106,45.8572959 C164.883475,48.9940787 163.297532,52.1040564 160.451381,53.5260892 L157.684773,52.9797311 C157.338608,51.9263446 156.912099,50.901041 156.408998,49.9128409 L159.507308,45.28883 C160.454178,43.8440396 160.255514,41.933403 159.031626,40.7139913 Z" id="effective"></path>
                </g>
            </g>
        </g>
    </g>
</svg>