<?xml version="1.0" encoding="UTF-8"?>
<svg width="113px" height="112px" viewBox="0 0 113 112" version="1.1" xmlns="http://www.w3.org/2000/svg" xmlns:xlink="http://www.w3.org/1999/xlink">
    <title>idea</title>
    <g id="Page-1" stroke="none" stroke-width="1" fill="none" fill-rule="evenodd" opacity="0.699999988">
        <g id="website" transform="translate(-750.000000, -3599.000000)" fill="#3F3E3F" fill-rule="nonzero">
            <g id="Group-4" transform="translate(367.240343, 3579.000000)">
                <g id="Group-5" transform="translate(313.000000, 0.000000)">
                    <path d="M159.142667,104.186667 L165.601333,110.645333 C166.968667,112.012667 166.968667,114.229333 165.601333,115.596667 C164.915333,116.282667 164.019333,116.623333 163.123333,116.623333 C162.227333,116.623333 161.331333,116.282667 160.65,115.596667 L154.191333,109.138 C152.824,107.770667 152.824,105.554 154.191333,104.186667 C155.558667,102.819333 157.775333,102.819333 159.142667,104.186667 Z M97.8133333,104.186667 C99.1806667,105.554 99.1806667,107.770667 97.8133333,109.138 L91.3546667,115.596667 C90.6686667,116.282667 89.7726667,116.623333 88.8766667,116.623333 C87.9806667,116.623333 87.0846667,116.282667 86.4033333,115.596667 C85.036,114.229333 85.036,112.012667 86.4033333,110.645333 L92.862,104.186667 C94.2293333,102.819333 96.446,102.819333 97.8133333,104.186667 Z M146.58,50.6133333 C154.28,56.8666667 158.666667,66.1066667 158.666667,76 C158.666667,86.08 154.093333,95.4133333 146.206667,101.666667 C142.986667,104.186667 140.886667,107.453333 140.233333,111 L140.233333,111.046667 C140.14,111 140.093333,111 140,111 L112,111 C111.93,111 111.83375,111 111.750625,111.019688 L111.673333,111.046667 L111.673333,111 C111.02,107.313333 109.106667,104.14 106.353333,102.086667 C96.18,94.3866667 91.42,81.7866667 94.0333333,69.0933333 C96.6,56.7266667 106.633333,46.6466667 119,44.08 C128.846667,41.98 138.926667,44.4066667 146.58,50.6133333 Z M178.5,72.5 C180.432,72.5 182,74.068 182,76 C182,77.932 180.432,79.5 178.5,79.5 L169.367333,79.5 C167.435333,79.5 165.867333,77.932 165.867333,76 C165.867333,74.068 167.435333,72.5 169.367333,72.5 L178.5,72.5 Z M82.6326667,72.5 C84.5646667,72.5 86.1326667,74.068 86.1326667,76 C86.1326667,77.932 84.5646667,79.5 82.6326667,79.5 L73.5,79.5 C71.568,79.5 70,77.932 70,76 C70,74.068 71.568,72.5 73.5,72.5 L82.6326667,72.5 Z M127.166667,55 C125.253333,55 123.666667,56.5866667 123.666667,58.5 C123.666667,60.4133333 125.253333,62 127.166667,62 C134.26,62 140,67.74 140,74.8333333 C140,76.7466667 141.586667,78.3333333 143.5,78.3333333 C145.413333,78.3333333 147,76.7466667 147,74.8333333 C147,63.9133333 138.086667,55 127.166667,55 Z M165.601333,36.3986667 C166.968667,37.766 166.968667,39.9826667 165.601333,41.35 L159.142667,47.8086667 C158.456667,48.49 157.560667,48.8353333 156.664667,48.8353333 C155.768667,48.8353333 154.872667,48.4946667 154.191333,47.8086667 C152.824,46.4413333 152.824,44.2246667 154.191333,42.8573333 L160.65,36.3986667 C162.017333,35.0313333 164.234,35.0313333 165.601333,36.3986667 Z M91.3546667,36.3986667 L97.8133333,42.8573333 C99.1806667,44.2246667 99.1806667,46.4413333 97.8133333,47.8086667 C97.1226667,48.49 96.2313333,48.8353333 95.3353333,48.8353333 C94.4393333,48.8353333 93.5433333,48.4946667 92.862,47.8086667 L86.4033333,41.35 C85.036,39.9826667 85.036,37.766 86.4033333,36.3986667 C87.7706667,35.0313333 89.9873333,35.0313333 91.3546667,36.3986667 Z M126,20 C127.932,20 129.5,21.568 129.5,23.5 L129.5,32.6326667 C129.5,34.5646667 127.932,36.1326667 126,36.1326667 C124.068,36.1326667 122.5,34.5646667 122.5,32.6326667 L122.5,23.5 C122.5,21.568 124.068,20 126,20 Z M140,118 L140,123.833333 C140,128.313333 136.313333,132 131.833333,132 L120.166667,132 C116.246667,132 112,129.013333 112,122.48 L112,118 L140,118 Z" id="idea"></path>
                </g>
            </g>
        </g>
    </g>
</svg>