<?xml version="1.0" encoding="UTF-8"?>
<svg width="30px" height="30px" viewBox="0 0 30 30" version="1.1" xmlns="http://www.w3.org/2000/svg" xmlns:xlink="http://www.w3.org/1999/xlink">
    <title>ic_instagram</title>
    <g id="Page-1" stroke="none" stroke-width="1" fill="none" fill-rule="evenodd">
        <g id="website" transform="translate(-544.000000, -21.000000)" fill="#FFFFFF" fill-rule="nonzero">
            <g id="ic_instagram" transform="translate(544.000000, 21.000000)">
                <circle id="Oval" cx="15" cy="15" r="3.15"></circle>
                <path d="M15,0 C6.71574,0 0,6.71574 0,15 C0,23.28426 6.71574,30 15,30 C23.28426,30 30,23.28426 30,15 C30,6.71574 23.28426,0 15,0 Z M24.26748,18.8124 C24.19548,20.23848 23.79474,21.64476 22.75548,22.67298 C21.70614,23.71098 20.2932,24.09774 18.85338,24.16902 L11.14668,24.16902 C9.70668,24.09774 8.29392,23.71122 7.24458,22.67298 C6.20526,21.64476 5.80458,20.23848 5.73258,18.8124 L5.73258,11.1876 C5.80458,9.76152 6.20532,8.35524 7.24458,7.32696 C8.29392,6.28896 9.70686,5.9022 11.14668,5.83098 L18.85332,5.83098 C20.29332,5.9022 21.70608,6.28878 22.75542,7.32696 C23.79474,8.35524 24.19542,9.76152 24.26748,11.1876 L24.26748,18.8124 Z" id="Shape"></path>
                <path d="M18.756,7.56828 C16.87884,7.5168 13.12164,7.5168 11.24448,7.56828 C10.26762,7.5951 9.1602,7.83828 8.4642,8.58168 C7.74096,9.35442 7.46766,10.28802 7.43994,11.33244 C7.39122,13.16556 7.43994,18.66756 7.43994,18.66756 C7.47168,19.71186 7.74096,20.64558 8.4642,21.41832 C9.1602,22.16196 10.26762,22.4049 11.24448,22.43172 C13.12164,22.4832 16.87884,22.4832 18.756,22.43172 C19.73286,22.4049 20.84028,22.16172 21.53628,21.41832 C22.25952,20.64558 22.53282,19.71198 22.56054,18.66756 L22.56054,11.33244 C22.53282,10.28802 22.25952,9.35442 21.53628,8.58168 C20.84004,7.83804 19.73262,7.5951 18.756,7.56828 L18.756,7.56828 Z M15,19.8825 C12.3034697,19.8825 10.1175,17.6965303 10.1175,15 C10.1175,12.3034697 12.3034697,10.1175 15,10.1175 C17.6965303,10.1175 19.8825,12.3034697 19.8825,15 C19.8825,16.2949195 19.3680952,17.5368025 18.4524489,18.4524489 C17.5368025,19.3680952 16.2949195,19.8825 15,19.8825 Z M19.90326,11.12532 C19.3639852,11.1251875 18.9269117,10.6879348 18.927,10.14866 C18.9270884,9.60938523 19.3643052,9.17227586 19.90358,9.17232003 C20.4428548,9.1723642 20.88,9.60954519 20.88,10.14882 C20.88,10.4078455 20.7770861,10.6562585 20.5939049,10.8393946 C20.4107237,11.0225308 20.1622855,11.1253837 19.90326,11.12532 L19.90326,11.12532 Z" id="Shape"></path>
            </g>
        </g>
    </g>
</svg>