<?xml version="1.0" encoding="UTF-8"?>
<svg width="152px" height="127px" viewBox="0 0 152 127" version="1.1" xmlns="http://www.w3.org/2000/svg" xmlns:xlink="http://www.w3.org/1999/xlink">
    <title>logo</title>
    <g id="Page-1" stroke="none" stroke-width="1" fill="none" fill-rule="evenodd">
        <g id="website" transform="translate(-1374.000000, -30.000000)">
            <g id="logo" transform="translate(1377.000000, 35.000000)">
                <g id="Group" transform="translate(0.475722, 66.344933)" fill="#3F3E3F" fill-rule="nonzero" font-family="Seravek" font-size="14.35824" font-weight="normal">
                    <text id="E">
                        <tspan x="-0.00525111588" y="13">E</tspan>
                    </text>
                    <text id="n">
                        <tspan x="7.28747731" y="13">n</tspan>
                    </text>
                    <text id="t">
                        <tspan x="15.1405373" y="13">t</tspan>
                    </text>
                    <text id="r">
                        <tspan x="20.7340262" y="13">r</tspan>
                    </text>
                    <text id="ep">
                        <tspan x="25.89281" y="13">ep</tspan>
                    </text>
                    <text id="r">
                        <tspan x="40.6703894" y="13">r</tspan>
                    </text>
                    <text id="eneurship">
                        <tspan x="45.8700517" y="13">eneurship</tspan>
                    </text>
                    <text id="Vision">
                        <tspan x="108.549221" y="13">Vision</tspan>
                    </text>
                </g>
                <g id="Group" transform="translate(0.000000, 86.654109)" fill="#3F3E3F" fill-rule="nonzero">
                    <path d="M10.3526552,9.42598913 C11.9686947,9.49497508 13.3940603,9.57650393 14.6256261,9.66743995 L14.6256261,26.8073124 L7.58632072,26.8073124 C5.62644306,26.8073124 4.10105183,26.5031471 3.00702123,25.8979522 C1.91299064,25.2927573 1.13779182,24.3739899 0.684550572,23.1385142 C0.228183524,21.9030386 0,20.2693259 0,18.2373762 C0,15.1298728 0.528260487,12.8658794 1.58790726,11.4485317 C2.64755404,10.031184 4.46364482,9.32251021 7.03930542,9.32251021 C7.63008194,9.32251021 8.73661574,9.35700318 10.3526552,9.42598913 Z M2.35685448,22.2134754 C2.74445389,23.2419932 3.39774644,24.0008386 4.32298375,24.4931474 C5.24509525,24.9854562 6.51417074,25.2300428 8.13333602,25.2300428 L12.8501708,25.2300428 L12.8501708,11.1757236 C10.1838619,11.0158017 8.4771742,10.9342728 7.72385599,10.9342728 C5.56080122,10.9342728 4.02603259,11.5049748 3.1289275,12.6495144 C2.22869661,13.794054 1.77858117,15.6221816 1.77858117,18.1338973 C1.77858117,19.824053 1.97238087,21.1849576 2.35998028,22.2134754 L2.35685448,22.2134754 Z M4.47614803,4.21755003 L6.66420922,4.21755003 L6.66420922,6.4784077 L4.47614803,6.4784077 L4.47614803,4.21755003 Z M8.33651313,4.21755003 L10.5245743,4.21755003 L10.5245743,6.4784077 L8.33651313,6.4784077 L8.33651313,4.21755003 Z" id="Shape"></path>
                    <path d="M28.6198403,11.4830247 C30.2952701,13.1512303 31.1329849,16.0423687 31.1329849,20.1564398 L31.1329849,26.8073124 L18.1827885,26.8073124 L18.1827885,25.2300428 L29.3575295,25.2300428 L29.3575295,20.0529609 C29.3575295,16.4876417 28.6636016,14.0072832 27.2726198,12.6150214 C25.8816381,11.2227595 24.2530954,10.5234929 22.3869918,10.5234929 L19.9269858,10.5234929 L19.8238344,9.28801723 C19.845715,9.24098136 20.1582951,9.18140259 20.7647007,9.09987374 C21.3679804,9.02148061 21.9650085,8.98071619 22.5589108,8.98071619 C24.9282685,8.98071619 26.9506622,9.81481902 28.6229661,11.4830247 L28.6198403,11.4830247 Z" id="Path"></path>
                    <polygon id="Path" points="41.313721 25.2300428 41.313721 26.8073124 36.3593253 26.8073124 36.3593253 1.91906366 38.1691645 1.91906366 38.1691645 25.2300428"></polygon>
                    <path d="M48.1811074,9.66743995 L48.1811074,26.8073124 L41.313721,26.8073124 L41.313721,25.2300428 L46.405652,25.2300428 L46.405652,9.66743995 L48.1811074,9.66743995 Z M44.2175908,29.5510717 L46.405652,29.5510717 L46.405652,31.8150651 L44.2175908,31.8150651 L44.2175908,29.5510717 Z M48.0779559,29.5510717 L50.2660171,29.5510717 L50.2660171,31.8150651 L48.0779559,31.8150651 L48.0779559,29.5510717 Z" id="Shape"></path>
                    <path d="M64.8572594,26.8073124 L61.2000714,26.8073124 L61.2000714,27.4250502 C61.2000714,30.0747378 60.7374528,32.0596517 59.8153413,33.3735204 C58.8932298,34.6873891 57.4741158,35.3458914 55.5611252,35.3458914 C55.2422934,35.3458914 54.3983269,35.2894483 53.0323516,35.1734265 L53.0323516,33.6306498 C54.3545657,33.7215859 55.2204128,33.7686217 55.6298928,33.7686217 C56.8833393,33.7686217 57.8210798,33.2606343 58.4493659,32.2446594 C59.0745263,31.2286845 59.3902322,29.8270155 59.3902322,28.0459237 L59.3902322,9.70506865 L61.2000714,9.70506865 L61.2000714,25.2331785 L64.8572594,25.2331785 L64.8572594,26.8104481 L64.8572594,26.8073124 Z" id="Path"></path>
                    <polygon id="Path" points="70.8369181 1.91906366 70.8369181 26.8073124 64.8572594 26.8073124 64.8572594 25.2300428 69.0614627 25.2300428 69.0614627 1.91906366 70.8369181 1.91906366"></polygon>
                    <polygon id="Path" points="77.2979502 1.91906366 79.1077894 1.91906366 79.1077894 26.8073124 77.2979502 26.8073124"></polygon>
                    <path d="M109.725017,25.2300428 L109.725017,26.8073124 L98.6534274,26.8073124 C96.6935497,26.8073124 95.1681585,26.5031471 94.0741279,25.8979522 C92.9800973,25.2927573 92.2048985,24.3739899 91.7516572,23.1385142 C91.2952902,21.9030386 91.0671066,20.2693259 91.0671066,18.2373762 C91.0671066,15.1298728 91.5953671,12.8658794 92.6550139,11.4485317 C93.7146607,10.031184 95.5307515,9.32251021 98.1064121,9.32251021 C98.6971886,9.32251021 99.8037224,9.35700318 101.419762,9.42598913 C103.035801,9.49497508 104.461167,9.57650393 105.692733,9.66743995 L105.692733,25.2300428 L109.725017,25.2300428 Z M93.4239611,22.2134754 C93.8115605,23.2419932 94.4648531,24.0008386 95.3900904,24.4931474 C96.3122019,24.9854562 97.5812774,25.2300428 99.2004427,25.2300428 L103.917277,25.2300428 L103.917277,11.1757236 C101.250969,11.0158017 99.5442809,10.9342728 98.7909626,10.9342728 C96.6279079,10.9342728 95.0931392,11.5049748 94.1960341,12.6495144 C93.2958033,13.794054 92.8456878,15.6221816 92.8456878,18.1338973 C92.8456878,19.824053 93.0394875,21.1849576 93.4270869,22.2134754 L93.4239611,22.2134754 Z M96.3622147,4.21755003 L98.5502759,4.21755003 L98.5502759,6.4784077 L96.3622147,6.4784077 L96.3622147,4.21755003 Z M100.22258,4.21755003 L102.410641,4.21755003 L102.410641,6.4784077 L100.22258,6.4784077 L100.22258,4.21755003 Z" id="Shape"></path>
                    <path d="M116.595529,9.66743995 L116.595529,26.8073124 L109.728143,26.8073124 L109.728143,25.2300428 L114.820074,25.2300428 L114.820074,9.66743995 L116.595529,9.66743995 L116.595529,9.66743995 Z M112.632013,29.5510717 L114.820074,29.5510717 L114.820074,31.8150651 L112.632013,31.8150651 L112.632013,29.5510717 Z M116.492378,29.5510717 L118.680439,29.5510717 L118.680439,31.8150651 L116.492378,31.8150651 L116.492378,29.5510717 Z" id="Shape"></path>
                    <path d="M130.842933,9.20335266 C132.049493,9.32878166 133.040372,9.4604821 133.815571,9.598454 L133.815571,25.0575779 C133.815571,27.7543013 133.609268,29.8521013 133.199788,31.3478421 C132.790308,32.8435829 132.19328,33.8783721 131.405578,34.449074 C130.621001,35.019776 129.589487,35.305127 128.31416,35.305127 C127.335784,35.305127 125.729122,35.1577479 123.497299,34.859854 L123.497299,33.3170773 C125.457177,33.5898854 127.038833,33.7278573 128.248518,33.7278573 C129.067478,33.7278573 129.745777,33.5804782 130.280289,33.2825844 C130.814801,32.9846905 131.249287,32.3355954 131.577497,31.3290277 C131.908832,30.32246 132.071373,28.8141764 132.071373,26.8041767 L126.604346,26.8041767 C124.985181,26.8041767 123.756741,26.3871253 122.912774,25.5530224 C122.068808,24.7189196 121.518667,23.6559088 121.256099,22.3639902 C120.993532,21.0720715 120.862248,19.5136162 120.862248,17.6854886 C120.862248,15.857361 121.037293,14.3553487 121.390509,13.1104659 C121.743725,11.8655831 122.437652,10.8715583 123.475419,10.1283915 C124.513185,9.38522471 125.997941,9.01520917 127.935938,9.01520917 C128.664249,9.01520917 129.633248,9.07792366 130.839807,9.20335266 L130.842933,9.20335266 Z M123.597325,23.2921648 C124.234988,24.5840834 125.522819,25.2300428 127.45769,25.2300428 L132.036989,25.2300428 L132.036989,25.0230849 L132.002606,24.3708541 L132.036989,24.4398401 L132.036989,10.8652869 C130.305295,10.6834148 129.120617,10.5924788 128.482953,10.5924788 C126.863788,10.5924788 125.629096,10.9123227 124.775752,11.5520106 C123.922408,12.1916985 123.347261,13.0540229 123.05031,14.1389837 C122.753358,15.2239445 122.615823,16.5911206 122.64083,18.2342405 C122.64083,20.3132261 122.959661,22.0002461 123.597325,23.289029 L123.597325,23.2921648 Z M130.911701,5.24293208 L124.178724,6.54425792 L123.906779,5.68820502 L125.547825,5.24293208 C124.841394,4.62519427 124.488178,3.86007739 124.488178,2.94758143 C124.488178,2.14797157 124.760123,1.45497637 125.307138,0.874867255 C125.854154,0.291622418 126.569962,0 127.460816,0 C127.98595,0 128.467324,0.0972074727 128.914314,0.291622418 C129.358177,0.486037364 129.683261,0.664773685 129.889564,0.821559931 L129.617619,1.81558473 C129.480084,1.70269864 129.264403,1.58667681 128.967452,1.47379072 C128.670501,1.36090462 128.339166,1.30132584 127.976573,1.30132584 C127.33891,1.30132584 126.826278,1.50201224 126.438679,1.90024931 C126.051079,2.3016221 125.85728,2.77511656 125.85728,3.32386842 C125.85728,3.96355631 126.119847,4.49976527 126.641856,4.93563104 L130.605372,3.87262028 L130.911701,5.24293208 L130.911701,5.24293208 Z" id="Shape"></path>
                    <path d="M137.369607,35.1702908 L137.369607,33.6275141 C138.691821,33.7184501 139.557668,33.765486 139.967148,33.765486 C141.220595,33.765486 142.158335,33.2574986 142.786622,32.2415237 C143.411782,31.2255488 143.727488,29.8238798 143.727488,28.042788 L143.727488,9.70193292 L145.537327,9.70193292 L145.537327,27.4250502 C145.537327,30.0747378 145.074708,32.0596517 144.152597,33.3735204 C143.230485,34.6873891 141.811371,35.3458914 139.898381,35.3458914 C139.579549,35.3458914 138.735583,35.2894483 137.369607,35.1734265 L137.369607,35.1702908 Z" id="Path"></path>
                </g>
                <path d="M78.4888806,19.5778167 C78.4888806,19.5778167 75.7225461,19.2234798 75.2943113,19.2234798 C74.8660765,19.2234798 73.8064297,19.0823722 73.1656403,18.5116702 C72.524851,17.9409683 69.4053009,15.5954461 68.836405,15.3132308 C68.2675091,15.0278798 65.9262836,13.3220455 65.2854942,13.2499238 C64.6478307,13.1778021 64.5759373,13.2499238 63.7944868,13.2499238 C63.0130364,13.2499238 63.3693778,13.7485041 61.9502638,13.81749 C60.5311499,13.8896117 59.7496994,14.8146505 60.1748085,14.9557582 C60.5999175,15.0968658 61.9502638,16.3041199 61.522029,16.5173492 C61.09692,16.7305785 61.0250265,17.3702664 60.4592564,17.3702664 C59.8934863,17.3702664 59.3245904,17.442388 59.3245904,17.8688466 C59.3245904,18.2953052 58.5462658,19.003979 57.9054764,18.9349931 C57.5428834,18.8942287 56.7395524,18.4834487 56.1206437,18.138519 L55.9330956,18.6559136 L55.8643279,19.1419509 C55.98936,19.5182379 55.8018119,21.0704218 56.1644049,21.192715 C56.5613817,21.3244155 56.777062,22.0456322 57.6241543,22.9769425 C58.4743724,23.9082528 60.1998149,26.4105613 60.2279471,27.0220277 C60.2529535,27.6366298 60.5467789,28.3014035 61.6095515,29.0194845 C62.672324,29.7407012 62.672324,30.6155685 63.2318425,31.0451628 C63.7882352,31.4716214 63.6569516,31.9764731 63.6850838,33.0426195 C63.7100902,34.1056303 64.1914637,35.4916207 65.147959,36.0780013 C66.1044543,36.6643818 66.7671243,37.300934 67.2203655,38.4454736 C67.6704809,39.5900132 68.2581317,40.5746308 68.867663,41.1892329 C69.4803201,41.8006993 69.1333561,42.1205432 69.4803201,42.5720876 C69.6584908,42.8041312 69.9023034,43.2023683 70.0710966,43.616284 C70.5430927,43.3905118 70.8744277,43.2149112 70.9025599,43.1616039 C71.0025856,42.954646 70.696257,42.3870798 70.8525471,42.1832577 C71.0057114,41.9762999 71.3120399,41.6156915 71.6214943,41.5153483 C71.9278229,41.4118694 72.2872901,41.8226493 72.9562116,41.7223061 C73.6251332,41.6188272 75.0098633,41.7724777 75.1661534,41.929264 C75.3193177,42.0829145 77.2198051,41.9794356 77.6824238,42.3431797 C78.1450424,42.703788 78.6076611,42.6003091 78.9139897,41.8790924 C79.223444,41.1578757 81.3771214,39.615099 81.6865758,39.4583127 C81.9960301,39.3046622 84.3059976,39.4583127 85.2312349,39.2513549 C86.1533464,39.0443971 92.2142759,37.0908404 92.4705916,36.8838826 C92.7269074,36.6769247 93.7021575,33.4878925 93.7021575,33.1272841 C93.7021575,32.7666758 93.2395388,31.7883296 92.7769202,31.8416369 C92.3143015,31.8918085 88.5133267,31.4810285 88.2570109,31.327378 C88.050708,31.201949 87.0410741,30.4399679 86.9035388,29.3926357 C86.6034618,29.1637278 86.2596236,28.6682833 86.159598,28.2418247 C85.7219857,28.2982677 85.0374352,28.1979245 84.6560874,27.2070355 C84.3028718,26.9655846 83.3713829,25.6360373 83.6964662,25.2660217 C84.0965689,24.8144773 83.4839117,23.8549455 82.8993868,23.3218723 C82.3148619,22.788799 81.1208056,21.8041814 81.067667,21.192715 C81.0551638,21.0233859 80.9613898,20.7474421 80.8426093,20.4275982 L79.4141179,20.3554765 L78.4920064,19.574681 L78.4888806,19.5778167 Z" id="Path" fill="#0A412B" fill-rule="nonzero"></path>
                <path d="M4.22608389,28.0944456 C4.22608389,28.0944456 68.4050443,-34.2563088 142.502174,26.8150698 C142.502174,26.8150698 78.5857805,90.5047788 4.22608389,28.0944456 Z" id="Path" stroke="#D7C8B4" stroke-width="8.39592"></path>
            </g>
        </g>
    </g>
</svg>