<?xml version="1.0" encoding="UTF-8"?>
<svg width="259px" height="98px" viewBox="0 0 259 98" version="1.1" xmlns="http://www.w3.org/2000/svg" xmlns:xlink="http://www.w3.org/1999/xlink">
    <title>Asset 1</title>
    <g id="Page-1" stroke="none" stroke-width="1" fill="none" fill-rule="evenodd">
        <g id="website" transform="translate(-831.000000, -4544.000000)">
            <g id="Group-8" transform="translate(787.000000, 4507.000000)">
                <g id="Asset-1" transform="translate(45.000000, 38.000000)">
                    <g id="Group">
                        <g transform="translate(52.227087, 0.338225)" id="Path">
                            <path d="M1.70920897,-1.2516833e-16 C5.36533146,0.428418113 8.84034572,1.28525434 12.2021673,2.48031539 L7.39147984,15.840196 C5.07103058,15.0284564 2.58079235,14.4309259 0,14.1716202 L1.72052823,-1.2516833e-16 L1.70920897,-1.2516833e-16 Z" fill="#F8BFC8" fill-rule="nonzero"></path>
                            <path d="M1.70920897,-1.2516833e-16 C5.36533146,0.428418113 8.84034572,1.28525434 12.2021673,2.48031539 L7.39147984,15.840196 C5.07103058,15.0284564 2.58079235,14.4309259 0,14.1716202 L1.72052823,-1.2516833e-16 L1.70920897,-1.2516833e-16 Z" stroke="#F8BFC8" stroke-width="0.81648"></path>
                        </g>
                        <path d="M64.3839775,2.82981438 C64.9046637,2.99892679 65.3687536,3.21313585 65.8894397,3.4273449 L60.6486202,16.6181131 C60.3090422,16.4940973 59.912868,16.3588074 59.57329,16.2347916 L64.3839775,2.82981438 L64.3839775,2.82981438 Z" id="Path" fill="#FFFFFF" fill-rule="nonzero"></path>
                        <g transform="translate(60.648620, 3.382248)" id="Path">
                            <path d="M5.28609661,0 C6.05580661,0.304402343 6.83683587,0.597530526 7.56126881,0.947029512 L1.62997411,13.9235887 C1.10928794,13.664283 0.55464397,13.4500739 0,13.2358649 L5.28609661,0 Z" fill="#99D6D5" fill-rule="nonzero"></path>
                            <path d="M5.28609661,0 C6.05580661,0.304402343 6.83683587,0.597530526 7.56126881,0.947029512 L1.62997411,13.9235887 C1.10928794,13.664283 0.55464397,13.4500739 0,13.2358649 L5.28609661,0 Z" stroke="#99D6D5" stroke-width="0.81648"></path>
                        </g>
                        <g transform="translate(62.323871, 4.363100)" id="Path">
                            <path d="M5.9312947,0 C9.75720616,1.75876909 13.3227745,3.97977878 16.548765,6.64048075 L7.48203396,17.5538685 C5.20686176,15.7161802 2.70530426,14.1265236 0,12.8863659 L5.9312947,0 Z" fill="#99D6D5" fill-rule="nonzero"></path>
                            <path d="M5.9312947,0 C9.75720616,1.75876909 13.3227745,3.97977878 16.548765,6.64048075 L7.48203396,17.5538685 C5.20686176,15.7161802 2.70530426,14.1265236 0,12.8863659 L5.9312947,0 Z" stroke="#99D6D5" stroke-width="0.81648"></path>
                        </g>
                        <g transform="translate(75.782477, 20.169474)" id="Path">
                            <path d="M11.6475234,0 C12.0323784,0.5186114 12.3832756,1.02594864 12.7228535,1.54456004 L0.769709999,9.28990855 C0.509366911,8.90658708 0.294300882,8.55708809 0,8.17376662 L11.6475234,0 L11.6475234,0 Z" fill="#6E1449" fill-rule="nonzero"></path>
                            <path d="M11.6475234,0 C12.0323784,0.5186114 12.3832756,1.02594864 12.7228535,1.54456004 L0.769709999,9.28990855 C0.509366911,8.90658708 0.294300882,8.55708809 0,8.17376662 L11.6475234,0 L11.6475234,0 Z" stroke="#6E1449" stroke-width="0.81648"></path>
                        </g>
                        <g transform="translate(76.608783, 21.736582)" id="Path">
                            <path d="M11.8965472,0.0112741609 C13.7868644,2.87491102 15.3828807,6.00912774 16.6279998,9.25608607 L3.30522529,14.2618135 C2.44496117,11.9506105 1.32435397,9.76342331 0,7.71152603 L11.9078665,0 L11.8965472,0.0112741609 Z" fill="#FFFFFF" fill-rule="nonzero"></path>
                            <path d="M11.8965472,0.0112741609 C13.7868644,2.87491102 15.3828807,6.00912774 16.6279998,9.25608607 L3.30522529,14.2618135 C2.44496117,11.9506105 1.32435397,9.76342331 0,7.71152603 L11.9078665,0 L11.8965472,0.0112741609 Z" stroke="#FFFFFF" stroke-width="0.81648"></path>
                        </g>
                        <g transform="translate(79.914009, 31.003942)" id="Path">
                            <path d="M13.3227745,0 C13.8774185,1.45436675 14.3981047,2.99892679 14.7829597,4.49839018 L1.03005309,8.18504079 C0.769709999,7.06889886 0.430132058,6.04295022 0,5.01700158 L13.3227745,0.0112741609 L13.3227745,0 Z" fill="#ABB8BB" fill-rule="nonzero"></path>
                            <path d="M13.3227745,0 C13.8774185,1.45436675 14.3981047,2.99892679 14.7829597,4.49839018 L1.03005309,8.18504079 C0.769709999,7.06889886 0.430132058,6.04295022 0,5.01700158 L13.3227745,0.0112741609 L13.3227745,0 Z" stroke="#ABB8BB" stroke-width="0.81648"></path>
                        </g>
                        <g transform="translate(80.887465, 47.779894)" id="Path">
                            <path d="M15.439477,1.11614193 C15.3489229,5.01700158 14.839556,8.82766795 13.8434607,12.4241253 L0,8.78257131 C0.735752205,6.16696599 1.1206072,3.4273449 1.16588426,0.642627169 L1.16588426,0.0901932869 L15.439477,0 C15.4847541,0.383321469 15.439477,0.732820456 15.439477,1.11614193 L15.439477,1.11614193 Z" fill="#DFDFDF" fill-rule="nonzero"></path>
                            <path d="M15.439477,1.11614193 C15.3489229,5.01700158 14.839556,8.82766795 13.8434607,12.4241253 L0,8.78257131 C0.735752205,6.16696599 1.1206072,3.4273449 1.16588426,0.642627169 L1.16588426,0.0901932869 L15.439477,0 C15.4847541,0.383321469 15.439477,0.732820456 15.439477,1.11614193 L15.439477,1.11614193 Z" stroke="#DFDFDF" stroke-width="0.81648"></path>
                        </g>
                        <g transform="translate(78.951871, 56.607562)" id="Path">
                            <path d="M15.824332,3.59645731 C15.1338569,6.24588512 14.1943579,8.81639379 13.0737507,11.3079833 L0,5.35522641 C0.814987057,3.64155396 1.46018514,1.84896238 1.98087132,0 L15.824332,3.59645731 L15.824332,3.59645731 Z" fill="#E9E628" fill-rule="nonzero"></path>
                            <path d="M15.824332,3.59645731 C15.1338569,6.24588512 14.1943579,8.81639379 13.0737507,11.3079833 L0,5.35522641 C0.814987057,3.64155396 1.46018514,1.84896238 1.98087132,0 L15.824332,3.59645731 L15.824332,3.59645731 Z" stroke="#E9E628" stroke-width="0.81648"></path>
                        </g>
                        <g transform="translate(77.061554, 61.996611)" id="Path">
                            <path d="M14.9640679,5.95275694 C14.1943579,7.66642939 13.3340938,9.28990855 12.3379985,10.8795652 L0,3.4273449 C0.690475146,2.31120298 1.29039617,1.16123857 1.84504014,0 L14.9527487,5.95275694 L14.9640679,5.95275694 Z" fill="#C8D92B" fill-rule="nonzero"></path>
                            <path d="M14.9640679,5.95275694 C14.1943579,7.66642939 13.3340938,9.28990855 12.3379985,10.8795652 L0,3.4273449 C0.690475146,2.31120298 1.29039617,1.16123857 1.84504014,0 L14.9527487,5.95275694 L14.9640679,5.95275694 Z" stroke="#C8D92B" stroke-width="0.81648"></path>
                        </g>
                        <g transform="translate(55.792656, 80.238203)" id="Path">
                            <path d="M4.68617558,14.1377977 C4.25604352,14.2618135 3.78063441,14.3971034 3.30522529,14.4760225 L0,0.2593057 C0.305620147,0.169112413 0.599921028,0.13528993 0.950818234,0 L4.68617558,14.1265236 L4.68617558,14.1377977 Z" fill="#66280F" fill-rule="nonzero"></path>
                            <path d="M4.68617558,14.1377977 C4.25604352,14.2618135 3.78063441,14.3971034 3.30522529,14.4760225 L0,0.2593057 C0.305620147,0.169112413 0.599921028,0.13528993 0.950818234,0 L4.68617558,14.1265236 L4.68617558,14.1377977 Z" stroke="#66280F" stroke-width="0.81648"></path>
                        </g>
                        <g transform="translate(33.391831, 79.595576)" id="Path">
                            <path d="M8.25174396,15.9303893 C5.41060852,15.5470678 2.6600272,14.9044407 0,14.0476044 L4.51638661,0 C6.32746896,0.597530526 8.25174396,1.07104528 10.2326153,1.33035098 L8.25174396,15.9303893 L8.25174396,15.9303893 Z" fill="#849497" fill-rule="nonzero"></path>
                            <path d="M8.25174396,15.9303893 C5.41060852,15.5470678 2.6600272,14.9044407 0,14.0476044 L4.51638661,0 C6.32746896,0.597530526 8.25174396,1.07104528 10.2326153,1.33035098 L8.25174396,15.9303893 L8.25174396,15.9303893 Z" stroke="#849497" stroke-width="0.81648"></path>
                        </g>
                        <g transform="translate(29.226341, 78.479434)" id="Path">
                            <path d="M4.1654894,15.1637464 C2.70530426,14.7353282 1.32435397,14.1828944 0,13.5740897 L5.85205984,0 C6.80287808,0.428418113 7.7876541,0.766642939 8.77243013,1.11614193 L4.17680867,15.1637464 L4.1654894,15.1637464 Z" fill="#CD2027" fill-rule="nonzero"></path>
                            <path d="M4.1654894,15.1637464 C2.70530426,14.7353282 1.32435397,14.1828944 0,13.5740897 L5.85205984,0 C6.80287808,0.428418113 7.7876541,0.766642939 8.77243013,1.11614193 L4.17680867,15.1637464 L4.1654894,15.1637464 Z" stroke="#CD2027" stroke-width="0.81648"></path>
                        </g>
                        <g transform="translate(21.178344, 75.446684)" id="Path">
                            <path d="M0,12.2888353 L8.29702102,0 C10.0175492,1.16123857 11.8625894,2.18718721 13.8434607,3.04402343 L7.99140087,16.6181131 C5.15026543,15.4568745 2.53551529,13.9686853 0,12.2888353 L0,12.2888353 Z" fill="#EE4838" fill-rule="nonzero"></path>
                            <path d="M0,12.2888353 L8.29702102,0 C10.0175492,1.16123857 11.8625894,2.18718721 13.8434607,3.04402343 L7.99140087,16.6181131 C5.15026543,15.4568745 2.53551529,13.9686853 0,12.2888353 L0,12.2888353 Z" stroke="#EE4838" stroke-width="0.81648"></path>
                        </g>
                        <g transform="translate(19.412539, 74.589848)" id="Path">
                            <path d="M1.76580529,13.1005749 C1.16588426,12.6721568 0.599921028,12.2888353 0,11.8604172 L8.85166498,0 C9.23651998,0.304402343 9.62137498,0.597530526 10.051507,0.856836226 L1.75448603,13.1005749 L1.76580529,13.1005749 Z" fill="#C34127" fill-rule="nonzero"></path>
                            <path d="M1.76580529,13.1005749 C1.16588426,12.6721568 0.599921028,12.2888353 0,11.8604172 L8.85166498,0 C9.23651998,0.304402343 9.62137498,0.597530526 10.051507,0.856836226 L1.75448603,13.1005749 L1.76580529,13.1005749 Z" stroke="#C34127" stroke-width="0.81648"></path>
                        </g>
                        <g transform="translate(14.477340, 71.726211)" id="Path">
                            <path d="M4.94651867,14.7691507 C3.18071338,13.4838964 1.55073926,12.0746263 0,10.5751629 L10.4024042,0 C11.4777344,1.07104528 12.5983416,2.01807479 13.7981837,2.95383015 L4.94651867,14.7691507 L4.94651867,14.7691507 Z" fill="#C8D92B" fill-rule="nonzero"></path>
                            <path d="M4.94651867,14.7691507 C3.18071338,13.4838964 1.55073926,12.0746263 0,10.5751629 L10.4024042,0 C11.4777344,1.07104528 12.5983416,2.01807479 13.7981837,2.95383015 L4.94651867,14.7691507 L4.94651867,14.7691507 Z" stroke="#C8D92B" stroke-width="0.81648"></path>
                        </g>
                        <g transform="translate(4.029658, 61.275064)" id="Path">
                            <path d="M10.4476813,20.9812134 C6.06712587,16.6970322 2.49023823,11.5560149 0,5.90766029 L13.5831176,0 C15.3036459,3.93468214 17.748607,7.45222033 20.8048085,10.4511471 L10.4476813,20.9812134 Z" fill="#ED2424" fill-rule="nonzero"></path>
                            <path d="M10.4476813,20.9812134 C6.06712587,16.6970322 2.49023823,11.5560149 0,5.90766029 L13.5831176,0 C15.3036459,3.93468214 17.748607,7.45222033 20.8048085,10.4511471 L10.4476813,20.9812134 Z" stroke="#ED2424" stroke-width="0.81648"></path>
                        </g>
                        <g transform="translate(3.429737, 60.282938)" id="Path">
                            <path d="M0.599921028,6.8546898 C0.384854999,6.42627169 0.215066029,5.90766029 0,5.47924218 L13.7981837,0 C13.9226956,0.304402343 14.0585267,0.642627169 14.2283157,0.947029512 L0.599921028,6.8546898 L0.599921028,6.8546898 Z" fill="#C32026" fill-rule="nonzero"></path>
                            <path d="M0.599921028,6.8546898 C0.384854999,6.42627169 0.215066029,5.90766029 0,5.47924218 L13.7981837,0 C13.9226956,0.304402343 14.0585267,0.642627169 14.2283157,0.947029512 L0.599921028,6.8546898 L0.599921028,6.8546898 Z" stroke="#C32026" stroke-width="0.81648"></path>
                        </g>
                        <g transform="translate(0.939499, 54.600761)" id="Path">
                            <path d="M2.49023823,11.1726934 C1.41490809,8.52326561 0.599921028,5.77237036 5.02676331e-16,2.9087335 L14.5339359,0 C14.9640679,1.97297815 15.5187119,3.85576301 16.2544641,5.69345124 L2.5015575,11.1726934 L2.49023823,11.1726934 Z" fill="#F7E49E" fill-rule="nonzero"></path>
                            <path d="M2.49023823,11.1726934 C1.41490809,8.52326561 0.599921028,5.77237036 5.02676331e-16,2.9087335 L14.5339359,0 C14.9640679,1.97297815 15.5187119,3.85576301 16.2544641,5.69345124 L2.5015575,11.1726934 L2.49023823,11.1726934 Z" stroke="#F7E49E" stroke-width="0.81648"></path>
                        </g>
                        <g transform="translate(0.000000, 41.364896)" id="Path">
                            <path d="M0.0339577941,5.73854788 C0.0792348528,3.76556973 0.203746764,1.88278486 0.464089852,0 L15.0772606,2.01807479 C14.9074716,3.25823249 14.8169175,4.49839018 14.8169175,5.82874117 L14.8169175,7.32820456 L0.0339577941,7.6326069 C-0.0113192647,7.03507638 -0.0113192647,6.39244921 0.0339577941,5.74982204 L0.0339577941,5.73854788 Z" fill="#D97427" fill-rule="nonzero"></path>
                            <path d="M0.0339577941,5.73854788 C0.0792348528,3.76556973 0.203746764,1.88278486 0.464089852,0 L15.0772606,2.01807479 C14.9074716,3.25823249 14.8169175,4.49839018 14.8169175,5.82874117 L14.8169175,7.32820456 L0.0339577941,7.6326069 C-0.0113192647,7.03507638 -0.0113192647,6.39244921 0.0339577941,5.74982204 L0.0339577941,5.73854788 Z" stroke="#D97427" stroke-width="0.81648"></path>
                        </g>
                        <g transform="translate(0.509367, 33.010743)" id="Path">
                            <path d="M0,8.3541532 C0.430132058,5.49051634 1.07533015,2.66070196 1.93559426,0 L15.8696091,4.57730931 C15.2696881,6.46009417 14.839556,8.38797568 14.5792129,10.4060505 L0.0113192647,8.3541532 L0,8.3541532 Z" fill="#ED2424" fill-rule="nonzero"></path>
                            <path d="M0,8.3541532 C0.430132058,5.49051634 1.07533015,2.66070196 1.93559426,0 L15.8696091,4.57730931 C15.2696881,6.46009417 14.839556,8.38797568 14.5792129,10.4060505 L0.0113192647,8.3541532 L0,8.3541532 Z" stroke="#ED2424" stroke-width="0.81648"></path>
                        </g>
                        <g transform="translate(5.874698, 21.409631)" id="Path">
                            <path d="M0,3.64155396 C0.690475146,2.40139626 1.41490809,1.20633521 2.19593735,0 L14.4094239,8.0948475 C13.85478,8.90658708 13.3793709,9.76342331 12.9039617,10.6202595 L0.0113192647,3.64155396 L0,3.64155396 Z" fill="#F7AB84" fill-rule="nonzero"></path>
                            <path d="M0,3.64155396 C0.690475146,2.40139626 1.41490809,1.20633521 2.19593735,0 L14.4094239,8.0948475 C13.85478,8.90658708 13.3793709,9.76342331 12.9039617,10.6202595 L0.0113192647,3.64155396 L0,3.64155396 Z" stroke="#F7AB84" stroke-width="0.81648"></path>
                        </g>
                        <g transform="translate(8.070636, 18.884219)" id="Path">
                            <path d="M0,2.52541203 C0.599921028,1.66857581 1.16588426,0.811739582 1.81108235,0 L13.4133287,8.86149044 C12.9831966,9.45902096 12.5530645,10.022729 12.1682095,10.6653562 L0,2.52541203 Z" fill="#F28DB1" fill-rule="nonzero"></path>
                            <path d="M0,2.52541203 C0.599921028,1.66857581 1.16588426,0.811739582 1.81108235,0 L13.4133287,8.86149044 C12.9831966,9.45902096 12.5530645,10.022729 12.1682095,10.6653562 L0,2.52541203 Z" stroke="#F28DB1" stroke-width="0.81648"></path>
                        </g>
                        <g transform="translate(9.881718, 10.191841)" id="Path">
                            <path d="M0,8.64728138 C2.49023823,5.38904889 5.37665073,2.48031539 8.63659896,0 L17.6240951,11.4319991 C15.3942,13.2358649 13.4133287,15.2426655 11.6928004,17.5087718 L0,8.64728138 Z" fill="#F28DB1" fill-rule="nonzero"></path>
                            <path d="M0,8.64728138 C2.49023823,5.38904889 5.37665073,2.48031539 8.63659896,0 L17.6240951,11.4319991 C15.3942,13.2358649 13.4133287,15.2426655 11.6928004,17.5087718 L0,8.64728138 Z" stroke="#F28DB1" stroke-width="0.81648"></path>
                        </g>
                        <g transform="translate(18.563594, 7.497317)" id="Path">
                            <path d="M0,2.69452445 C1.24511912,1.74749493 2.49023823,0.856836226 3.82591146,0 L11.5682885,12.1986421 C10.6174703,12.7961726 9.75720616,13.4387997 8.90826131,14.1265236 L0.0113192647,2.69452445 L0,2.69452445 Z" fill="#F7BDD1" fill-rule="nonzero"></path>
                            <path d="M0,2.69452445 C1.24511912,1.74749493 2.49023823,0.856836226 3.82591146,0 L11.5682885,12.1986421 C10.6174703,12.7961726 9.75720616,13.4387997 8.90826131,14.1265236 L0.0113192647,2.69452445 L0,2.69452445 Z" stroke="#F7BDD1" stroke-width="0.81648"></path>
                        </g>
                        <g transform="translate(22.344228, 6.516465)" id="Path">
                            <path d="M0,0.980851995 C0.55464397,0.642627169 1.07533015,0.293128182 1.62997411,0 L8.89694204,12.5030444 C8.51208704,12.7623501 8.12723204,12.9314625 7.77633484,13.1907682 L0,0.992126156 L0,0.980851995 Z" fill="#8668A6" fill-rule="nonzero"></path>
                            <path d="M0,0.980851995 C0.55464397,0.642627169 1.07533015,0.293128182 1.62997411,0 L8.89694204,12.5030444 C8.51208704,12.7623501 8.12723204,12.9314625 7.77633484,13.1907682 L0,0.992126156 L0,0.980851995 Z" stroke="#8668A6" stroke-width="0.81648"></path>
                        </g>
                        <g transform="translate(24.008160, 5.558161)" id="Path">
                            <path d="M0.0113192647,0.947029512 C0.565963234,0.642627169 1.13192647,0.349498987 1.68657044,0 L8.43285219,12.7623501 C8.04799719,12.9765592 7.66314219,13.1907682 7.26696793,13.4049773 L0,0.947029512 L0.0113192647,0.947029512 Z" fill="#755471" fill-rule="nonzero"></path>
                            <path d="M0.0113192647,0.947029512 C0.565963234,0.642627169 1.13192647,0.349498987 1.68657044,0 L8.43285219,12.7623501 C8.04799719,12.9765592 7.66314219,13.1907682 7.26696793,13.4049773 L0,0.947029512 L0.0113192647,0.947029512 Z" stroke="#755471" stroke-width="0.81648"></path>
                        </g>
                        <g transform="translate(25.694731, 3.686651)" id="Path">
                            <path d="M0,1.88278486 C1.29039617,1.19506105 2.6600272,0.552433882 3.99570043,0 L9.54214013,13.314784 C8.5913219,13.7432021 7.65182293,14.1716202 6.74628175,14.645135 L0,1.88278486 L0,1.88278486 Z" fill="#FFFFFF" fill-rule="nonzero"></path>
                            <path d="M0,1.88278486 C1.29039617,1.19506105 2.6600272,0.552433882 3.99570043,0 L9.54214013,13.314784 C8.5913219,13.7432021 7.65182293,14.1716202 6.74628175,14.645135 L0,1.88278486 L0,1.88278486 Z" stroke="#FFFFFF" stroke-width="0.81648"></path>
                        </g>
                        <g transform="translate(29.735708, 2.784718)" id="Path">
                            <path d="M0,0.901932869 C0.769709999,0.597530526 1.55073926,0.304402343 2.32044926,0 L7.13113675,13.5740897 C6.57649278,13.7882987 6.05580661,14.0025078 5.50116264,14.2167168 L0,0.901932869 Z" fill="#4B53A3" fill-rule="nonzero"></path>
                            <path d="M0,0.901932869 C0.769709999,0.597530526 1.55073926,0.304402343 2.32044926,0 L7.13113675,13.5740897 C6.57649278,13.7882987 6.05580661,14.0025078 5.50116264,14.2167168 L0,0.901932869 Z" stroke="#4B53A3" stroke-width="0.81648"></path>
                        </g>
                        <g transform="translate(32.101435, 0.428418)" id="Path">
                            <path d="M0,2.35629962 C3.13543632,1.24015769 6.48593867,0.428418113 9.97227219,0 L11.7833545,14.2167168 C9.37235116,14.5549417 7.0519019,15.1637464 4.86728382,15.9303893 L0,2.35629962 Z" fill="#858AC0" fill-rule="nonzero"></path>
                            <path d="M0,2.35629962 C3.13543632,1.24015769 6.48593867,0.428418113 9.97227219,0 L11.7833545,14.2167168 C9.37235116,14.5549417 7.0519019,15.1637464 4.86728382,15.9303893 L0,2.35629962 Z" stroke="#858AC0" stroke-width="0.81648"></path>
                        </g>
                        <g transform="translate(47.676743, 0.000000)" id="Path">
                            <path d="M6.22559558,0.338224826 L4.50506735,14.509845 C3.47501426,14.4196517 2.44496117,14.3407326 1.36963103,14.295636 L0.124511912,14.295636 L0,0 L1.41490809,0 C3.0448822,0.0901932869 4.64089852,0.169112413 6.22559558,0.338224826 L6.22559558,0.338224826 Z" fill="#8668A6" fill-rule="nonzero"></path>
                            <path d="M6.22559558,0.338224826 L4.50506735,14.509845 C3.47501426,14.4196517 2.44496117,14.3407326 1.36963103,14.295636 L0.124511912,14.295636 L0,0 L1.41490809,0 C3.0448822,0.0901932869 4.64089852,0.169112413 6.22559558,0.338224826 L6.22559558,0.338224826 Z" stroke="#8668A6" stroke-width="0.81648"></path>
                        </g>
                        <g transform="translate(45.378932, 0.045097)" id="Path">
                            <path d="M2.28649147,-3.75504989e-16 L2.41100338,14.295636 C1.8903172,14.295636 1.33567323,14.3407326 0.814987057,14.3858293 L0,0.0901932869 C0.769709999,0.0450966434 1.55073926,-3.75504989e-16 2.2751722,-3.75504989e-16 L2.28649147,-3.75504989e-16 Z" fill="#4D3D91" fill-rule="nonzero"></path>
                            <path d="M2.28649147,-3.75504989e-16 L2.41100338,14.295636 C1.8903172,14.295636 1.33567323,14.3407326 0.814987057,14.3858293 L0,0.0901932869 C0.769709999,0.0450966434 1.55073926,-3.75504989e-16 2.2751722,-3.75504989e-16 L2.28649147,-3.75504989e-16 Z" stroke="#4D3D91" stroke-width="0.81648"></path>
                        </g>
                        <g transform="translate(42.017111, 0.214209)" id="Path">
                            <path d="M0.0113192647,0.214209056 C0.701794411,0.124015769 1.39226956,0.0450966434 2.07142544,0 L3.27126749,14.2618135 C2.79585838,14.3069101 2.32044926,14.3520068 1.81108235,14.4309259 L0,0.214209056 L0.0113192647,0.214209056 Z" fill="#4B53A3" fill-rule="nonzero"></path>
                            <path d="M0.0113192647,0.214209056 C0.701794411,0.124015769 1.39226956,0.0450966434 2.07142544,0 L3.27126749,14.2618135 C2.79585838,14.3069101 2.32044926,14.3520068 1.81108235,14.4309259 L0,0.214209056 L0.0113192647,0.214209056 Z" stroke="#4B53A3" stroke-width="0.81648"></path>
                        </g>
                        <g transform="translate(44.133813, 0.124016)" id="Path">
                            <path d="M1.29039617,0 L2.10538323,14.295636 C1.79976309,14.3407326 1.5054622,14.3407326 1.19984206,14.3858293 L0,0.124015769 C0.384854999,0 0.814987057,0 1.29039617,0 Z" fill="#314D95" fill-rule="nonzero"></path>
                            <path d="M1.29039617,0 L2.10538323,14.295636 C1.79976309,14.3407326 1.5054622,14.3407326 1.19984206,14.3858293 L0,0.124015769 C0.384854999,0 0.814987057,0 1.29039617,0 Z" stroke="#314D95" stroke-width="0.81648"></path>
                        </g>
                        <g transform="translate(5.478524, 25.051185)" id="Path">
                            <path d="M0.396174264,0 L13.2888167,7.02380222 C13.1982626,7.19291463 13.1190278,7.36202704 13.0284737,7.54241362 L0,0.777917099 C0.124511912,0.5186114 0.260343088,0.2593057 0.384854999,0.0112741609 L0.396174264,0 Z" fill="#F7E49E" fill-rule="nonzero"></path>
                            <path d="M0.396174264,0 L13.2888167,7.02380222 C13.1982626,7.19291463 13.1190278,7.36202704 13.0284737,7.54241362 L0,0.777917099 C0.124511912,0.5186114 0.260343088,0.2593057 0.384854999,0.0112741609 L0.396174264,0 Z" stroke="#F7E49E" stroke-width="0.81648"></path>
                        </g>
                        <g transform="translate(2.399684, 30.609347)" id="Path">
                            <path d="M0,2.40139626 C0.260343088,1.58965668 0.55464397,0.777917099 0.860264116,0 L14.5792129,5.35522641 C14.3641469,5.90766029 14.1490809,6.47136833 13.9792919,7.02380222 L0,2.40139626 Z" fill="#F68C1E" fill-rule="nonzero"></path>
                            <path d="M0,2.40139626 C0.260343088,1.58965668 0.55464397,0.777917099 0.860264116,0 L14.5792129,5.35522641 C14.3641469,5.90766029 14.1490809,6.47136833 13.9792919,7.02380222 L0,2.40139626 Z" stroke="#F68C1E" stroke-width="0.81648"></path>
                        </g>
                        <g transform="translate(3.293906, 25.817828)" id="Path">
                            <path d="M13.7189488,10.0678256 L0,4.75769588 C0.645198087,3.13421672 1.38095029,1.54456004 2.15066029,0 L15.1791339,6.76449652 C14.62449,7.8355418 14.1490809,8.95168372 13.7189488,10.0565515 L13.7189488,10.0678256 Z" fill="#D97427" fill-rule="nonzero"></path>
                            <path d="M13.7189488,10.0678256 L0,4.75769588 C0.645198087,3.13421672 1.38095029,1.54456004 2.15066029,0 L15.1791339,6.76449652 C14.62449,7.8355418 14.1490809,8.95168372 13.7189488,10.0565515 L13.7189488,10.0678256 Z" stroke="#D97427" stroke-width="0.81648"></path>
                        </g>
                        <g transform="translate(41.688852, 80.971023)" id="Path">
                            <path d="M0,14.5549417 L1.98087132,0 C3.36182161,0.214209056 4.73145264,0.304402343 6.14636072,0.338224826 C7.26696793,0.383321469 8.29702102,0.338224826 9.41762822,0.248031539 L10.7080244,14.8480699 C9.03277322,14.9720856 7.35752205,15.0622789 5.63699381,15.0171823 C3.74667661,14.926989 1.85635941,14.8029732 0,14.5436675 L0,14.5549417 Z" fill="#35190E" fill-rule="nonzero"></path>
                            <path d="M0,14.5549417 L1.98087132,0 C3.36182161,0.214209056 4.73145264,0.304402343 6.14636072,0.338224826 C7.26696793,0.383321469 8.29702102,0.338224826 9.41762822,0.248031539 L10.7080244,14.8480699 C9.03277322,14.9720856 7.35752205,15.0622789 5.63699381,15.0171823 C3.74667661,14.926989 1.85635941,14.8029732 0,14.5436675 L0,14.5549417 Z" stroke="#35190E" stroke-width="0.81648"></path>
                        </g>
                        <g transform="translate(51.061203, 80.497509)" id="Path">
                            <path d="M8.03667793,14.2167168 C5.84074058,14.7353282 3.61084544,15.0735531 1.29039617,15.2877621 L0,0.687723813 C1.59601632,0.563708043 3.13543632,0.349498987 4.68617558,0 L8.03667793,14.2167168 Z" fill="#66280F" fill-rule="nonzero"></path>
                            <path d="M8.03667793,14.2167168 C5.84074058,14.7353282 3.61084544,15.0735531 1.29039617,15.2877621 L0,0.687723813 C1.59601632,0.563708043 3.13543632,0.349498987 4.68617558,0 L8.03667793,14.2167168 Z" stroke="#66280F" stroke-width="0.81648"></path>
                        </g>
                        <g transform="translate(69.794586, 11.003581)" id="Path">
                            <path d="M9.07805028,0 C10.7985785,1.40927011 12.3832756,2.95383015 13.9340148,4.57730931 L3.44105646,14.1716202 C2.36572632,13.0103816 1.24511912,11.9506105 0,10.9584844 L9.06673101,0 L9.07805028,0 Z" fill="#99D6D5" fill-rule="nonzero"></path>
                            <path d="M9.07805028,0 C10.7985785,1.40927011 12.3832756,2.95383015 13.9340148,4.57730931 L3.44105646,14.1716202 C2.36572632,13.0103816 1.24511912,11.9506105 0,10.9584844 L9.06673101,0 L9.07805028,0 Z" stroke="#99D6D5" stroke-width="0.81648"></path>
                        </g>
                        <g transform="translate(73.201685, 15.580890)" id="Path">
                            <path d="M14.2283157,4.58858347 L2.62606941,12.8074467 C1.85635941,11.6913048 0.950818234,10.6202595 0,9.59431089 L10.4929584,0 C11.8286316,1.45436675 13.0737507,2.95383015 14.2283157,4.57730931 L14.2283157,4.58858347 Z" fill="#A01F62" fill-rule="nonzero"></path>
                            <path d="M14.2283157,4.58858347 L2.62606941,12.8074467 C1.85635941,11.6913048 0.950818234,10.6202595 0,9.59431089 L10.4929584,0 C11.8286316,1.45436675 13.0737507,2.95383015 14.2283157,4.57730931 L14.2283157,4.58858347 Z" stroke="#A01F62" stroke-width="0.81648"></path>
                        </g>
                        <g transform="translate(0.328259, 51.646931)" id="Path">
                            <path d="M0.645198087,5.817467 C0.384854999,4.44201938 0.16978897,3.07784592 -3.77007248e-16,1.66857581 L14.7490019,0 C14.839556,0.947029512 15.009345,1.92788151 15.1791339,2.86363686 L0.645198087,5.817467 Z" fill="#FFFFFF" fill-rule="nonzero"></path>
                            <path d="M0.645198087,5.817467 C0.384854999,4.44201938 0.16978897,3.07784592 -3.77007248e-16,1.66857581 L14.7490019,0 C14.839556,0.947029512 15.009345,1.92788151 15.1791339,2.86363686 L0.645198087,5.817467 Z" stroke="#FFFFFF" stroke-width="0.81648"></path>
                        </g>
                        <g transform="translate(0.022639, 48.726923)" id="Path">
                            <path d="M0.0113192647,0.304402343 L14.7942789,0 C14.839556,0.980851995 14.8848331,1.97297815 15.009345,2.99892679 L0.260343088,4.6675026 C0.135831176,3.21313585 0.0452770587,1.75876909 0,0.304402343 L0.0113192647,0.304402343 Z" fill="#F68C1E" fill-rule="nonzero"></path>
                            <path d="M0.0113192647,0.304402343 L14.7942789,0 C14.839556,0.980851995 14.8848331,1.97297815 15.009345,2.99892679 L0.260343088,4.6675026 C0.135831176,3.21313585 0.0452770587,1.75876909 0,0.304402343 L0.0113192647,0.304402343 Z" stroke="#F68C1E" stroke-width="0.81648"></path>
                        </g>
                        <g transform="translate(72.896065, 65.469052)" id="Path">
                            <path d="M16.5148072,7.40712369 C14.839556,10.1918414 12.8586847,12.7623501 10.6627473,15.1186497 L0,5.35522641 C1.55073926,3.73174725 2.92037029,1.92788151 4.13153161,0 L16.5148072,7.40712369 Z" fill="#E9E628" fill-rule="nonzero"></path>
                            <path d="M16.5148072,7.40712369 C14.839556,10.1918414 12.8586847,12.7623501 10.6627473,15.1186497 L0,5.35522641 C1.55073926,3.73174725 2.92037029,1.92788151 4.13153161,0 L16.5148072,7.40712369 Z" stroke="#E9E628" stroke-width="0.81648"></path>
                        </g>
                        <g transform="translate(56.732155, 70.790456)" id="Path">
                            <path d="M3.78063441,23.5855445 L0,9.45902096 C6.27087264,7.86936428 11.8625894,4.53221267 16.1186329,0 L26.7813802,9.76342331 C20.6802966,16.4039041 12.7681306,21.2405191 3.78063441,23.5968187 L3.78063441,23.5855445 Z" fill="#DFDFDF" fill-rule="nonzero"></path>
                            <path d="M3.78063441,23.5855445 L0,9.45902096 C6.27087264,7.86936428 11.8625894,4.53221267 16.1186329,0 L26.7813802,9.76342331 C20.6802966,16.4039041 12.7681306,21.2405191 3.78063441,23.5968187 L3.78063441,23.5855445 Z" stroke="#DFDFDF" stroke-width="0.81648"></path>
                        </g>
                        <g transform="translate(81.793007, 41.658024)" id="Path">
                            <path d="M0,1.88278486 L14.1490809,0 C14.4094239,2.01807479 14.5792129,4.02487543 14.5792129,6.12186935 L0.305620147,6.21206263 C0.305620147,4.71259924 0.181108235,3.30332913 0,1.88278486 L0,1.88278486 Z" fill="#5C898B" fill-rule="nonzero"></path>
                            <path d="M0,1.88278486 L14.1490809,0 C14.4094239,2.01807479 14.5792129,4.02487543 14.5792129,6.12186935 L0.305620147,6.21206263 C0.305620147,4.71259924 0.181108235,3.30332913 0,1.88278486 L0,1.88278486 Z" stroke="#5C898B" stroke-width="0.81648"></path>
                        </g>
                        <g transform="translate(80.978020, 35.524881)" id="Path">
                            <path d="M13.7642259,0.0112741609 C14.3188698,1.98425231 14.7150441,4.03614959 15.009345,6.13314351 L0.860264116,8.01592837 C0.690475146,6.56156162 0.384854999,5.10719487 0,3.6866506 L13.7529066,0 L13.7642259,0.0112741609 Z" fill="#018AA3" fill-rule="nonzero"></path>
                            <path d="M13.7642259,0.0112741609 C14.3188698,1.98425231 14.7150441,4.03614959 15.009345,6.13314351 L0.860264116,8.01592837 C0.690475146,6.56156162 0.384854999,5.10719487 0,3.6866506 L13.7529066,0 L13.7642259,0.0112741609 Z" stroke="#018AA3" stroke-width="0.81648"></path>
                        </g>
                    </g>
                    <ellipse id="Oval" stroke="#2B2B2B" stroke-width="0.81648" fill="#2B2B2B" fill-rule="nonzero" cx="48.3558987" cy="47.8249904" rx="33.4937042" ry="33.360242"></ellipse>
                    <path d="M34.4218839,48.0842961 C33.6861317,48.0842961 33.1767648,47.7009746 33.1767648,46.9230575 C33.1767648,46.1451404 33.697451,45.7618189 34.4218839,45.7618189 L38.6779274,45.7618189 C39.9683236,45.7618189 40.5229676,46.2353337 40.5229676,47.8137162 C40.5229676,52.7405245 38.7118852,57.6222362 31.7505374,57.6222362 C25.8645198,57.6222362 22.7630413,52.5263155 22.7630413,47.2161857 C22.7630413,41.9060559 25.6834116,36.8101352 32.0901154,36.8101352 C36.3008818,36.8101352 39.1420173,38.9973224 39.1420173,40.1021902 C39.1420173,40.7448174 38.6666082,41.2972512 37.9421752,41.2972512 C36.6517791,41.2972512 35.621726,38.9860483 31.9203264,38.9860483 C27.324705,38.9860483 25.4343878,43.315326 25.4343878,47.2049115 C25.4343878,51.094497 27.2454701,55.4237748 32.0108805,55.4237748 C36.006581,55.4237748 37.8968982,52.0415265 37.8968982,49.2568088 L37.8968982,48.0617478 L34.4105646,48.0617478 L34.4218839,48.0842961 Z M45.8996183,55.0630016 L52.000702,55.0630016 C52.7364542,55.0630016 53.2458211,55.4463231 53.2458211,56.2242402 C53.2458211,57.0021573 52.7251349,57.3854788 52.000702,57.3854788 L44.688457,57.3854788 C43.7376387,57.3854788 43.3527837,56.7879483 43.3527837,56.0100312 L43.3527837,38.3208728 C43.3527837,37.5542298 43.7829158,36.9454251 44.688457,36.9454251 L52.000702,36.9454251 C52.7364542,36.9454251 53.2458211,37.3287466 53.2458211,38.1066637 C53.2458211,38.8845808 52.7251349,39.2679023 52.000702,39.2679023 L45.8996183,39.2679023 L45.8996183,45.9873022 L51.446058,45.9873022 C52.1818102,45.9873022 52.6911771,46.3706236 52.6911771,47.1485407 C52.6911771,47.9264578 52.1704909,48.3097793 51.446058,48.3097793 L45.8996183,48.3097793 L45.8996183,55.0742758 L45.8996183,55.0630016 Z M59.2676699,56.2580627 C59.2676699,57.0698023 58.7922608,57.5884137 57.9772737,57.5884137 C57.1622867,57.5884137 56.6868776,57.0698023 56.6868776,56.2580627 L56.6868776,38.3208728 C56.6868776,37.3400208 57.0264555,36.8214094 57.8527618,36.8214094 C58.6224718,36.8214094 58.973369,37.1258117 59.6638442,38.1517604 L70.0209714,53.0111044 L70.1115255,53.0111044 L70.1115255,38.196857 C70.1115255,37.3851174 70.5869346,36.866506 71.4019216,36.866506 C72.1716316,36.866506 72.6923178,37.3851174 72.6923178,38.196857 L72.6923178,56.1340469 C72.6923178,57.1148989 72.3527399,57.6335103 71.5264336,57.6335103 C70.7567236,57.6335103 70.4058264,57.329108 69.7153512,56.3031593 L59.358224,41.4438153 L59.2676699,41.4438153 L59.2676699,56.2580627 L59.2676699,56.2580627 Z" id="Shape" stroke="#FFFFFF" stroke-width="0.54432" fill="#FFFFFF" fill-rule="nonzero"></path>
                    <path d="M110.645812,32.2891967 C110.21568,32.2891967 109.876102,32.029891 109.876102,31.5563763 C109.876102,31.0828615 110.181722,30.8235558 110.645812,30.8235558 L113.30584,30.8235558 C114.07555,30.8235558 114.426447,31.1279581 114.426447,32.1088101 C114.426447,35.1528336 113.30584,38.1855828 109.004519,38.1855828 C105.348396,38.1855828 103.458079,35.0626403 103.458079,31.7593111 C103.458079,28.455982 105.269162,25.3330395 109.264862,25.3330395 C111.890931,25.3330395 113.61146,26.7084871 113.61146,27.3511143 C113.61146,27.7795324 113.30584,28.1177572 112.84175,28.1177572 C112.07204,28.1177572 111.381565,26.6633904 109.14035,26.6633904 C106.299215,26.6633904 105.14465,29.3128182 105.14465,31.7593111 C105.14465,34.2058041 106.265257,36.8552319 109.230904,36.8552319 C111.721142,36.8552319 112.887027,34.7582379 112.887027,33.0445655 L112.887027,32.2779225 L110.657132,32.2779225 L110.645812,32.2891967 Z M117.742991,36.6184745 L121.093494,36.6184745 C121.523626,36.6184745 121.863204,36.8777802 121.863204,37.3512949 C121.863204,37.8248097 121.557583,38.0841154 121.093494,38.0841154 L117.007239,38.0841154 C116.407318,38.0841154 116.192252,37.7007939 116.192252,37.2272792 L116.192252,26.1786015 C116.192252,25.6599901 116.497872,25.3668619 116.961962,25.3668619 C117.426052,25.3668619 117.731672,25.6712643 117.731672,26.1786015 L117.731672,36.6297486 L117.731672,36.6297486 L117.742991,36.6184745 Z M127.885052,25.3104911 C131.541175,25.3104911 133.431492,28.4334337 133.431492,31.7367628 C133.431492,35.040092 131.450621,38.1630345 127.885052,38.1630345 C124.319484,38.1630345 122.338613,35.040092 122.338613,31.7367628 C122.338613,28.4334337 124.22893,25.3104911 127.885052,25.3104911 Z M127.885052,36.866506 C130.726188,36.866506 131.756241,34.2170782 131.756241,31.7705853 C131.756241,29.3240924 130.726188,26.6746646 127.885052,26.6746646 C125.043917,26.6746646 124.013864,29.3240924 124.013864,31.7705853 C124.013864,34.2170782 124.964682,36.866506 127.885052,36.866506 Z M135.367086,26.2913431 C135.367086,25.8178284 135.627429,25.4345069 136.182073,25.4345069 L138.977932,25.4345069 C141.253104,25.4345069 142.418988,27.0241636 142.418988,28.4334337 C142.418988,29.8427038 141.683236,30.9137491 140.653183,31.2181514 L140.653183,31.2632481 C142.203922,31.4323605 143.403764,32.7176148 143.403764,34.3861906 C143.403764,36.3591688 141.943579,38.0728412 139.238275,38.0728412 L136.227351,38.0728412 C135.627429,38.0728412 135.412363,37.6895198 135.412363,37.216005 L135.367086,26.3026173 L135.367086,26.3026173 L135.367086,26.2913431 Z M136.917826,30.7446367 L138.728908,30.7446367 C140.064581,30.7446367 140.834291,29.8427038 140.834291,28.6927394 C140.834291,27.542775 140.189093,26.7197612 138.774185,26.7197612 L136.929145,26.7197612 L136.929145,30.7446367 L136.929145,30.7446367 L136.917826,30.7446367 Z M136.917826,36.6973936 L139.113763,36.6973936 C140.664502,36.6973936 141.77379,35.7503641 141.77379,34.341094 C141.77379,33.0558396 140.822972,32.029891 139.192998,32.029891 L136.872549,32.029891 L136.917826,36.6973936 L136.917826,36.6973936 Z M145.984557,37.5993265 C145.860045,37.9375513 145.644979,38.196857 145.214847,38.196857 C144.784715,38.196857 144.445137,37.9375513 144.445137,37.5542298 C144.445137,37.3400208 144.614926,36.9566993 144.660203,36.7875869 L148.610626,26.3364398 C148.825692,25.7840059 149.131312,25.3894103 149.731233,25.3894103 C150.331154,25.3894103 150.682052,25.8178284 150.85184,26.3364398 L154.802264,36.7875869 C154.892818,36.9566993 155.01733,37.3851174 155.01733,37.5542298 C155.01733,37.9826479 154.677752,38.196857 154.24762,38.196857 C153.817488,38.196857 153.602422,37.9375513 153.47791,37.5993265 L152.662923,35.2881235 L146.776905,35.2881235 L146.007195,37.5993265 L145.984557,37.5993265 Z M149.765191,27.1481794 L149.765191,27.1481794 L147.274953,34.0028692 L152.221472,34.0028692 L149.77651,27.1481794 L149.765191,27.1481794 Z M158.152766,36.6072003 L161.503269,36.6072003 C161.933401,36.6072003 162.272979,36.866506 162.272979,37.3400208 C162.272979,37.8135355 161.967358,38.0728412 161.503269,38.0728412 L157.417014,38.0728412 C156.817093,38.0728412 156.602027,37.6895198 156.602027,37.216005 L156.602027,26.1673274 C156.602027,25.648716 156.907647,25.3555878 157.371737,25.3555878 C157.835827,25.3555878 158.141447,25.6599901 158.141447,26.1673274 L158.141447,36.6184745 L158.141447,36.6184745 L158.152766,36.6072003 Z M105.495547,52.3233806 L109.276181,52.3233806 C109.706313,52.3233806 110.045891,52.5826863 110.045891,53.056201 C110.045891,53.5297158 109.740271,53.7890215 109.276181,53.7890215 L104.759795,53.7890215 C104.159874,53.7890215 103.944808,53.4057 103.944808,52.9321852 L103.944808,41.9737009 C103.944808,41.5001861 104.205151,41.1168647 104.759795,41.1168647 L109.276181,41.1168647 C109.706313,41.1168647 110.045891,41.3761704 110.045891,41.8496851 C110.045891,42.3231999 109.740271,42.5825056 109.276181,42.5825056 L105.495547,42.5825056 L105.495547,46.7313968 L108.936603,46.7313968 C109.366735,46.7313968 109.706313,46.9907025 109.706313,47.4642172 C109.706313,47.937732 109.400693,48.1970377 108.936603,48.1970377 L105.495547,48.1970377 L105.495547,52.3459289 L105.495547,52.3233806 Z M114.052911,53.0900235 C114.052911,53.6086349 113.747291,53.9017631 113.283201,53.9017631 C112.819111,53.9017631 112.513491,53.5973607 112.513491,53.0900235 L112.513491,41.9624267 C112.513491,41.3648962 112.728557,41.0153972 113.249243,41.0153972 C113.724652,41.0153972 113.939718,41.2296063 114.36985,41.8271368 L120.776554,51.0381262 L120.821831,51.0381262 L120.821831,41.8722334 C120.821831,41.353622 121.127451,41.0604939 121.591541,41.0604939 C122.055631,41.0604939 122.361251,41.3648962 122.361251,41.8722334 L122.361251,52.9998302 C122.361251,53.5973607 122.146185,53.9468597 121.625499,53.9468597 C121.15009,53.9468597 120.935024,53.7326507 120.504892,53.1351201 L114.098188,43.9241307 L114.052911,43.9241307 L114.052911,53.0900235 Z M127.160619,42.6050539 L124.794893,42.6050539 C124.364761,42.6050539 124.025183,42.3457482 124.025183,41.8722334 C124.025183,41.3987187 124.330803,41.139413 124.794893,41.139413 L131.111043,41.139413 C131.541175,41.139413 131.880753,41.3987187 131.880753,41.8722334 C131.880753,42.3457482 131.575133,42.6050539 131.111043,42.6050539 L128.745317,42.6050539 L128.745317,53.056201 C128.745317,53.5748124 128.439696,53.8679406 127.975607,53.8679406 C127.511517,53.8679406 127.205897,53.5635383 127.205897,53.056201 L127.160619,42.6050539 L127.160619,42.6050539 L127.160619,42.6050539 Z M135.15202,53.0900235 C135.15202,53.6086349 134.8464,53.9017631 134.38231,53.9017631 C133.918221,53.9017631 133.6126,53.5973607 133.6126,53.0900235 L133.6126,41.9962492 C133.6126,41.5227345 133.872943,41.139413 134.427587,41.139413 L137.347958,41.139413 C139.328829,41.139413 141.219146,42.5148606 141.219146,44.5667579 C141.219146,47.1372666 139.62313,48.0730219 137.732813,48.1632152 L137.042338,48.2083118 L141.083315,52.6165087 C141.298381,52.8758144 141.388935,53.0449269 141.388935,53.3493292 C141.388935,53.687554 141.083315,53.9468597 140.653183,53.9468597 C140.347563,53.9468597 140.098539,53.7777473 139.917431,53.6086349 L135.061466,48.2985051 L135.15202,53.0900235 L135.15202,53.0900235 L135.15202,53.0900235 Z M135.15202,47.0132508 L137.302681,47.0132508 C138.932655,47.0132508 139.668407,46.325527 139.668407,44.7020478 C139.668407,43.5408092 138.717589,42.5599573 137.257404,42.5599573 L135.15202,42.5599573 L135.15202,47.0132508 L135.15202,47.0132508 L135.15202,47.0132508 Z M145.045058,52.3233806 L148.825692,52.3233806 C149.255824,52.3233806 149.595402,52.5826863 149.595402,53.056201 C149.595402,53.5297158 149.289782,53.7890215 148.825692,53.7890215 L144.309305,53.7890215 C143.709384,53.7890215 143.494318,53.4057 143.494318,52.9321852 L143.494318,41.9737009 C143.494318,41.5001861 143.754662,41.1168647 144.309305,41.1168647 L148.825692,41.1168647 C149.255824,41.1168647 149.595402,41.3761704 149.595402,41.8496851 C149.595402,42.3231999 149.289782,42.5825056 148.825692,42.5825056 L145.045058,42.5825056 L145.045058,46.7313968 L148.486114,46.7313968 C148.916246,46.7313968 149.255824,46.9907025 149.255824,47.4642172 C149.255824,47.937732 148.950204,48.1970377 148.486114,48.1970377 L145.045058,48.1970377 L145.045058,52.3459289 L145.045058,52.3233806 Z M153.602422,53.0900235 C153.602422,53.6086349 153.296802,53.9017631 152.832712,53.9017631 C152.368622,53.9017631 152.063002,53.5973607 152.063002,53.0900235 L152.063002,41.9962492 C152.063002,41.5227345 152.323345,41.139413 152.877989,41.139413 L155.968148,41.139413 C158.503663,41.139413 160.09968,42.9432787 160.09968,45.1191918 C160.09968,47.2951048 158.333874,49.0538739 156.013425,49.0538739 L153.523187,49.0538739 L153.613741,53.0787493 L153.613741,53.0787493 L153.602422,53.0900235 Z M153.602422,47.7347971 L155.922871,47.7347971 C157.47361,47.7347971 158.54894,46.5735585 158.54894,45.1191918 C158.54894,43.8790341 157.813188,42.469764 155.888913,42.469764 L153.613741,42.469764 L153.613741,47.7347971 L153.602422,47.7347971 Z M163.495459,53.0900235 C163.495459,53.6086349 163.189839,53.9017631 162.725749,53.9017631 C162.261659,53.9017631 161.956039,53.5973607 161.956039,53.0900235 L161.956039,41.9962492 C161.956039,41.5227345 162.216382,41.139413 162.771026,41.139413 L165.691396,41.139413 C167.672268,41.139413 169.562585,42.5148606 169.562585,44.5667579 C169.562585,47.1372666 167.966569,48.0730219 166.076251,48.1632152 L165.385776,48.2083118 L169.426754,52.6165087 C169.64182,52.8758144 169.732374,53.0449269 169.732374,53.3493292 C169.732374,53.687554 169.426754,53.9468597 168.996622,53.9468597 C168.691002,53.9468597 168.441978,53.7777473 168.26087,53.6086349 L163.404905,48.2985051 L163.495459,53.0900235 L163.495459,53.0900235 L163.495459,53.0900235 Z M163.495459,47.0132508 L165.646119,47.0132508 C167.276094,47.0132508 168.011846,46.325527 168.011846,44.7020478 C168.011846,43.5408092 167.061028,42.5599573 165.600842,42.5599573 L163.495459,42.5599573 L163.495459,47.0132508 L163.495459,47.0132508 L163.495459,47.0132508 Z M173.388496,52.3233806 L177.169131,52.3233806 C177.599263,52.3233806 177.938841,52.5826863 177.938841,53.056201 C177.938841,53.5297158 177.633221,53.7890215 177.169131,53.7890215 L172.652744,53.7890215 C172.052823,53.7890215 171.837757,53.4057 171.837757,52.9321852 L171.837757,41.9737009 C171.837757,41.5001861 172.0981,41.1168647 172.652744,41.1168647 L177.169131,41.1168647 C177.599263,41.1168647 177.938841,41.3761704 177.938841,41.8496851 C177.938841,42.3231999 177.599263,42.5825056 177.169131,42.5825056 L173.388496,42.5825056 L173.388496,46.7313968 L176.829553,46.7313968 C177.259685,46.7313968 177.599263,46.9907025 177.599263,47.4642172 C177.599263,47.937732 177.293643,48.1970377 176.829553,48.1970377 L173.388496,48.1970377 L173.388496,52.3459289 L173.388496,52.3459289 L173.388496,52.3233806 Z M182.025095,53.0900235 C182.025095,53.6086349 181.719475,53.9017631 181.255385,53.9017631 C180.791296,53.9017631 180.485675,53.5973607 180.485675,53.0900235 L180.485675,41.9624267 C180.485675,41.3648962 180.700741,41.0153972 181.221428,41.0153972 C181.696837,41.0153972 181.911903,41.2296063 182.342035,41.8271368 L188.748739,51.0381262 L188.794016,51.0381262 L188.794016,41.8722334 C188.794016,41.353622 189.099636,41.0604939 189.563726,41.0604939 C190.027816,41.0604939 190.333436,41.3648962 190.333436,41.8722334 L190.333436,52.9998302 C190.333436,53.5973607 190.11837,53.9468597 189.597683,53.9468597 C189.122274,53.9468597 188.907208,53.7326507 188.477076,53.1351201 L182.070372,43.9241307 L182.025095,43.9241307 L182.025095,53.0900235 L182.025095,53.0900235 Z M194.668714,52.3233806 L198.449348,52.3233806 C198.879481,52.3233806 199.219058,52.5826863 199.219058,53.056201 C199.219058,53.5297158 198.913438,53.7890215 198.449348,53.7890215 L193.932962,53.7890215 C193.333041,53.7890215 193.117975,53.4057 193.117975,52.9321852 L193.117975,41.9737009 C193.117975,41.5001861 193.378318,41.1168647 193.932962,41.1168647 L198.449348,41.1168647 C198.879481,41.1168647 199.219058,41.3761704 199.219058,41.8496851 C199.219058,42.3231999 198.913438,42.5825056 198.449348,42.5825056 L194.668714,42.5825056 L194.668714,46.7313968 L198.109771,46.7313968 C198.539903,46.7313968 198.879481,46.9907025 198.879481,47.4642172 C198.879481,47.937732 198.57386,48.1970377 198.109771,48.1970377 L194.668714,48.1970377 L194.668714,52.3459289 L194.668714,52.3233806 Z M201.335761,41.8722334 C201.335761,41.353622 201.641381,41.0604939 202.105471,41.0604939 C202.569561,41.0604939 202.875181,41.3648962 202.875181,41.8722334 L202.875181,49.4033729 C202.875181,51.376351 204.256131,52.5714121 206.225683,52.5714121 C208.195235,52.5714121 209.576186,51.4101735 209.576186,49.4033729 L209.576186,41.8722334 C209.576186,41.353622 209.881806,41.0604939 210.345896,41.0604939 C210.809986,41.0604939 211.115606,41.3648962 211.115606,41.8722334 L211.115606,48.7607457 C211.115606,53.0449269 208.365024,53.9017631 206.169087,53.9017631 C203.97315,53.9017631 201.222568,53.0449269 201.222568,48.7607457 L201.313122,41.8722334 L201.313122,41.8722334 L201.335761,41.8722334 Z M215.269776,53.0900235 C215.269776,53.6086349 214.964156,53.9017631 214.500066,53.9017631 C214.035976,53.9017631 213.730356,53.5973607 213.730356,53.0900235 L213.730356,41.9962492 C213.730356,41.5227345 213.990699,41.139413 214.545343,41.139413 L217.465713,41.139413 C219.446584,41.139413 221.336902,42.5148606 221.336902,44.5667579 C221.336902,47.1372666 219.740885,48.0730219 217.850568,48.1632152 L217.160093,48.2083118 L221.201071,52.6165087 C221.416137,52.8758144 221.506691,53.0449269 221.506691,53.3493292 C221.506691,53.687554 221.201071,53.9468597 220.770938,53.9468597 C220.465318,53.9468597 220.216294,53.7777473 220.035186,53.6086349 L215.179222,48.2985051 L215.269776,53.0900235 L215.269776,53.0900235 L215.269776,53.0900235 Z M215.269776,47.0132508 L217.420436,47.0132508 C219.05041,47.0132508 219.786162,46.325527 219.786162,44.7020478 C219.786162,43.5408092 218.835344,42.5599573 217.375159,42.5599573 L215.269776,42.5599573 L215.269776,47.0132508 L215.269776,47.0132508 L215.269776,47.0132508 Z M229.928224,42.5148606 C229.928224,42.8981821 229.66788,43.2025844 229.237748,43.2025844 C228.547273,43.2025844 228.28693,42.3908448 226.74751,42.3908448 C225.581626,42.3908448 224.721362,43.1236653 224.721362,44.1947106 C224.721362,47.024525 230.788488,45.6490773 230.788488,49.8881618 C230.788488,51.9851557 229.237748,53.8679406 226.487167,53.8679406 C224.811916,53.8679406 222.966876,53.2253134 222.966876,52.3233806 C222.966876,51.8949624 223.181942,51.5567376 223.612074,51.5567376 C224.166718,51.5567376 224.90247,52.5375896 226.487167,52.5375896 C228.071864,52.5375896 229.113237,51.376351 229.113237,49.9670809 C229.113237,46.9681542 223.046111,48.4225209 223.046111,44.2736297 C223.046111,42.819263 224.461019,41.0153972 226.781468,41.0153972 C228.377484,41.0604939 229.916904,41.703121 229.916904,42.5148606 L229.928224,42.5148606 Z M234.354056,52.9660077 C234.354056,53.5635383 234.048436,53.9130372 233.584346,53.9130372 C233.120256,53.9130372 232.814636,53.6086349 232.814636,52.9660077 L232.814636,42.0075234 C232.814636,41.4099928 233.120256,41.0604939 233.584346,41.0604939 C234.048436,41.0604939 234.354056,41.3648962 234.354056,42.0075234 L234.354056,46.7990417 L241.055061,46.7990417 L241.055061,42.0075234 C241.055061,41.4099928 241.360681,41.0604939 241.824771,41.0604939 C242.288861,41.0604939 242.594481,41.3648962 242.594481,42.0075234 L242.594481,52.9660077 C242.594481,53.5635383 242.288861,53.9130372 241.824771,53.9130372 C241.360681,53.9130372 241.055061,53.6086349 241.055061,52.9660077 L241.055061,48.1293927 L234.354056,48.1293927 L234.354056,52.9660077 Z M247.246699,53.0900235 C247.246699,53.6086349 246.941078,53.9017631 246.476989,53.9017631 C246.012899,53.9017631 245.707279,53.5973607 245.707279,53.0900235 L245.707279,41.8722334 C245.707279,41.353622 246.012899,41.0604939 246.476989,41.0604939 C246.941078,41.0604939 247.246699,41.3648962 247.246699,41.8722334 L247.246699,53.0900235 Z M251.502742,53.0900235 C251.502742,53.6086349 251.197122,53.9017631 250.733032,53.9017631 C250.268942,53.9017631 249.963322,53.5973607 249.963322,53.0900235 L249.963322,41.9962492 C249.963322,41.5227345 250.223665,41.139413 250.778309,41.139413 L253.868468,41.139413 C256.403984,41.139413 258,42.9432787 258,45.1191918 C258,47.2951048 256.234195,49.0538739 253.913745,49.0538739 L251.468784,49.0538739 L251.514061,53.0787493 L251.514061,53.0787493 L251.502742,53.0900235 Z M251.502742,47.7347971 L253.823191,47.7347971 C255.373931,47.7347971 256.449261,46.5735585 256.449261,45.1191918 C256.449261,43.8790341 255.713509,42.469764 253.789234,42.469764 L251.514061,42.469764 L251.514061,47.7347971 L251.514061,47.7347971 L251.502742,47.7347971 Z M105.484228,68.8513004 C105.484228,69.3699118 105.178607,69.66304 104.714518,69.66304 C104.250428,69.66304 103.944808,69.3586376 103.944808,68.8513004 L103.944808,57.7237036 C103.944808,57.1261731 104.159874,56.7766741 104.68056,56.7766741 C105.155969,56.7766741 105.371035,56.9908832 105.801167,57.5884137 L112.207871,66.7994031 L112.253148,66.7994031 L112.253148,57.6335103 C112.253148,57.1148989 112.558768,56.8217707 113.022858,56.8217707 C113.486948,56.8217707 113.792568,57.1261731 113.792568,57.6335103 L113.792568,68.7611071 C113.792568,69.3586376 113.577502,69.7081366 113.056816,69.7081366 C112.581407,69.7081366 112.366341,69.4939276 111.936208,68.896397 L105.529505,59.6854076 L105.484228,59.6854076 L105.484228,68.8513004 Z M117.822226,68.0846574 L121.602861,68.0846574 C122.032993,68.0846574 122.372571,68.3439631 122.372571,68.8174779 C122.372571,69.2909927 122.06695,69.5502984 121.602861,69.5502984 L117.086474,69.5502984 C116.486553,69.5502984 116.271487,69.1669769 116.271487,68.6934621 L116.271487,57.7349778 C116.271487,57.261463 116.53183,56.8781415 117.086474,56.8781415 L121.602861,56.8781415 C122.032993,56.8781415 122.372571,57.1374472 122.372571,57.610962 C122.372571,58.0844768 122.06695,58.3437825 121.602861,58.3437825 L117.822226,58.3437825 L117.822226,62.4926737 L121.263283,62.4926737 C121.693415,62.4926737 122.032993,62.7519794 122.032993,63.2254941 C122.032993,63.6990089 121.727372,63.9583146 121.263283,63.9583146 L117.822226,63.9583146 L117.822226,68.1072058 L117.822226,68.0846574 Z M126.809722,58.3212341 L124.443996,58.3212341 C124.013864,58.3212341 123.674286,58.0619284 123.674286,57.5884137 C123.674286,57.1148989 123.979906,56.8555932 124.443996,56.8555932 L130.760146,56.8555932 C131.190278,56.8555932 131.529856,57.1148989 131.529856,57.5884137 C131.529856,58.0619284 131.224236,58.3212341 130.760146,58.3212341 L128.394419,58.3212341 L128.394419,68.7723813 C128.394419,69.2909927 128.088799,69.5841208 127.624709,69.5841208 C127.160619,69.5841208 126.854999,69.2797185 126.854999,68.7723813 L126.809722,58.3212341 L126.809722,58.3212341 L126.809722,58.3212341 Z M138.627035,57.4193013 C138.751547,56.9457865 139.057167,56.8217707 139.396745,56.8217707 C139.7816,56.8217707 140.041943,56.9457865 140.166455,57.4193013 L143.086825,67.6562393 L143.132102,67.6562393 L144.762076,57.5545912 C144.85263,57.0359798 145.146931,56.8217707 145.62234,56.8217707 C146.052472,56.8217707 146.358092,57.1261731 146.358092,57.5545912 C146.358092,57.7688003 146.312815,57.9830093 146.267538,58.3212341 L144.331944,68.6370913 C144.24139,69.1895252 143.992366,69.66304 143.211337,69.66304 C142.611416,69.66304 142.226561,69.4939276 141.966218,68.6370913 L139.340148,59.3922794 L139.294871,59.3922794 L136.668802,68.6370913 C136.408459,69.4939276 136.068881,69.66304 135.423683,69.66304 C134.653973,69.66304 134.39363,69.1895252 134.303076,68.6370913 L132.367481,58.3212341 C132.276927,57.9379127 132.276927,57.7237036 132.276927,57.5545912 C132.276927,57.1712697 132.53727,56.8217707 133.012679,56.8217707 C133.488088,56.8217707 133.782389,57.0359798 133.872943,57.5545912 L135.502918,67.6562393 L135.548195,67.6562393 L138.604396,57.4193013 L138.627035,57.4193013 Z M153.115693,56.7766741 C156.771816,56.7766741 158.662133,59.8996167 158.662133,63.2029458 C158.662133,66.5062749 156.681262,69.6292175 153.115693,69.6292175 C149.550125,69.6292175 147.569254,66.5062749 147.569254,63.2029458 C147.523977,59.9447133 149.459571,56.7766741 153.115693,56.7766741 Z M153.115693,68.332689 C155.956829,68.332689 156.986882,65.6832612 156.986882,63.2367683 C156.986882,60.7902754 155.956829,58.1408476 153.115693,58.1408476 C150.274558,58.1408476 149.244505,60.7902754 149.244505,63.2367683 C149.244505,65.6832612 150.229281,68.332689 153.115693,68.332689 L153.115693,68.332689 Z M162.10319,68.8513004 C162.10319,69.3699118 161.797569,69.66304 161.33348,69.66304 C160.86939,69.66304 160.56377,69.3586376 160.56377,68.8513004 L160.56377,57.7575261 C160.56377,57.2840113 160.824113,56.9006899 161.378757,56.9006899 L164.299127,56.9006899 C166.279998,56.9006899 168.170315,58.2761375 168.170315,60.3280348 C168.170315,62.8985434 166.574299,63.8342988 164.683982,63.9244921 L163.993507,63.9695887 L168.034484,68.3777856 C168.24955,68.6370913 168.340104,68.8062037 168.340104,69.1106061 C168.340104,69.4488309 168.034484,69.7081366 167.604352,69.7081366 C167.298732,69.7081366 167.049708,69.5390242 166.8686,69.3699118 L162.012635,64.059782 L162.10319,68.8513004 L162.10319,68.8513004 L162.10319,68.8513004 Z M162.10319,62.729431 L164.25385,62.729431 C165.883824,62.729431 166.619576,62.0417072 166.619576,60.4182281 C166.619576,59.2569895 165.668758,58.2761375 164.208573,58.2761375 L162.10319,58.2761375 L162.10319,62.729431 L162.10319,62.729431 L162.10319,62.729431 Z M171.815119,68.8513004 C171.815119,69.3699118 171.509499,69.66304 171.045409,69.66304 C170.581319,69.66304 170.275699,69.3586376 170.275699,68.8513004 L170.275699,57.6335103 C170.275699,57.1148989 170.581319,56.8217707 171.045409,56.8217707 C171.509499,56.8217707 171.815119,57.1261731 171.815119,57.6335103 L171.815119,62.2559163 L177.271004,57.2840113 C177.531347,57.0247056 177.825648,56.7653999 178.131268,56.7653999 C178.516123,56.7653999 178.821744,57.0247056 178.821744,57.4531238 C178.821744,57.8815419 178.697232,58.0055576 178.516123,58.1859442 L173.275304,62.8534468 L178.991532,68.332689 C179.251876,68.5919947 179.297153,68.7611071 179.297153,68.9753162 C179.297153,69.3586376 178.957575,69.66304 178.527443,69.66304 C178.2671,69.66304 178.097311,69.6179433 177.757733,69.3248151 L171.826438,63.496074 L171.826438,68.8513004 L171.826438,68.8513004 L171.815119,68.8513004 Z" id="Shape" fill="#2B2B2B" fill-rule="nonzero"></path>
                </g>
            </g>
        </g>
    </g>
</svg>