<?xml version="1.0" encoding="UTF-8"?>
<svg width="30px" height="30px" viewBox="0 0 30 30" version="1.1" xmlns="http://www.w3.org/2000/svg" xmlns:xlink="http://www.w3.org/1999/xlink">
    <title>ic_phone_call</title>
    <g id="Page-1" stroke="none" stroke-width="1" fill="none" fill-rule="evenodd">
        <g id="website" transform="translate(-704.000000, -20.000000)" fill="#FFFFFF" fill-rule="nonzero">
            <g id="ic_phone_call" transform="translate(704.000000, 20.000000)">
                <path d="M25.6050023,4.391793 C19.7462764,-1.46517101 10.2487642,-1.46376476 4.39179609,4.39501566 C-1.46517203,10.2537961 -1.46376578,19.751243 4.39501874,25.608207 C10.2538033,31.465171 19.7512568,31.4637648 25.608225,25.6049843 C28.4210743,22.791258 30.0008778,18.9753457 30,14.9967773 C29.9991786,11.0188535 28.4182618,7.20417167 25.6050023,4.391793 Z M22.7169772,20.8948155 C22.7163327,20.89546 22.7156881,20.8961632 22.714985,20.8968077 L22.714985,20.8918272 L21.9549661,21.6468066 C20.9720567,22.6421372 19.5405539,23.0516483 18.1799495,22.726805 C16.8091497,22.3598915 15.5060258,21.7758298 14.319972,20.9968271 C13.2180588,20.2925898 12.1968877,19.4693489 11.2749743,18.5418112 C10.4267133,17.6997616 9.66464356,16.7751536 8.99995658,15.7818153 C8.27292589,14.7129496 7.69747712,13.5485764 7.2899579,12.3218008 C6.8227903,10.8806311 7.2099189,9.2992467 8.28997666,8.23682639 L9.17995644,7.34684724 C9.42739765,7.09829292 9.82946765,7.09741401 10.0779636,7.34485505 C10.0786081,7.34549958 10.0793112,7.34614411 10.0799557,7.34684724 L12.889934,10.1568236 C13.1384885,10.4042646 13.1393674,10.8063343 12.8919262,11.05483 C12.8912817,11.0554746 12.8906372,11.0561191 12.889934,11.0568222 L11.2399353,12.7068198 C10.7664982,13.1751004 10.706967,13.9192399 11.099955,14.4568367 C11.6967318,15.275859 12.3571415,16.0465414 13.074973,16.7618529 C13.8753044,17.5656407 14.7453623,18.2968311 15.6749514,18.9468692 C16.2120799,19.3215171 16.9402825,19.2583531 17.4049305,18.7968694 L18.9999098,17.1768718 C19.247351,16.9283175 19.649421,16.9274386 19.8979169,17.1748796 C19.8985614,17.1755241 19.8992059,17.1761687 19.8999091,17.1768718 L22.7149264,19.9968676 C22.9635395,20.2442501 22.9644184,20.6462612 22.7169772,20.8948155 Z" id="Shape"></path>
            </g>
        </g>
    </g>
</svg>