<?xml version="1.0" encoding="UTF-8"?>
<svg width="103px" height="102px" viewBox="0 0 103 102" version="1.1" xmlns="http://www.w3.org/2000/svg" xmlns:xlink="http://www.w3.org/1999/xlink">
    <title>research</title>
    <g id="Page-1" stroke="none" stroke-width="1" fill="none" fill-rule="evenodd" opacity="0.699999988">
        <g id="website" transform="translate(-442.000000, -3607.000000)" fill="#3F3E3F" fill-rule="nonzero">
            <g id="Group-5" transform="translate(367.240343, 3579.000000)">
                <path d="M151.5,84.0526586 C162.72,84.0526586 171.9,93.2249118 171.9,104.435444 C171.9,108.002431 170.88,111.569418 168.84,114.626836 L175.47,121.251241 C177.51,123.28952 177.51,126.346937 175.47,128.385216 C172.41,131.442634 169.35,129.404355 168.33,128.385216 L161.7,121.760811 C158.64,123.799089 155.07,124.818228 151.5,124.818228 C140.28,124.818228 131.1,115.645975 131.1,104.435444 C131.1,93.2249118 140.28,84.0526586 151.5,84.0526586 Z M151.5,28 C154.56,28 156.6,30.0382785 156.6,33.0956962 L156.6,74.3708357 C155.07,73.8612661 153.03,73.8612661 151.5,73.8612661 C134.67,73.8612661 120.9,87.6196459 120.9,104.435444 C120.9,115.136406 126.51,124.308659 134.67,129.913925 L80.1,129.913925 C77.04,129.913925 75,127.875646 75,124.818228 L75,33.0956962 C75,30.0382785 77.04,28 80.1,28 Z M151.5,94.244051 C145.89,94.244051 141.3,98.8301777 141.3,104.435444 C141.3,110.040709 145.89,114.626836 151.5,114.626836 C157.11,114.626836 161.7,110.040709 161.7,104.435444 C161.7,98.8301777 157.11,94.244051 151.5,94.244051 Z M115.8,58.5741774 L90.3,58.5741774 C87.24,58.5741774 85.2,60.6124559 85.2,63.6698736 C85.2,66.2177218 87.24,68.7655699 90.3,68.7655699 L115.8,68.7655699 C118.86,68.7655699 120.9,66.2177218 120.9,63.6698736 C120.9,60.6124559 118.86,58.5741774 115.8,58.5741774 Z M141.3,38.1913925 L90.3,38.1913925 C87.24,38.1913925 85.2,40.229671 85.2,43.2870887 C85.2,45.8349368 87.24,48.3827849 90.3,48.3827849 L141.3,48.3827849 C144.36,48.3827849 146.4,45.8349368 146.4,43.2870887 C146.4,40.229671 144.36,38.1913925 141.3,38.1913925 Z" id="research"></path>
            </g>
        </g>
    </g>
</svg>