<?xml version="1.0" encoding="UTF-8"?>
<svg width="560px" height="829px" viewBox="0 0 560 829" version="1.1" xmlns="http://www.w3.org/2000/svg" xmlns:xlink="http://www.w3.org/1999/xlink">
    <title>target</title>
    <g id="Page-1" stroke="none" stroke-width="1" fill="none" fill-rule="evenodd">
        <g id="website" transform="translate(-680.000000, -2332.000000)">
            <g id="target" transform="translate(680.000000, 2332.000000)">
                <g id="Group" transform="translate(281.736883, 195.445513)">
                    <g transform="translate(0.000000, 29.690088)" id="Path" stroke-width="0.984">
                        <line x1="66.066425" y1="0.951605381" x2="0" y2="0.951605381" stroke="#D7C8B4"></line>
                        <line x1="96.7910178" y1="306.870912" x2="0" y2="306.870912" stroke="#D7C8B4"></line>
                        <line x1="122.138332" y1="173.132292" x2="0" y2="173.132292" stroke="#515151"></line>
                    </g>
                    <path d="M71.6337136,30.6416933 C71.6337136,33.7058626 69.1445846,36.1990687 66.085426,36.1990687 C63.0262674,36.1990687 60.5371384,33.7058626 60.5371384,30.6416933 C60.5371384,27.5775239 63.0262674,25.0843178 66.085426,25.0843178 C69.1445846,25.0843178 71.6337136,27.5775239 71.6337136,30.6416933 Z" id="Path" fill="#D7C8B4" fill-rule="nonzero"></path>
                    <path d="M127.686619,202.82238 C127.686619,205.905581 125.19749,208.379755 122.138332,208.379755 C119.079173,208.379755 116.590044,205.886549 116.590044,202.82238 C116.590044,199.758211 119.079173,197.265004 122.138332,197.265004 C125.19749,197.265004 127.686619,199.758211 127.686619,202.82238 Z" id="Path" fill="#515151" fill-rule="nonzero"></path>
                    <path d="M102.358306,336.561 C102.358306,339.644202 99.8691774,342.137408 96.8100188,342.137408 C93.7508602,342.137408 91.2617312,339.644202 91.2617312,336.561 C91.2617312,333.477799 93.7508602,331.003625 96.8100188,331.003625 C99.8691774,331.003625 102.358306,333.496831 102.358306,336.561 Z" id="Path" fill="#D7C8B4" fill-rule="nonzero"></path>
                    <g transform="translate(114.480935, 306.680591)" fill="#D7C8B4" fill-rule="nonzero" id="Path">
                        <path d="M57.0219561,28.5671935 C57.0219561,44.3448107 44.2532942,57.115355 28.5204786,57.115355 C12.7876629,57.115355 0,44.3257786 0,28.5671935 C0,12.8086084 12.7686619,0 28.5204786,0 C44.2722952,0 57.0219561,12.7895763 57.0219561,28.5671935 Z"></path>
                    </g>
                    <g transform="translate(137.282117, 172.694554)" fill="#515151" fill-rule="nonzero" id="Path">
                        <path d="M57.0409571,28.5671935 C57.0409571,44.3448107 44.2722952,57.1343871 28.5204786,57.1343871 C12.7686619,57.1343871 0,44.3448107 0,28.5671935 C0,12.7895763 12.7686619,0 28.5204786,0 C44.2722952,0 57.0409571,12.7895763 57.0409571,28.5671935 Z"></path>
                    </g>
                    <g transform="translate(84.003355, 0.000000)" fill="#D7C8B4" fill-rule="nonzero" id="Path">
                        <path d="M57.0409571,28.5671935 C57.0409571,44.3448107 44.2722952,57.1343871 28.5204786,57.1343871 C12.7686619,57.1343871 0,44.3448107 0,28.5671935 C0,12.7895763 12.7686619,0 28.5204786,0 C44.2722952,0 57.0409571,12.7895763 57.0409571,28.5671935 Z"></path>
                    </g>
                </g>
                <line x1="188.822066" y1="174.11936" x2="279.228753" y2="174.11936" id="Path" stroke="#515151" stroke-width="0.984"></line>
                <g id="Group-3" transform="translate(106.240728, 407.440243)">
                    <line x1="82.4863338" y1="40.5984239" x2="172.988026" y2="40.5984239" id="Path" stroke="#515151" stroke-width="0.984"></line>
                    <path d="M88.0536224,40.5984239 C88.0536224,43.6816253 85.5644934,46.1748314 82.5053348,46.1748314 C79.4461762,46.1748314 76.9570472,43.6816253 76.9570472,40.5984239 C76.9570472,37.5152224 79.4461762,35.0410484 82.5053348,35.0410484 C85.5644934,35.0410484 88.0536224,37.5342545 88.0536224,40.5984239 Z" id="Path" fill="#515151" fill-rule="nonzero"></path>
                    <ellipse id="Oval" fill="#515151" fill-rule="nonzero" transform="translate(40.336147, 40.336349) rotate(-47.240000) translate(-40.336147, -40.336349) " cx="40.3361474" cy="40.336349" rx="28.5456702" ry="28.5420213"></ellipse>
                </g>
                <g id="Group-2" transform="translate(64.753747, 280.529215)">
                    <line x1="71.7586071" y1="29.7708314" x2="214.475006" y2="29.7708314" id="Path" stroke="#D7C8B4" stroke-width="0.984"></line>
                    <path d="M77.3068947,29.7708314 C77.3068947,32.8350007 74.8177657,35.3282068 71.7586071,35.3282068 C68.6994485,35.3282068 66.2103195,32.8350007 66.2103195,29.7708314 C66.2103195,26.7066621 68.6994485,24.213456 71.7586071,24.213456 C74.8177657,24.213456 77.3068947,26.7066621 77.3068947,29.7708314 Z" id="Path" fill="#D7C8B4" fill-rule="nonzero"></path>
                    <ellipse id="Oval" fill="#D7C8B4" fill-rule="nonzero" transform="translate(28.871994, 28.918040) rotate(-0.710000) translate(-28.871994, -28.918040) " cx="28.8719939" cy="28.9180398" rx="28.5201972" ry="28.5668245"></ellipse>
                </g>
                <g id="Group-2" transform="translate(64.753747, 559.529215)">
                    <line x1="71.7586071" y1="29.7708314" x2="214.475006" y2="29.7708314" id="Path" stroke="#D7C8B4" stroke-width="0.984"></line>
                    <path d="M77.3068947,29.7708314 C77.3068947,32.8350007 74.8177657,35.3282068 71.7586071,35.3282068 C68.6994485,35.3282068 66.2103195,32.8350007 66.2103195,29.7708314 C66.2103195,26.7066621 68.6994485,24.213456 71.7586071,24.213456 C74.8177657,24.213456 77.3068947,26.7066621 77.3068947,29.7708314 Z" id="Path" fill="#D7C8B4" fill-rule="nonzero"></path>
                    <ellipse id="Oval" fill="#D7C8B4" fill-rule="nonzero" transform="translate(28.871994, 28.918040) rotate(-0.710000) translate(-28.871994, -28.918040) " cx="28.8719939" cy="28.9180398" rx="28.5201972" ry="28.5668245"></ellipse>
                </g>
                <path d="M196.593469,173.148722 C196.593469,176.212891 194.10434,178.706098 191.045182,178.706098 C187.986023,178.706098 185.496894,176.212891 185.496894,173.148722 C185.496894,170.084553 187.986023,167.591347 191.045182,167.591347 C194.10434,167.591347 196.593469,170.084553 196.593469,173.148722 Z" id="Path" fill="#515151" fill-rule="nonzero"></path>
                <g id="Group" transform="translate(64.753747, 280.529215)"></g>
                <g id="Group" transform="translate(119.867492, 144.048630)" fill="#515151" fill-rule="nonzero">
                    <path d="M57.0409571,28.5671935 C57.0409571,44.3448107 44.2722952,57.1343871 28.5204786,57.1343871 C12.7686619,57.1343871 0,44.3448107 0,28.5671935 C0,12.7895763 12.7686619,0 28.5204786,0 C44.2722952,0 57.0409571,12.7895763 57.0409571,28.5671935 Z" id="Path"></path>
                </g>
                <g id="Group" transform="translate(106.240728, 545.440243)"></g>
                <g id="Group" fill-rule="nonzero">
                    <g transform="translate(0.000000, 673.282032)">
                        <g>
                            <path d="M559.922181,88.9980171 C559.998273,88.0269219 560.017296,87.0558267 559.922181,86.0656905 L559.960227,70.0521405 L550.981436,70.0521405 C550.353681,69.4428259 549.706904,68.8525524 549.003058,68.2432377 C513.658578,37.7775066 396.591877,18.3936852 280.000747,18.3936852 C163.409618,18.3936852 46.3429166,37.7775066 10.9984365,68.2432377 C10.4657963,68.7002237 9.97120185,69.1762508 9.47660741,69.6332367 L0,69.6332367 C0,69.6332367 0.117358637,85.5896634 0.117358637,85.5896634 C-0.0538471332,87.0177446 -0.0348242699,88.4458257 0.155404364,89.8739069 L0.155404364,89.8739069 C0.155404364,89.8739069 0.155404364,89.8739069 0.155404364,89.8739069 C4.72089157,124.166895 110.830423,155.717968 280.000747,155.717968 C449.171071,155.717968 556.878523,123.671827 559.922181,89.0932225 L559.922181,89.0932225 L559.922181,88.9980171 L559.922181,88.9980171 Z" id="Path" fill="#B2A088"></path>
                            <path d="M280.000747,1.99931361 C168.621882,1.99931361 56.8245143,20.5262864 23.0589318,49.6210596 C-22.7291002,89.0932225 84.5978948,133.173327 280.000747,133.173327 C475.4036,133.173327 582.730595,89.0932225 536.942562,49.6210596 C503.17698,20.5262864 391.379612,1.99931361 280.000747,1.99931361 Z" id="Path" fill="#FFFFFF"></path>
                            <g transform="translate(0.007800, 0.000000)" fill="#D7C8B4">
                                <path d="M279.992947,0 C163.401817,0 46.3351164,19.3838214 10.9906362,49.8495526 C-36.9469794,91.1687004 75.4210744,137.324283 279.992947,137.324283 C484.564819,137.324283 596.951896,91.1687004 548.995258,49.8495526 C513.650777,19.3838214 396.584076,0 279.992947,0 Z M279.992947,104.440335 C131.272201,104.440335 40.11464,73.9936445 68.6299122,44.5370907 C91.076891,21.3260118 183.94651,5.84561216 279.992947,5.84561216 C376.039384,5.84561216 468.909003,21.3260118 491.355982,44.5370907 C519.871254,73.9936445 428.713693,104.440335 279.992947,104.440335 Z" id="Shape"></path>
                                <path d="M279.992947,12.3767033 C204.87166,12.3767033 134.943614,24.8295709 122.065135,42.6329825 C106.675639,63.9209121 176.071044,84.4852807 279.992947,84.4852807 C383.914849,84.4852807 453.310255,63.9209121 437.920758,42.6329825 C425.04228,24.8105298 355.114234,12.3767033 279.992947,12.3767033 Z M279.992947,70.4710443 C206.374466,70.4710443 153.034357,56.4187258 160.110862,40.8240797 C166.445476,26.8669666 219.861676,16.6038235 279.992947,16.6038235 C340.124218,16.6038235 393.540418,26.8669666 399.875032,40.8240797 C406.951537,56.4187258 353.611428,70.4710443 279.992947,70.4710443 Z" id="Shape"></path>
                                <path d="M349.920993,37.0349044 C352.051553,45.8890075 320.796989,53.4673581 279.992947,53.4673581 C239.188905,53.4673581 207.934341,45.8890075 210.064901,37.0349044 C212.081325,28.6949105 243.335889,22.2780659 279.992947,22.2780659 C316.650005,22.2780659 347.923592,28.6949105 349.920993,37.0349044 Z" id="Path"></path>
                            </g>
                        </g>
                        <path d="M281.922056,38.4058623 L391.664955,5.94081757 C384.45529,5.16013321 377.15051,4.4365721 369.731594,3.80821639 L279.239833,36.2542201 C278.669147,36.4446309 275.986923,37.4157261 278.326735,37.872712 C278.326735,37.872712 281.35137,38.6153142 281.922056,38.4249034 L281.922056,38.4058623 Z" id="Path" fill="#939598" opacity="0.4" style="mix-blend-mode: multiply;"></path>
                    </g>
                    <g transform="translate(241.859906, 0.000000)">
                        <path d="M40.6138133,12.8717714 L75.4827218,1.35191682 L75.4827218,74.2602196 C75.4827218,74.2602196 74.5125558,105.716087 40.6138133,121.063199 L40.6138133,12.8717714 Z" id="Path" fill="#155B3F"></path>
                        <path d="M34.8689085,12.8717714 L0,1.35191682 L0,74.2602196 C0,74.2602196 0.970166031,105.716087 34.8689085,121.063199 L34.8689085,12.8717714 Z" id="Path" fill="#0A412B"></path>
                        <rect id="Rectangle" fill="#3F3E3F" x="34.659657" y="0" width="6.3346135" height="711" rx="1.8"></rect>
                    </g>
                </g>
            </g>
        </g>
    </g>
</svg>