<?xml version="1.0" encoding="UTF-8"?>
<svg width="30px" height="30px" viewBox="0 0 30 30" version="1.1" xmlns="http://www.w3.org/2000/svg" xmlns:xlink="http://www.w3.org/1999/xlink">
    <title>ic_twitter</title>
    <g id="Page-1" stroke="none" stroke-width="1" fill="none" fill-rule="evenodd">
        <g id="main" transform="translate(-464.000000, -21.000000)" fill-rule="nonzero">
            <g id="ic_twitter" transform="translate(464.000000, 21.000000)">
                <path d="M15,0 C6.71572875,0 0,6.71572875 0,15 C0,23.2842712 6.71572875,30 15,30 C23.2842712,30 30,23.2842712 30,15 C30,6.71572875 23.2842712,0 15,0 L15,0 Z" id="Path" fill="#FFFFFF"></path>
                <path d="M22.4703947,10.4605263 C22.1158426,10.9931194 21.6826361,11.4689146 21.1855263,11.8717105 C21.0586128,11.9774793 20.9861132,12.1348035 20.9881579,12.3 L20.9881579,12.3493421 C20.98237,13.4189624 20.7858727,14.4789786 20.4078947,15.4796053 C20.0184252,16.5298379 19.439789,17.499806 18.7006579,18.3414474 C17.7074026,19.4721817 16.4296543,20.3165178 15,20.7868421 C14.0605853,21.0917381 13.0784287,21.2443255 12.0907895,21.2388158 C10.5239536,21.2386217 8.98505391,20.8239359 7.63026316,20.0368421 C7.53050931,19.9801272 7.48054161,19.8640731 7.50789474,19.7526316 C7.53600427,19.6428152 7.63533033,19.5662853 7.74868421,19.5671053 L8.12368421,19.5671053 C9.31427812,19.5691886 10.4784138,19.2159621 11.4671053,18.5526316 C10.2663212,18.3565701 9.27593744,17.5056019 8.90131579,16.3480263 C8.88219331,16.2901464 8.89557592,16.2264571 8.93637654,16.1811684 C8.97717716,16.1358797 9.03912963,16.1159471 9.09868421,16.1289474 C9.2783024,16.162742 9.46065166,16.1799198 9.64342105,16.1802632 L9.7125,16.1802632 C8.54922761,15.646392 7.80914029,14.4778738 7.82368421,13.1980263 C7.82409777,13.138403 7.8557651,13.083369 7.90710564,13.0530498 C7.95844617,13.0227305 8.02193026,13.0215728 8.07434211,13.05 C8.30588223,13.1792717 8.55433139,13.2755956 8.8125,13.3361842 C7.76393234,12.2981103 7.54893374,10.6827812 8.28947368,9.40657895 C8.31751777,9.35844783 8.36739347,9.32714073 8.42292997,9.32280809 C8.47846648,9.31847546 8.53259398,9.34166883 8.56776316,9.38486842 C10.009385,11.1661427 12.1100699,12.2887385 14.3921053,12.4973684 L14.4078947,12.4973684 C14.4414426,12.4963962 14.4731187,12.4816877 14.4955085,12.4566857 C14.5178983,12.4316838 14.5290365,12.3985831 14.5263158,12.3651316 C14.4823751,11.9690341 14.5077543,11.5683101 14.6013158,11.1809211 C14.8603411,10.109885 15.661808,9.25298951 16.7131579,8.92302632 C17.0447813,8.81943649 17.3900756,8.76621194 17.7375,8.76512943 C18.5252506,8.76422322 19.2861608,9.05131941 19.8769737,9.57236842 C19.9535137,9.64084329 20.0525638,9.67877736 20.1552632,9.67894737 C20.1885863,9.67823376 20.2217094,9.67359654 20.2539474,9.66513158 C20.8087153,9.52469155 21.3404531,9.30534972 21.8328947,9.01381579 C21.8932205,8.97660391 21.9704237,8.98132011 22.0257714,9.02559825 C22.0811191,9.0698764 22.1026673,9.14416136 22.0796053,9.21118421 C21.9153656,9.72786176 21.6226753,10.1944007 21.2289474,10.5671053 C21.5839024,10.483438 21.9301732,10.3664725 22.2631579,10.2177632 C22.3300559,10.1926464 22.4055201,10.2121174 22.4519149,10.2664655 C22.4983096,10.3208136 22.5056978,10.3983983 22.4703947,10.4605263 L22.4703947,10.4605263 Z" id="Path" fill="#186E4B"></path>
            </g>
        </g>
    </g>
</svg>