<?xml version="1.0" encoding="UTF-8"?>
<svg width="412px" height="412px" viewBox="0 0 412 412" version="1.1" xmlns="http://www.w3.org/2000/svg" xmlns:xlink="http://www.w3.org/1999/xlink">
    <title>values</title>
    <defs>
        <polygon id="path-1" points="0 0 73 0 73 73 0 73"></polygon>
        <polygon id="path-3" points="0 0 73 0 73 73 0 73"></polygon>
    </defs>
    <g id="Page-1" stroke="none" stroke-width="1" fill="none" fill-rule="evenodd">
        <g id="website" transform="translate(-754.000000, -1450.000000)">
            <g id="values" transform="translate(754.000000, 1450.000000)">
                <path d="M283.767586,274.135306 L330.920959,321.22331 C336.406752,326.701331 345.428473,326.137016 350.258559,320.07027 C403.247147,253.535651 403.247147,158.463631 350.258559,91.9290122 C345.429911,85.8637017 336.40819,85.2979507 330.922397,90.7774073 L283.767586,137.865411 C279.335813,142.290905 278.770698,149.21633 282.303749,154.387065 C303.519316,185.427268 303.519316,226.57345 282.303749,257.613653 C278.770698,262.785824 279.334375,269.709812 283.767586,274.135306" id="Fill-1" fill="#D7C8B4"></path>
                <path d="M329.628951,198.530123 C329.628951,196.9049 329.442149,195.411646 329.070005,194.050361 C328.697861,192.689075 328.171022,191.520005 327.488028,190.546018 C326.806494,189.570598 326.000912,188.817516 325.069823,188.289641 C324.138733,187.761766 323.115702,187.497829 321.99927,187.497829 C320.841976,187.497829 319.798513,187.761766 318.868883,188.289641 C317.937794,188.817516 317.130752,189.570598 316.450677,190.546018 C315.767684,191.520005 315.240845,192.689075 314.868701,194.050361 C314.496557,195.411646 314.309755,196.9049 314.309755,198.530123 C314.309755,200.156781 314.496557,201.638559 314.868701,202.981197 C315.240845,204.320966 315.767684,205.479995 316.450677,206.453982 C317.130752,207.429402 317.937794,208.182484 318.868883,208.710359 C319.798513,209.238234 320.841976,209.502171 321.99927,209.502171 C323.115702,209.502171 324.138733,209.238234 325.069823,208.710359 C326.000912,208.182484 326.806494,207.429402 327.488028,206.453982 C328.171022,205.479995 328.697861,204.320966 329.070005,202.981197 C329.442149,201.638559 329.628951,200.156781 329.628951,198.530123 M338,198.530123 C338,201.21253 337.597209,203.681205 336.791627,205.936148 C335.984585,208.191091 334.869613,210.143367 333.442331,211.788672 C332.016509,213.435411 330.320701,214.713499 328.357824,215.628673 C326.392028,216.543847 324.272997,217 321.99927,217 C319.683222,217 317.553975,216.543847 315.611529,215.628673 C313.667624,214.713499 311.983491,213.435411 310.559128,211.788672 C309.131847,210.143367 308.013955,208.191091 307.209833,205.936148 C306.402791,203.681205 306,201.21253 306,198.530123 C306,195.847717 306.402791,193.379042 307.209833,191.124099 C308.013955,188.869156 309.131847,186.918314 310.559128,185.273009 C311.983491,183.62627 313.667624,182.336706 315.611529,181.40145 C317.553975,180.466194 319.683222,180 321.99927,180 C324.272997,180 326.392028,180.466194 328.357824,181.40145 C330.320701,182.336706 332.016509,183.62627 333.442331,185.273009 C334.869613,186.918314 335.984585,188.869156 336.791627,191.124099 C337.597209,193.379042 338,195.847717 338,198.530123" id="Fill-3" fill="#FFFFFF"></path>
                <path d="M343,216 C343,214.193933 343.140172,212.556564 343.420516,211.090729 C343.700859,209.624894 344.192169,208.269634 344.894444,207.023533 C345.596719,205.778849 346.559516,204.61497 347.782834,203.529062 C349.006152,202.44457 350.560785,201.381344 352.445318,200.336547 C354.090567,199.45336 355.544673,198.679331 356.807636,198.017295 C358.072014,197.355259 359.125427,196.742841 359.966458,196.178622 C360.808905,195.618656 361.450298,195.045931 361.892052,194.463283 C362.332389,193.880635 362.554682,193.208676 362.554682,192.445988 C362.554682,191.23958 362.073284,190.207542 361.110487,189.342784 C360.146275,188.479444 358.764378,188.047065 356.957719,188.047065 C355.996338,188.047065 355.112831,188.178906 354.310028,188.43975 C353.508642,188.700595 352.756811,189.052169 352.054536,189.494471 C351.352261,189.935356 350.709452,190.427275 350.128942,190.97023 C349.547017,191.511766 349.016063,192.084491 348.534665,192.686986 L343.361049,186.722994 C343.880676,186.160193 344.622595,185.546357 345.586808,184.885739 C346.549605,184.222285 347.682306,183.599943 348.984914,183.017295 C350.288937,182.434647 351.733132,181.952651 353.317498,181.571307 C354.901865,181.189963 356.598086,181 358.40333,181 C360.447857,181 362.272923,181.249504 363.877112,181.752764 C365.481301,182.254607 366.834879,182.956337 367.939264,183.860788 C369.042232,184.76524 369.883263,185.848313 370.465189,187.114261 C371.047115,188.378792 371.338785,189.755316 371.338785,191.23958 C371.338785,192.645875 371.076848,193.890559 370.557221,194.97505 C370.034762,196.059541 369.373548,197.023533 368.572161,197.867026 C367.767943,198.710519 366.895762,199.443436 365.954204,200.065778 C365.011229,200.68812 364.096573,201.240998 363.215897,201.722994 C362.493799,202.124185 361.672591,202.586334 360.749439,203.108024 C359.826286,203.629714 358.913046,204.202438 358.011132,204.82478 C357.109218,205.44854 356.276682,206.090729 355.51494,206.752764 C354.751782,207.4148 354.169856,208.06833 353.769163,208.710519 L372,208.710519 L372,216 L343,216 Z" id="Fill-5" fill="#FFFFFF"></path>
                <path d="M129.232668,137.864959 L82.0792622,90.7768412 C76.5920276,85.2988072 67.5703006,85.8631237 62.7402112,91.9284489 C9.75302327,158.464665 9.75302327,253.536914 62.7416492,320.071694 C67.5717386,326.135583 76.5920276,326.702772 82.0792622,321.221866 L129.232668,274.135184 C133.665882,269.709679 134.229561,262.785674 130.695068,257.613491 C109.480925,226.573212 109.480925,185.426931 130.695068,154.386652 C134.229561,149.215905 133.665882,142.290464 129.232668,137.864959" id="Fill-7" fill="#D7C8B4"></path>
                <path d="M58.6289506,198.530123 C58.6289506,196.9049 58.4421489,195.411646 58.070005,194.050361 C57.6978611,192.689075 57.171022,191.520005 56.4880285,190.546018 C55.8064943,189.570598 55.0009121,188.817516 54.0698226,188.289641 C53.1387331,187.761766 52.1157021,187.497829 50.9992703,187.497829 C49.843435,187.497829 48.7985132,187.761766 47.8688831,188.289641 C46.9377936,188.817516 46.1322114,189.570598 45.4506772,190.546018 C44.7676837,191.520005 44.2408446,192.689075 43.8687007,194.050361 C43.4965568,195.411646 43.3097551,196.9049 43.3097551,198.530123 C43.3097551,200.156781 43.4965568,201.638559 43.8687007,202.981197 C44.2408446,204.320966 44.7676837,205.479995 45.4506772,206.453982 C46.1322114,207.429402 46.9377936,208.182484 47.8688831,208.710359 C48.7985132,209.238234 49.843435,209.502171 50.9992703,209.502171 C52.1157021,209.502171 53.1387331,209.238234 54.0698226,208.710359 C55.0009121,208.182484 55.8064943,207.429402 56.4880285,206.453982 C57.171022,205.479995 57.6978611,204.320966 58.070005,202.981197 C58.4421489,201.638559 58.6289506,200.156781 58.6289506,198.530123 M67,198.530123 C67,201.21253 66.5972089,203.681205 65.7916268,205.936148 C64.9845852,208.191091 63.8696128,210.143367 62.4423314,211.788672 C61.0165093,213.435411 59.3207005,214.713499 57.3578237,215.628673 C55.3920281,216.543847 53.2729968,217 50.9992703,217 C48.684681,217 46.5554339,216.543847 44.6129886,215.628673 C42.6690838,214.713499 40.9834907,213.435411 39.559128,211.788672 C38.1318466,210.143367 37.0139554,208.191091 36.2098326,205.936148 C35.4027911,203.681205 35,201.21253 35,198.530123 C35,195.847717 35.4027911,193.379042 36.2098326,191.124099 C37.0139554,188.869156 38.1318466,186.918314 39.559128,185.273009 C40.9834907,183.62627 42.6690838,182.336706 44.6129886,181.40145 C46.5554339,180.466194 48.684681,180 50.9992703,180 C53.2729968,180 55.3920281,180.466194 57.3578237,181.40145 C59.3207005,182.336706 61.0165093,183.62627 62.4423314,185.273009 C63.8696128,186.918314 64.9845852,188.869156 65.7916268,191.124099 C66.5972089,193.379042 67,195.847717 67,198.530123" id="Fill-9" fill="#FFFFFF"></path>
                <path d="M80.0814028,207.428307 L90.5173977,207.428307 L90.5173977,193.505243 L80.0814028,207.428307 Z M89.6118945,224 L89.6118945,214.821854 L72,214.821854 L72,207.489195 L92.2049263,181 L97.6932973,181 L97.6932973,207.428307 L103,207.428307 L103,214.821854 L97.6932973,214.821854 L97.6932973,224 L89.6118945,224 Z" id="Fill-11" fill="#FFFFFF"></path>
                <path d="M137.864129,283.766878 L90.7774187,330.920406 C85.2979455,336.407655 85.8636983,345.429405 91.9290271,350.259507 C158.463847,403.246831 253.534717,403.246831 320.070973,350.259507 C326.136302,345.429405 326.702054,336.407655 321.222581,330.920406 L274.135871,283.766878 C269.708928,279.335091 262.784918,278.769973 257.614168,282.304474 C226.573871,303.518673 185.426129,303.518673 154.384396,282.304474 C149.215082,278.771411 142.289636,279.335091 137.864129,283.766878" id="Fill-13" fill="#D7C8B4"></path>
                <path d="M196.627873,342.530839 C196.627873,340.905679 196.442539,339.412483 196.070412,338.05125 C195.698285,336.690017 195.170011,335.520992 194.488508,334.547044 C193.805545,333.570227 193,332.820043 192.068953,332.28932 C191.139365,331.7629 190.116381,331.498973 189,331.498973 C187.841299,331.498973 186.799343,331.7629 185.868296,332.28932 C184.938709,332.820043 184.131704,333.570227 183.450201,334.547044 C182.767238,335.520992 182.240423,336.690017 181.868296,338.05125 C181.496169,339.412483 181.310835,340.905679 181.310835,342.530839 C181.310835,344.157434 181.496169,345.639155 181.868296,346.980306 C182.240423,348.321458 182.767238,349.480442 183.450201,350.45439 C184.131704,351.429773 184.938709,352.182826 185.868296,352.71068 C186.799343,353.238535 187.841299,353.502462 189,353.502462 C190.116381,353.502462 191.139365,353.238535 192.068953,352.71068 C193,352.182826 193.805545,351.429773 194.488508,350.45439 C195.170011,349.480442 195.698285,348.321458 196.070412,346.980306 C196.442539,345.639155 196.627873,344.157434 196.627873,342.530839 M205,342.530839 C205,345.213142 204.597227,347.681721 203.790223,349.936577 C202.984677,352.191432 201.868296,354.143632 200.442539,355.788874 C199.015323,357.43555 197.319591,358.713588 195.356804,359.628726 C193.392557,360.543865 191.273623,361 189,361 C186.684057,361 184.554907,360.543865 182.61255,359.628726 C180.668734,358.713588 178.984677,357.43555 177.55892,355.788874 C176.133163,354.143632 175.015323,352.191432 174.209777,349.936577 C173.402773,347.681721 173,345.213142 173,342.530839 C173,339.848537 173.402773,337.379957 174.209777,335.125102 C175.015323,332.870246 176.133163,330.918046 177.55892,329.272805 C178.984677,327.627563 180.668734,326.33805 182.61255,325.40283 C184.554907,324.46761 186.684057,324 189,324 C191.273623,324 193.392557,324.46761 195.356804,325.40283 C197.319591,326.33805 199.015323,327.627563 200.442539,329.272805 C201.868296,330.918046 202.984677,332.870246 203.790223,335.125102 C204.597227,337.379957 205,339.848537 205,342.530839" id="Fill-15" fill="#FFFFFF"></path>
                <path d="M230.524297,345.691056 C233.045341,346.137873 235.088579,347.345137 236.652573,349.31285 C238.216568,351.280562 239,353.685067 239,356.5235 C239,358.431064 238.624067,360.155318 237.872202,361.697696 C237.120337,363.238641 236.062847,364.547585 234.701167,365.623096 C233.339487,366.697175 231.683662,367.529228 229.732256,368.117823 C227.780849,368.704986 225.586952,369 223.14626,369 C220.057012,369 217.323608,368.503059 214.946049,367.509178 C212.567056,366.513865 210.585518,365.064575 209,363.157011 L213.63459,357.375602 C214.69208,358.716053 215.951884,359.7486 217.415439,360.480406 C218.878994,361.21078 220.707002,361.575967 222.902334,361.575967 C225.381768,361.575967 227.271475,361.089051 228.574326,360.115219 C229.874306,359.141388 230.524297,357.640542 230.524297,355.611249 C230.524297,353.501758 229.770997,351.879182 228.268701,350.742091 C226.76497,349.606431 224.487852,349.039318 221.440214,349.039318 L219.732734,349.039318 L219.732734,342.952871 L221.622441,342.952871 C224.143486,342.952871 226.093457,342.395782 227.47666,341.280172 C228.856993,340.164562 229.548594,338.733889 229.548594,336.989585 C229.548594,335.326911 228.978955,334.08814 227.842548,333.276136 C226.703271,332.465564 225.221064,332.060279 223.390186,332.060279 C221.520566,332.060279 219.844653,332.485614 218.359575,333.337716 C216.875933,334.189819 215.666348,335.387059 214.732256,336.928004 L209.609814,331.208176 C210.219629,330.274443 211.031758,329.433798 212.049072,328.681942 C213.064951,327.931519 214.214272,327.282776 215.494165,326.734279 C216.775493,326.187215 218.167304,325.760448 219.671035,325.456842 C221.174766,325.151803 222.720107,325 224.305625,325 C226.377559,325 228.268701,325.263507 229.976181,325.791954 C231.683662,326.318969 233.155826,327.04791 234.396977,327.981643 C235.636694,328.915376 236.592309,330.04101 237.262388,331.359979 C237.932466,332.678948 238.268223,334.14972 238.268223,335.770863 C238.268223,336.989585 238.085996,338.143861 237.720107,339.240854 C237.354218,340.336415 236.826191,341.330296 236.13459,342.222497 C235.442988,343.114699 234.61938,343.866554 233.663765,344.473766 C232.70815,345.082411 231.662139,345.489129 230.524297,345.691056" id="Fill-17" fill="#FFFFFF"></path>
                <path d="M274.136024,129.232438 L321.222593,82.0779357 C326.702049,76.5921788 326.136298,67.5705171 320.070988,62.7404627 C253.534933,9.75222048 158.465785,9.75365843 91.928294,62.7419006 C85.8644193,67.5705171 85.2972324,76.5921788 90.778125,82.0793737 L137.864693,129.232438 C142.290187,133.66562 149.215612,134.229294 154.386346,130.696266 C185.42655,109.480838 226.574168,109.480838 257.614371,130.694828 C262.785106,134.229294 269.709094,133.664182 274.136024,129.232438" id="Fill-19" fill="#D7C8B4"></path>
                <path d="M196.627873,68.5308393 C196.627873,66.9056794 196.442539,65.412483 196.070412,64.0512502 C195.698285,62.6900174 195.170011,61.5209924 194.488508,60.5456096 C193.805545,59.5702268 193,58.8186083 192.068953,58.2893196 C191.139365,57.7628998 190.116381,57.4975383 189,57.4975383 C187.841299,57.4975383 186.799343,57.7628998 185.868296,58.2893196 C184.938709,58.8186083 184.131704,59.5702268 183.450201,60.5456096 C182.767238,61.5209924 182.240423,62.6900174 181.868296,64.0512502 C181.496169,65.412483 181.310835,66.9056794 181.310835,68.5308393 C181.310835,70.1574336 181.496169,71.6391549 181.868296,72.9817406 C182.240423,74.3214576 182.767238,75.4804419 183.450201,76.4543904 C184.131704,77.4297732 184.938709,78.1828261 185.868296,78.7106804 C186.799343,79.2385346 187.841299,79.5024617 189,79.5024617 C190.116381,79.5024617 191.139365,79.2385346 192.068953,78.7106804 C193,78.1828261 193.805545,77.4297732 194.488508,76.4543904 C195.170011,75.4804419 195.698285,74.3214576 196.070412,72.9817406 C196.442539,71.6391549 196.627873,70.1574336 196.627873,68.5308393 M205,68.5308393 C205,71.2131421 204.597227,73.6817213 203.790223,75.9365769 C202.984677,78.1914324 201.868296,80.1436325 200.442539,81.7888738 C199.015323,83.4355495 197.319591,84.7135879 195.356804,85.6287265 C193.392557,86.5438651 191.273623,87 189,87 C186.684057,87 184.554907,86.5438651 182.61255,85.6287265 C180.668734,84.7135879 178.984677,83.4355495 177.55892,81.7888738 C176.133163,80.1436325 175.015323,78.1914324 174.209777,75.9365769 C173.402773,73.6817213 173,71.2131421 173,68.5308393 C173,65.8485365 173.402773,63.3799574 174.209777,61.1251018 C175.015323,58.8702462 176.133163,56.9180461 177.55892,55.2728048 C178.984677,53.6261291 180.668734,52.33805 182.61255,51.40283 C184.554907,50.46761 186.684057,50 189,50 C191.273623,50 193.392557,50.46761 195.356804,51.40283 C197.319591,52.33805 199.015323,53.6261291 200.442539,55.2728048 C201.868296,56.9180461 202.984677,58.8702462 203.790223,61.1251018 C204.597227,63.3799574 205,65.8485365 205,68.5308393" id="Fill-21" fill="#FFFFFF"></path>
                <path d="M236,79.5831444 L236,87 L211.222161,87 L211.222161,79.5831444 L219.88787,79.5831444 L219.88787,61.0092726 C219.521653,61.5011333 218.941449,62.0016485 218.148696,62.5122605 C217.355943,63.0243149 216.489947,63.5031939 215.555015,63.9517824 C214.618648,64.4032557 213.652121,64.7710694 212.655435,65.056666 C211.658749,65.3422625 210.774083,65.4850608 210,65.4850608 L210,57.8215537 C210.733871,57.8215537 211.627154,57.5878838 212.68703,57.1176592 C213.744034,56.648877 214.782369,56.0863383 215.79916,55.4314857 C216.815952,54.7795178 217.700619,54.134762 218.45316,53.5015454 C219.207137,52.8683289 219.683937,52.3678137 219.88787,52 L228.250552,52 L228.250552,79.5831444 L236,79.5831444 Z" id="Fill-23" fill="#FFFFFF"></path>
                <path d="M340.438564,73 C340.070383,73 339.702203,72.8590525 339.421753,72.5785958 C338.859416,72.0162442 338.859416,71.1072769 339.421753,70.5449253 L409.545705,0.420685035 C410.106604,-0.140228345 411.016988,-0.140228345 411.579325,0.420685035 C412.140225,0.983036655 412.140225,1.89344222 411.579325,2.4543556 L341.455374,72.5785958 C341.174924,72.8590525 340.806744,73 340.438564,73" id="Fill-25" fill="#3F3E3F"></path>
                <g id="Group-29" transform="translate(0.000000, 339.000000)">
                    <mask id="mask-2" fill="white">
                        <use xlink:href="#path-1"></use>
                    </mask>
                    <g id="Clip-28"></g>
                    <path d="M1.43823944,73 C1.07005014,73 0.701860845,72.8590553 0.421404155,72.5786041 C-0.140947465,72.0162636 -0.140947465,71.1073142 0.421404155,70.5449736 L70.5456444,0.420676747 C71.1065578,-0.140225582 72.0169633,-0.140225582 72.579315,0.420676747 C73.1402283,0.983017288 73.1402283,1.89340492 72.579315,2.45430725 L2.45507472,72.5786041 C2.17461803,72.8590553 1.80642873,73 1.43823944,73" id="Fill-27" fill="#3F3E3F" mask="url(#mask-2)"></path>
                </g>
                <g id="Group-32" transform="translate(339.000000, 339.000000)">
                    <mask id="mask-4" fill="white">
                        <use xlink:href="#path-3"></use>
                    </mask>
                    <g id="Clip-31"></g>
                    <path d="M71.5617889,73 C71.1936069,73 70.8254248,72.8590553 70.5449736,72.5786041 L0.420676747,2.45430725 C-0.140225582,1.89340492 -0.140225582,0.983017288 0.420676747,0.420676747 C0.983017288,-0.140225582 1.89340492,-0.140225582 2.45430725,0.420676747 L72.5786041,70.5449736 C73.1409447,71.1073142 73.1409447,72.0162636 72.5786041,72.5786041 C72.298153,72.8590553 71.9299709,73 71.5617889,73" id="Fill-30" fill="#3F3E3F" mask="url(#mask-4)"></path>
                </g>
                <path d="M71.5614081,73 C71.1932206,73 70.8250331,72.8590525 70.5445778,72.5785958 L0.420682963,2.4543556 C-0.140227654,1.89344222 -0.140227654,0.983036655 0.420682963,0.420685035 C0.983031814,-0.140228345 1.89343289,-0.140228345 2.45434351,0.420685035 L72.5782384,70.5449253 C73.1405872,71.1072769 73.1405872,72.0162442 72.5782384,72.5785958 C72.2977831,72.8590525 71.9295956,73 71.5614081,73" id="Fill-33" fill="#3F3E3F"></path>
            </g>
        </g>
    </g>
</svg>