<?xml version="1.0" encoding="UTF-8"?>
<svg width="102px" height="102px" viewBox="0 0 102 102" version="1.1" xmlns="http://www.w3.org/2000/svg" xmlns:xlink="http://www.w3.org/1999/xlink">
    <title>volunteer</title>
    <g id="Page-1" stroke="none" stroke-width="1" fill="none" fill-rule="evenodd" opacity="0.699999988">
        <g id="website" transform="translate(-1222.000000, -3951.000000)" fill="#3F3E3F" fill-rule="nonzero">
            <g id="Group-6" transform="translate(521.000000, 3928.000000)">
                <g id="Group-5" transform="translate(626.000000, 0.000000)">
                    <path d="M118.288635,23 C120.286238,23 121.911295,24.6250273 121.911096,26.6225938 L121.911096,52.5150547 L127.887767,52.5150547 L127.887767,33.2334688 C127.887767,31.2357031 129.512824,29.6106758 131.510427,29.6106758 C133.50803,29.6106758 135.133087,31.2359023 135.133087,33.2334688 L135.133087,73.847 L144.794975,67.1773555 C146.4794,66.0400156 148.775637,66.4804883 149.918576,68.162293 C151.063507,69.8472852 150.624222,72.1498555 148.939398,73.2947656 L145.380689,75.713082 C142.30589,77.8024883 139.706835,80.4289883 137.655044,83.519668 C136.269053,85.6076797 134.426246,87.2984492 132.325845,88.4096914 L130.737644,89.2499961 L130.682658,125 L101.443983,125 L101.443983,90.8164531 L99.7920313,89.9904922 C96.3128114,88.2509141 93.3930081,85.5823789 91.3479902,82.2735547 C89.3031716,78.9649297 88.2221909,75.1598516 88.2221909,71.2701055 L88.2221909,37.6405859 C88.2221909,35.6432188 89.8470487,34.0179922 91.8446516,34.0179922 C93.8422545,34.0179922 95.4673116,35.6432188 95.4673116,37.6405859 L95.4673116,52.5152539 L101.443983,52.5152539 L101.443983,26.6225938 C101.443983,24.6250273 103.06924,23 105.066843,23 C107.064246,23 108.689303,24.6250273 108.689303,26.6225938 L108.689303,49.2098164 L114.665975,49.2098164 L114.665975,26.6225938 C114.665975,24.6250273 116.291231,23 118.288635,23 Z M78.62266,47.239543 C80.6204621,47.239543 82.2455191,48.8647695 82.2455191,50.8623359 L82.2455191,71.2701055 C82.2455191,76.2706953 83.6350953,81.1619141 86.264034,85.4156328 C88.5622635,89.1346484 91.7205361,92.224332 95.4671124,94.4368555 L95.4671124,125 L88.2219917,125 L88.2219917,104.038004 L86.5700396,103.212043 C83.0908198,101.472465 80.1710164,98.8039297 78.1257993,95.4953047 C76.0809807,92.1864805 75,88.3816016 75,84.4918555 L75,50.8623359 C75,48.8645703 76.6252563,47.239543 78.62266,47.239543 Z M157.954411,46.1378633 C159.952014,46.1378633 161.577071,47.7630898 161.577071,49.760457 L161.577071,90.3745859 L171.237364,83.7055391 C172.92179,82.5666055 175.219422,83.0074766 176.36236,84.6892812 C177.507292,86.3742734 177.068205,88.6766445 175.383382,89.8217539 L171.824672,92.2400703 C168.750073,94.329875 166.150619,96.9561758 164.098828,100.046656 C162.712638,102.134867 160.869831,103.825836 158.769629,104.936879 L157.183819,105.775988 L157.130028,125 L136.659131,125 L136.708936,92.753457 C139.024498,91.2332187 141.050988,89.2105508 142.634408,86.8251055 C144.255281,84.3834805 146.309663,82.3078203 148.739977,80.6560977 L152.298686,78.2379805 C156.709072,75.2407344 157.858983,69.2137695 154.861682,64.8030664 C154.694734,64.5572305 154.516828,64.3231484 154.331751,64.097832 L154.331751,49.760457 C154.331751,47.7628906 155.956808,46.1378633 157.954411,46.1378633 Z M144.732419,39.5271875 C146.730221,39.5271875 148.355278,41.1524141 148.355278,43.1497812 L148.355278,60.690793 C146.014814,60.3242305 143.536288,60.8069375 141.426921,62.2403164 L141.109759,62.4590586 L141.109759,43.1497812 C141.109759,41.1522148 142.735015,39.5271875 144.732419,39.5271875 Z" id="volunteer"></path>
                </g>
            </g>
        </g>
    </g>
</svg>