<?xml version="1.0" encoding="UTF-8"?>
<svg width="154px" height="154px" viewBox="0 0 154 154" version="1.1" xmlns="http://www.w3.org/2000/svg" xmlns:xlink="http://www.w3.org/1999/xlink">
    <title>program_2</title>
    <g id="Page-1" stroke="none" stroke-width="1" fill="none" fill-rule="evenodd">
        <g id="our_program" transform="translate(-1314.000000, -603.000000)" fill-rule="nonzero">
            <g id="Group-2" transform="translate(417.000000, 570.000000)">
                <g id="program_2" transform="translate(897.000000, 33.000000)">
                    <path d="M154,77 C154,115.682273 125.476313,147.702242 88.3141875,153.174656 C87.626,153.27602 87.6783359,151.452684 86.3371523,151.516148 C81.6196992,151.739629 73.7882578,151.729703 69.3523359,151.48577 C68.2830586,151.427117 66.2690273,153.26068 65.6855117,153.174656 C28.5236875,147.702242 0,115.682273 0,77 C0,34.474043 34.474043,0 77,0 C119.525957,0 154,34.474043 154,77 Z" id="Path" fill="#D7C8B4"></path>
                    <path d="M146.142992,71.6112031 C146.142992,106.326172 118.000996,134.468469 83.2857266,134.468469 C48.570457,134.468469 20.4284609,106.326172 20.4284609,71.6112031 C20.4284609,36.8962344 48.570457,8.7539375 83.2857266,8.7539375 C118.000996,8.7539375 146.142992,36.8959336 146.142992,71.6112031 L146.142992,71.6112031 Z" id="Path" fill="#E8DCCC"></path>
                    <path d="M40.7254805,66.3902422 L47.9800234,81.0897227 C48.2429063,81.6224062 48.7509258,81.9914648 49.3389531,82.0768867 L65.5609883,84.4341094 C67.0411328,84.649168 67.632168,86.468293 66.5610859,87.5123047 L54.8227969,98.9543242 C54.3974922,99.3688008 54.2034883,99.9661523 54.3036484,100.551773 L57.0747461,116.708238 C57.3277031,118.182367 55.7801836,119.306687 54.4561445,118.61068 L39.9467578,110.982566 C39.4209922,110.706148 38.7929609,110.706148 38.2671953,110.982566 L23.7578086,118.61068 C22.4337695,119.306687 20.8865508,118.182367 21.139207,116.708238 L23.9103047,100.551773 C24.0107656,99.9664531 23.8167617,99.3691016 23.3911563,98.9543242 L11.6528672,87.5123047 C10.5817852,86.468293 11.1728203,84.649168 12.6529648,84.4341094 L28.875,82.0768867 C29.4627266,81.9914648 29.9710469,81.6224062 30.2339297,81.0897227 L37.4884727,66.3902422 C38.150793,65.0490586 40.0634609,65.0490586 40.7254805,66.3902422 L40.7254805,66.3902422 Z M122.53377,100.740363 L121.110773,103.342121 C121.05543,103.443184 120.972715,103.525898 120.871652,103.581242 L118.269895,105.004238 C117.852711,105.232531 117.852711,105.831687 118.269895,106.05968 L120.871652,107.482676 C120.972715,107.53802 121.05573,107.620734 121.110773,107.721797 L122.53377,110.323555 C122.762063,110.740738 123.361219,110.740738 123.589211,110.323555 L125.012207,107.721797 C125.067551,107.620734 125.150266,107.537719 125.251328,107.482676 L127.853086,106.05968 C128.27027,105.831387 128.27027,105.23223 127.853086,105.004238 L125.251328,103.581242 C125.150266,103.525898 125.067551,103.443184 125.012207,103.342121 L123.589211,100.740363 C123.361219,100.32318 122.761762,100.32318 122.53377,100.740363 Z" id="Shape" fill="#FFF5F5"></path>
                    <path d="M27.3392109,43.0742813 L29.8257695,47.6205898 C29.8811133,47.7216523 29.9638281,47.8043672 30.0648906,47.8597109 L34.6111992,50.3462695 C35.0283828,50.5745625 35.0283828,51.1737188 34.6111992,51.4017109 L30.0648906,53.8882695 C29.9638281,53.9436133 29.8811133,54.0263281 29.8257695,54.1273906 L27.3392109,58.6736992 C27.110918,59.0908828 26.5117617,59.0908828 26.2837695,58.6736992 L23.7972109,54.1273906 C23.7418672,54.0263281 23.6591523,53.9436133 23.5580898,53.8882695 L19.0117812,51.4017109 C18.5945977,51.173418 18.5945977,50.5742617 19.0117812,50.3462695 L23.5580898,47.8597109 C23.6591523,47.8043672 23.7418672,47.7216523 23.7972109,47.6205898 L26.2837695,43.0742813 C26.5117617,42.6570977 27.1112187,42.6570977 27.3392109,43.0742813 Z M113.941652,40.5323789 L104.870391,33.8917305 C104.448395,33.5828281 103.860367,33.9224102 103.916914,34.4421602 L105.13207,45.6182891 C105.160344,45.8790664 105.01657,46.1281133 104.776848,46.2336875 L94.4904297,50.769168 C94.0118867,50.9800156 94.0118867,51.6591797 94.4904297,51.8700273 L104.776848,56.4055078 C105.016871,56.5113828 105.160645,56.7604297 105.13207,57.0209063 L103.916914,68.1970352 C103.860367,68.7167852 104.448395,69.0563672 104.870391,68.7474648 L113.941652,62.1068164 C114.153102,61.9519141 114.440648,61.9519141 114.652398,62.1068164 L123.72366,68.7474648 C124.145656,69.0563672 124.733684,68.7167852 124.677137,68.1970352 L123.46198,57.0209063 C123.433707,56.7601289 123.57748,56.511082 123.817203,56.4055078 L134.103621,51.8700273 C134.582164,51.6591797 134.582164,50.9800156 134.103621,50.769168 L123.817203,46.2336875 C123.57718,46.1278125 123.433406,45.8787656 123.46198,45.6182891 L124.677137,34.4421602 C124.733684,33.9224102 124.145656,33.5828281 123.72366,33.8917305 L114.652398,40.5323789 C114.440648,40.6872813 114.153102,40.6872813 113.941652,40.5323789 L113.941652,40.5323789 Z" id="Shape" fill="#FFE7C0"></path>
                    <path d="M88.3141875,135.14282 L88.3141875,153.174355 C84.6214961,153.718168 80.8436836,154 77,154 C73.1563164,154 69.3785039,153.718168 65.6858125,153.174656 L65.6858125,135.143121 C65.6858125,130.995949 67.9173086,127.370031 71.2448516,125.400215 L82.7554492,125.400215 C86.0829922,127.370031 88.3141875,130.995648 88.3141875,135.14282 Z M111.162434,14.6381211 C109.510543,6.14405859 102.091773,0 93.4385977,0 L60.5614023,0 C51.9082266,0 44.489457,6.14405859 42.8375664,14.6381211 C40.5098203,26.6047031 39.2519531,39.3755742 39.2519531,52.6367188 C39.2519531,65.8978633 40.5098203,78.6687344 42.8375664,90.6353164 C44.4897578,99.1293789 51.9085273,105.273438 60.5614023,105.273438 L72.4882812,105.273438 L72.4882812,121.666016 L81.5117188,121.666016 L81.5117188,105.273438 L93.4385977,105.273438 C102.091773,105.273438 109.510543,99.1293789 111.162434,90.6353164 C113.49018,78.6687344 114.748047,65.8978633 114.748047,52.6367188 C114.748047,39.3755742 113.49018,26.6047031 111.162434,14.6381211 L111.162434,14.6381211 Z" id="Shape" fill="#13583C"></path>
                    <path d="M93.4385977,105.273438 L75.4500742,105.273438 C66.7968984,105.273438 59.3781289,99.1293789 57.7262383,90.6353164 C55.3984922,78.6687344 54.140625,65.8978633 54.140625,52.6367188 C54.140625,39.3755742 55.3984922,26.6047031 57.7262383,14.6381211 C59.3781289,6.14405859 66.7968984,0 75.4500742,0 L93.4385977,0 C102.091773,0 109.510543,6.14405859 111.162434,14.6381211 C113.49018,26.6047031 114.748047,39.3755742 114.748047,52.6367188 C114.748047,65.8978633 113.49018,78.6687344 111.162434,90.6353164 C109.510543,99.1293789 102.091773,105.273438 93.4385977,105.273438 Z M89.5714531,131.685641 C89.5714531,138.628574 83.9429336,144.257094 77,144.257094 C70.0570664,144.257094 64.4285469,138.628574 64.4285469,131.685641 C64.4285469,124.742707 70.0570664,119.114187 77,119.114187 C83.9429336,119.114187 89.5714531,124.742707 89.5714531,131.685641 Z" id="Shape" fill="#278962"></path>
                    <path d="M102.265625,42.109375 C102.265625,52.1975781 101.308539,61.9128125 99.5381406,71.015957 C99.5312227,71.05175 99.5240039,71.0872422 99.5170859,71.1227344 C98.3133594,77.0643672 89.7441016,77.0643672 88.5400742,71.1227344 C88.5328555,71.0872422 88.5259375,71.0514492 88.5187188,71.015957 C86.7480195,61.9128125 85.7912344,52.1975781 85.7912344,42.109375 C85.7912344,32.0211719 86.7480195,22.3059375 88.5187188,13.202793 C88.5256367,13.167 88.5328555,13.1315078 88.5400742,13.0960156 C89.7438008,7.15438281 98.3130586,7.15438281 99.5170859,13.0960156 C99.5243047,13.1315078 99.5312227,13.1673008 99.5381406,13.202793 C101.30884,22.3059375 102.265625,32.0211719 102.265625,42.109375 Z" id="Path" fill="#38A77B"></path>
                    <path d="M83.2857266,131.685641 C83.2857266,135.157258 80.4716172,137.971367 77,137.971367 C73.5283828,137.971367 70.7142734,135.157258 70.7142734,131.685641 C70.7142734,128.214023 73.5283828,125.399914 77,125.399914 C80.4716172,125.399914 83.2857266,128.214324 83.2857266,131.685641 Z" id="Path" fill="#278861"></path>
                    <path d="M70.984375,21.0546875 C70.984375,22.7159023 69.6377773,24.0625 67.9765625,24.0625 L49.9296875,24.0625 C48.2684727,24.0625 46.921875,22.7159023 46.921875,21.0546875 C46.921875,19.3934727 48.2684727,18.046875 49.9296875,18.046875 L67.9765625,18.046875 C69.6377773,18.046875 70.984375,19.3934727 70.984375,21.0546875 Z M86.0234375,24.0625 L104.070313,24.0625 C105.731527,24.0625 107.078125,22.7159023 107.078125,21.0546875 C107.078125,19.3934727 105.731527,18.046875 104.070313,18.046875 L86.0234375,18.046875 C84.3622227,18.046875 83.015625,19.3934727 83.015625,21.0546875 C83.015625,22.7159023 84.3622227,24.0625 86.0234375,24.0625 Z M67.9765625,30.078125 L49.9296875,30.078125 C48.2684727,30.078125 46.921875,31.4247227 46.921875,33.0859375 C46.921875,34.7471523 48.2684727,36.09375 49.9296875,36.09375 L67.9765625,36.09375 C69.6377773,36.09375 70.984375,34.7471523 70.984375,33.0859375 C70.984375,31.4247227 69.6377773,30.078125 67.9765625,30.078125 Z M104.070313,30.078125 L86.0234375,30.078125 C84.3622227,30.078125 83.015625,31.4247227 83.015625,33.0859375 C83.015625,34.7471523 84.3622227,36.09375 86.0234375,36.09375 L104.070313,36.09375 C105.731527,36.09375 107.078125,34.7471523 107.078125,33.0859375 C107.078125,31.4247227 105.731527,30.078125 104.070313,30.078125 Z M67.9765625,42.109375 L49.9296875,42.109375 C48.2684727,42.109375 46.921875,43.4559727 46.921875,45.1171875 C46.921875,46.7784023 48.2684727,48.125 49.9296875,48.125 L67.9765625,48.125 C69.6377773,48.125 70.984375,46.7784023 70.984375,45.1171875 C70.984375,43.4559727 69.6377773,42.109375 67.9765625,42.109375 Z M104.070313,42.109375 L86.0234375,42.109375 C84.3622227,42.109375 83.015625,43.4559727 83.015625,45.1171875 C83.015625,46.7784023 84.3622227,48.125 86.0234375,48.125 L104.070313,48.125 C105.731527,48.125 107.078125,46.7784023 107.078125,45.1171875 C107.078125,43.4559727 105.731527,42.109375 104.070313,42.109375 Z M67.9765625,54.140625 L49.9296875,54.140625 C48.2684727,54.140625 46.921875,55.4872227 46.921875,57.1484375 C46.921875,58.8096523 48.2684727,60.15625 49.9296875,60.15625 L67.9765625,60.15625 C69.6377773,60.15625 70.984375,58.8096523 70.984375,57.1484375 C70.984375,55.4872227 69.6377773,54.140625 67.9765625,54.140625 Z M104.070313,54.140625 L86.0234375,54.140625 C84.3622227,54.140625 83.015625,55.4872227 83.015625,57.1484375 C83.015625,58.8096523 84.3622227,60.15625 86.0234375,60.15625 L104.070313,60.15625 C105.731527,60.15625 107.078125,58.8096523 107.078125,57.1484375 C107.078125,55.4872227 105.731527,54.140625 104.070313,54.140625 Z M67.9765625,66.171875 L49.9296875,66.171875 C48.2684727,66.171875 46.921875,67.5184727 46.921875,69.1796875 C46.921875,70.8409023 48.2684727,72.1875 49.9296875,72.1875 L67.9765625,72.1875 C69.6377773,72.1875 70.984375,70.8409023 70.984375,69.1796875 C70.984375,67.5184727 69.6377773,66.171875 67.9765625,66.171875 Z M104.070313,66.171875 L86.0234375,66.171875 C84.3622227,66.171875 83.015625,67.5184727 83.015625,69.1796875 C83.015625,70.8409023 84.3622227,72.1875 86.0234375,72.1875 L104.070313,72.1875 C105.731527,72.1875 107.078125,70.8409023 107.078125,69.1796875 C107.078125,67.5184727 105.731527,66.171875 104.070313,66.171875 Z M67.9765625,78.203125 L49.9296875,78.203125 C48.2684727,78.203125 46.921875,79.5497227 46.921875,81.2109375 C46.921875,82.8721523 48.2684727,84.21875 49.9296875,84.21875 L67.9765625,84.21875 C69.6377773,84.21875 70.984375,82.8721523 70.984375,81.2109375 C70.984375,79.5497227 69.6377773,78.203125 67.9765625,78.203125 Z M104.070313,78.203125 L86.0234375,78.203125 C84.3622227,78.203125 83.015625,79.5497227 83.015625,81.2109375 C83.015625,82.8721523 84.3622227,84.21875 86.0234375,84.21875 L104.070313,84.21875 C105.731527,84.21875 107.078125,82.8721523 107.078125,81.2109375 C107.078125,79.5497227 105.731527,78.203125 104.070313,78.203125 Z" id="Shape" fill="#135F41"></path>
                </g>
            </g>
        </g>
    </g>
</svg>