<?xml version="1.0" encoding="UTF-8"?>
<svg width="154px" height="154px" viewBox="0 0 154 154" version="1.1" xmlns="http://www.w3.org/2000/svg" xmlns:xlink="http://www.w3.org/1999/xlink">
    <title>program_3</title>
    <g id="Page-1" stroke="none" stroke-width="1" fill="none" fill-rule="evenodd">
        <g id="our_program" transform="translate(-1310.000000, -982.000000)" fill-rule="nonzero">
            <g id="Group-2" transform="translate(417.000000, 959.000000)">
                <g id="program_3" transform="translate(893.000000, 23.000000)">
                    <path d="M126.971797,67.6451494 L78.6182031,80.9276883 C77.0081211,81.369838 75.3499141,80.8837741 74.2328125,79.7666692 C73.0838281,78.6206893 72.6416797,76.9453328 73.0717969,75.3812658 L86.3542969,27.0275304 C87.2647617,23.7023839 91.4456211,22.5840759 93.8948828,25.0333448 L111.43043,42.5689431 L128.965977,60.1045413 C131.413734,62.5523063 130.299039,66.7340803 126.971797,67.6451494 L126.971797,67.6451494 Z" id="Path" fill="#766D78"></path>
                    <path d="M128.965977,60.1045413 C131.413734,62.5523063 130.299039,66.7340803 126.971797,67.6451494 C75.0001055,81.9214724 78.3156172,81.0901106 77.4241016,81.0901106 C76.2420312,81.0901106 75.0900391,80.6238983 74.2328125,79.7666692 L111.43043,42.5689431 L128.965977,60.1045413 Z" id="Path" fill="#554E56"></path>
                    <path d="M114.117309,124.891208 L58.9850078,124.891208 L58.9850078,153.999699 L114.117309,153.999699 C116.245336,153.999699 117.970316,152.274714 117.970316,150.14668 L117.970316,128.743926 C117.970316,126.616193 116.245336,124.891208 114.117309,124.891208 Z" id="Path" fill="#C4B49F"></path>
                    <path d="M58.9853086,124.891208 L3.85300781,124.891208 C1.72498047,124.891208 0,126.616193 0,128.744227 L0,150.146981 C0,152.275014 1.72498047,154 3.85300781,154 L58.9853086,154 L58.9853086,124.891208 L58.9853086,124.891208 Z" id="Path" fill="#D7C8B4"></path>
                    <path d="M55.1323008,66.6739238 L3.85300781,66.6739238 C1.72498047,66.6739238 0,68.3989094 0,70.526943 L0,91.9296971 C0,94.0577306 1.72498047,95.7827162 3.85300781,95.7827162 L55.1323008,95.7827162 C57.2603281,95.7827162 58.9853086,94.0577306 58.9853086,91.9296971 L58.9853086,70.526943 C58.9853086,68.3989094 57.2600273,66.6739238 55.1323008,66.6739238 L55.1323008,66.6739238 Z" id="Path" fill="#D7C8B4"></path>
                    <path d="M88.4778125,95.7824154 L33.3455117,95.7824154 C31.2174844,95.7824154 29.4925039,97.5074009 29.4925039,99.6354345 L29.4925039,121.038189 C29.4925039,123.166222 31.2174844,124.891208 33.3455117,124.891208 L88.4778125,124.891208 L88.4778125,95.7824154 L88.4778125,95.7824154 Z" id="Path" fill="#C4B49F"></path>
                    <path d="M143.609813,95.7824154 L88.4775117,95.7824154 L88.4775117,124.890907 L143.609813,124.890907 C145.73784,124.890907 147.46282,123.165921 147.46282,121.037888 L147.46282,99.6351337 C147.46282,97.5074009 145.73784,95.7824154 143.609813,95.7824154 Z" id="Path" fill="#D7C8B4"></path>
                    <path d="M102.260512,55.1311088 L98.1058203,55.8935915 L98.1028125,55.8935915 C96.3402344,54.134016 96.3432422,51.2765858 98.1058203,49.5140025 L117.488164,30.1285941 C119.250742,28.3690187 122.108164,28.3690187 123.870742,30.1285941 L123.870742,34.2183288 L102.260512,55.1311088 Z" id="Path" fill="#E5EAEE"></path>
                    <path d="M123.870742,36.511191 L104.482383,55.8965993 C103.604102,56.777891 102.449102,57.2170329 101.294102,57.2170329 C100.139102,57.2170329 98.9871094,56.7748831 98.1058203,55.8935915 L123.870742,30.1285941 C125.630313,31.8911774 125.630313,34.7486077 123.870742,36.511191 L123.870742,36.511191 Z" id="Path" fill="#CFCFDE"></path>
                    <path d="M114.116406,30.1285941 C113.271211,29.2833963 112.795977,28.1374164 112.795977,26.9403035 C112.795977,25.7431907 113.271211,24.5942029 114.116406,23.7490051 L136.545664,1.3196816 C138.305234,-0.439893867 141.162656,-0.439893867 142.925234,1.3196816 L147.803906,6.19836777 L152.67957,11.0740461 C153.524766,11.9192439 154,13.0682316 154,14.2653445 C154,15.4594496 153.524766,16.6084373 152.67957,17.4536351 L130.250313,39.8829586 C129.369023,40.7642503 128.214023,41.2033922 127.059023,41.2033922 C125.904023,41.2033922 124.749023,40.7642503 123.870742,39.8829586 L114.116406,30.1285941 Z" id="Combined-Shape" fill="#1B9A67"></path>
                </g>
            </g>
        </g>
    </g>
</svg>