<?xml version="1.0" encoding="UTF-8"?>
<svg width="154px" height="83px" viewBox="0 0 154 83" version="1.1" xmlns="http://www.w3.org/2000/svg" xmlns:xlink="http://www.w3.org/1999/xlink">
    <title>program_4</title>
    <g id="Page-1" stroke="none" stroke-width="1" fill="none" fill-rule="evenodd">
        <g id="our_program" transform="translate(-1306.000000, -1410.000000)" fill-rule="nonzero">
            <g id="program_4" transform="translate(1306.000000, 1410.000000)">
                <path d="M144.858191,31.1856769 C136.14458,23.1600001 125.691855,17.0989563 113.79027,13.1702949 C102.771477,9.53300365 90.4075926,7.68866667 77.0418085,7.68866667 C63.6715128,7.68866667 51.3028162,9.53300365 40.2798116,13.1699926 C28.3655943,17.1010721 17.9161782,23.1636272 9.22151566,31.1893039 C8.29059995,32.0486042 7.76182728,33.2609338 7.76182728,34.5309935 L7.78288243,69.6284058 C7.78378477,71.4268006 8.8425322,73.0544234 10.4811845,73.7774084 C11.0640971,74.0346242 11.680998,74.1597562 12.2936879,74.1597562 C13.4029665,74.1597562 14.4975068,73.7486945 15.3466102,72.9649571 C32.2065616,57.4020415 54.1169187,48.8311035 77.0418085,48.8311035 C99.9432375,48.8311035 121.862317,57.4029482 138.76137,72.9676773 C140.080593,74.1830295 141.989046,74.4994865 143.626796,73.7755949 C145.264245,73.0514009 146.321489,71.4234758 146.321489,69.6256855 L146.321489,34.5282732 C146.321489,33.2570046 145.790611,32.0446749 144.858191,31.1856769 Z M137.298073,59.9696656 C119.970709,46.8779561 98.9148689,39.7629622 77.0418085,39.7629622 C55.149799,39.7629622 34.099975,46.875538 16.8005833,59.9639229 L16.7864466,36.5548677 C31.8239688,23.4160069 52.0842439,16.7559012 77.0418085,16.7559012 C101.968994,16.7559012 122.228367,23.4160069 137.298073,36.5584947 L137.298073,59.9696656 L137.298073,59.9696656 Z" id="Shape" fill="#105A3D"></path>
                <g id="Group" transform="translate(27.341437, 0.000000)" fill="#D7C8B4">
                    <path d="M4.51170783,8.4104426 C2.02004199,8.4104426 0,10.4403618 0,12.944211 L0,54.2882493 C0,56.7920985 2.02004199,58.8220177 4.51170783,58.8220177 C7.00337367,58.8220177 9.02341566,56.7920985 9.02341566,54.2882493 L9.02341566,12.944211 C9.02341566,10.4403618 7.00337367,8.4104426 4.51170783,8.4104426 Z" id="Path"></path>
                    <path d="M34.5232875,0 C32.0316217,0 30.0115797,2.02991923 30.0115797,4.53376838 L30.0115797,44.6688018 C30.0115797,47.172651 32.0316217,49.2025702 34.5232875,49.2025702 C37.0149534,49.2025702 39.0349954,47.172651 39.0349954,44.6688018 L39.0349954,4.53376838 C39.0349954,2.02991923 37.0149534,0 34.5232875,0 Z" id="Path"></path>
                </g>
                <g id="Group" transform="translate(87.364897, 0.000000)" fill="#D7C8B4">
                    <path d="M4.51170783,0 C2.02004199,0 0,2.02991923 0,4.53376838 L0,44.6688018 C0,47.172651 2.02004199,49.2025702 4.51170783,49.2025702 C7.00337367,49.2025702 9.02341566,47.172651 9.02341566,44.6688018 L9.02341566,4.53376838 C9.02341566,2.02991923 7.00337367,0 4.51170783,0 Z" id="Path"></path>
                    <path d="M34.5232875,8.4104426 C32.0316217,8.4104426 30.0115797,10.4403618 30.0115797,12.944211 L30.0115797,54.2882493 C30.0115797,56.7920985 32.0316217,58.8220177 34.5232875,58.8220177 C37.0149534,58.8220177 39.0349954,56.7920985 39.0349954,54.2882493 L39.0349954,12.944211 C39.0349954,10.4403618 37.0149534,8.4104426 34.5232875,8.4104426 Z" id="Path"></path>
                </g>
                <path d="M153.988685,70.1434419 C153.849724,66.851926 152.443274,63.8121855 150.028909,61.5836872 L150.028909,61.5836872 C130.063098,43.154221 104.127696,33.0049271 76.9996993,33.0049271 C49.8717024,33.0049271 23.9363004,43.1545232 3.97079009,61.5836872 C1.55642484,63.8118832 0.150275899,66.851926 0.011315298,70.1434419 C-0.127645303,73.4349577 1.01712536,76.583811 3.23447937,79.0093771 C7.81205814,84.0179821 15.5914456,84.3501562 20.5762811,79.7495903 C22.6327176,77.8514526 24.8362357,76.0173922 27.1254762,74.2987917 C41.616781,63.4210724 58.8629346,57.6713473 76.9996993,57.6713473 C95.136464,57.6713473 112.382618,63.4207701 126.873922,74.2987917 C129.161358,76.0158809 131.365177,77.8496391 133.423418,79.7495903 C135.694311,81.8457026 138.642261,83 141.724058,83 C145.152054,83 148.447405,81.5452649 150.764919,79.0096793 C152.982875,76.5835087 154.127645,73.4346555 153.988685,70.1434419 Z" id="Path" fill="#D4C2A3"></path>
            </g>
        </g>
    </g>
</svg>