<?xml version="1.0" encoding="UTF-8"?>
<svg width="127px" height="154px" viewBox="0 0 127 154" version="1.1" xmlns="http://www.w3.org/2000/svg" xmlns:xlink="http://www.w3.org/1999/xlink">
    <title>program_1</title>
    <g id="Page-1" stroke="none" stroke-width="1" fill="none" fill-rule="evenodd">
        <g id="our_program" transform="translate(-1322.000000, -315.000000)" fill-rule="nonzero">
            <g id="Group-2" transform="translate(417.000000, 282.000000)">
                <g id="program_1" transform="translate(905.000000, 33.000000)">
                    <path d="M120.765798,109.7085 L117.755178,95.9275554 C115.108684,83.3722211 106.16017,73.1039914 94.1294155,68.8181798 L77.7297753,63.0355686 L49.2331465,63.0355686 L32.8705845,68.8181798 C20.838245,73.1148262 11.8792733,83.3744518 9.1982368,95.9275554 L6.2323006,109.7085 L120.765798,109.7085 Z" id="Path" fill="#575B6D"></path>
                    <g id="Group" transform="translate(35.898001, 33.039349)" fill="#F4BB87">
                        <polygon id="Path" points="13.3519419 24.6042998 41.833676 24.6042998 41.833676 36.4171298 13.3519419 36.4171298"></polygon>
                        <path d="M50.0323869,0 C52.879166,0 55.1872024,2.32056511 55.1872024,5.18350893 C55.1872024,8.04613408 52.8794829,10.3670179 50.0323869,10.3670179 L48.4728857,10.3670179 L48.4728857,0.000318671396 L50.0323869,0 Z" id="Path"></path>
                        <path d="M5.1548155,0 C2.30803647,0 0,2.32056511 0,5.18350893 C0,8.04613408 2.30771956,10.3670179 5.1548155,10.3670179 L6.71431673,10.3670179 L6.71431673,0.000318671396 L5.1548155,0 Z" id="Path"></path>
                    </g>
                    <path d="M41.611207,16.2287953 L41.611207,41.0472423 C41.6184959,53.1825677 51.4074481,63.0145363 63.4755981,63.0072109 C64.2035344,63.0072109 64.9308368,62.9696036 65.6552871,62.8963092 C77.0199028,61.8446936 85.3365032,51.5605303 85.3365032,40.087404 L85.3365032,16.2364434 L41.611207,16.2287953 Z" id="Path" fill="#FED19A"></path>
                    <path d="M50.7869434,6.86113089 C54.1673945,-0.175770882 61.6191547,-0.743005967 68.2475895,0.550799902 C77.1076861,2.28054824 84.8025143,8.39712702 87.0341761,17.1902269 C88.416843,21.8852125 87.8086977,26.9457143 85.3532993,31.1741651 C84.3670836,31.3618625 81.4312536,28.4922266 80.9736393,26.6461632 C79.1061041,19.2392839 76.2726352,19.3855541 76.2726352,19.3855541 C72.4675282,21.5582557 67.9664927,22.143655 63.7370467,21.0155583 C59.8761641,20.141124 55.890103,19.9757335 51.9709094,20.5273537 C41.4822257,22.161182 41.6184959,32.85675 41.6184959,32.85675 C37.6872598,19.1436825 39.7696582,6.57400796 50.7869434,6.86113089 L50.7869434,6.86113089 Z" id="Path" fill="#414451"></path>
                    <polygon id="Path" fill="#EEEFEE" points="62.0396908 109.7085 64.9606261 109.7085 67.8815615 109.7085 69.5887416 103.563559 69.5887416 103.518308 78.9343403 69.4507425 77.7202681 69.4507425 76.4184126 69.4507425 75.9684041 69.4507425 69.7231103 69.4507425 63.4774996 69.4507425 57.2322058 69.4507425 50.986912 69.4507425 50.5815874 69.4507425 49.2331465 69.4507425 48.0659766 69.4507425 57.4115754 103.428124 57.4115754 103.473375 58.5359627 107.676332 58.5806467 107.766516 59.1184385 109.7085 59.6584487 109.7085"></polygon>
                    <polygon id="Path" fill="#0A412B" points="69.7456107 69.4545665 67.0503134 77.3196953 59.9328905 77.3196953 57.2379101 69.4545665"></polygon>
                    <polygon id="Path" fill="#1D7451" points="59.6584487 109.7085 58.5806467 107.766516 58.5359627 107.676332 57.2322058 105.18974 57.4115754 103.473375 57.4115754 103.428124 58.1753221 95.6117521 58.1753221 95.5668194 59.9271862 77.3123658 67.0728138 77.3123658 68.8246779 95.6117521 69.5887416 103.518308 69.5887416 103.563559 69.7231103 105.18974 68.105615 109.7085 67.8815615 109.7085 64.9606261 109.7085 62.0396908 109.7085"></polygon>
                    <polygon id="Path" fill="#DBD8DD" points="77.7316768 63.0164483 63.4908097 69.4545665 74.2650269 79.7798385"></polygon>
                    <polygon id="Path" fill="#DBD8DD" points="49.2518441 63.0164483 63.4908097 69.4545665 52.718177 79.7798385"></polygon>
                    <polygon id="Path" fill="#414451" points="67.8815615 109.7085 64.9606261 109.7085 68.8246779 95.6117521 73.3631085 78.940458 75.9684041 69.4507425 77.7202681 63.0352499 86.7074446 73.3815542 78.4843318 79.4363107 86.7074446 89.4218789 69.409372 109.7085 68.105615 109.7085"></polygon>
                    <polygon id="Path" fill="#414451" points="59.6584487 109.7085 59.1184385 109.7085 57.5909449 109.7085 40.2925554 89.4218789 48.4693997 79.4363107 40.2925554 73.3815542 49.2331465 63.0352499 50.986912 69.4507425 53.5922076 78.9853907 58.1753221 95.5668194 58.1753221 95.6117521 62.0396908 109.7085"></polygon>
                    <path d="M122.278714,93.7695127 L118.773084,143.712331 C118.508467,147.486675 115.386612,150.413035 111.623654,150.413035 L15.3782477,150.413035 C11.6156063,150.413035 8.49375168,147.486357 8.22881711,143.712331 L4.7216031,93.7695127 C4.44304151,89.7985485 7.41848493,86.352436 11.3674678,86.0723238 C11.5351118,86.060533 11.7027558,86.0544782 11.8707168,86.0544782 L115.128966,86.0544782 C119.087773,86.0544782 122.296156,89.2826195 122.296156,93.2634626 C122.296156,93.4323584 122.290439,93.6009356 122.278714,93.7695127 L122.278714,93.7695127 Z" id="Path" fill="#EEEFEE"></path>
                    <polygon id="Path" fill="#575B6D" points="0 148.752757 127 148.752757 127 154 6.75528717e-15 154"></polygon>
                    <ellipse id="Oval" fill="#DBD8DD" cx="63.5" cy="120.360729" rx="10.65506" ry="10.7143697"></ellipse>
                </g>
            </g>
        </g>
    </g>
</svg>