<?xml version="1.0" encoding="UTF-8"?>
<svg width="49px" height="49px" viewBox="0 0 49 49" version="1.1" xmlns="http://www.w3.org/2000/svg" xmlns:xlink="http://www.w3.org/1999/xlink">
    <title>download</title>
    <g id="Page-1" stroke="none" stroke-width="1" fill="none" fill-rule="evenodd">
        <g id="policy" transform="translate(-440.000000, -311.000000)" fill-rule="nonzero">
            <g id="Group-2" transform="translate(417.000000, 282.000000)">
                <g id="download" transform="translate(23.000000, 29.000000)">
                    <path d="M24.5,0 C10.9689911,0 0,10.9689911 0,24.5 C0,38.0310089 10.9689911,49 24.5,49 C38.0310089,49 49,38.0310089 49,24.5 C48.9848206,10.9753824 38.0247174,0.0152792327 24.5,0 Z" id="Path" fill="#186E4B"></path>
                    <path d="M31.7435547,22.1565851 L29.8261608,24.073979 L29.8261608,11.7173739 C29.8261608,8.77587198 27.4416018,6.39131303 24.5000999,6.39131303 C21.5585979,6.39131303 19.1739391,8.77587198 19.1739391,11.7173739 L19.1739391,24.0589994 L17.2565452,22.1416055 C15.345243,20.3151879 12.3355337,20.3151879 10.4242316,22.1416055 C8.53789543,24.0284409 8.53789543,27.0870837 10.4242316,28.9739191 L22.2332809,40.7829685 C23.4811848,42.0304729 25.5040353,42.0304729 26.7519392,40.7829685 L38.5609885,28.9739191 C40.4473247,27.0870837 40.4473247,24.0284409 38.5609885,22.1416055 C36.6476891,20.3288693 33.648865,20.3354604 31.7435547,22.1565851 Z" id="Path" fill="#FAFAFA"></path>
                </g>
            </g>
        </g>
    </g>
</svg>