<?xml version="1.0" encoding="UTF-8"?>
<svg width="57px" height="64px" viewBox="0 0 57 64" version="1.1" xmlns="http://www.w3.org/2000/svg" xmlns:xlink="http://www.w3.org/1999/xlink">
    <title>pdf</title>
    <g id="Page-1" stroke="none" stroke-width="1" fill="none" fill-rule="evenodd">
        <g id="policy" transform="translate(-1410.000000, -304.000000)" fill-rule="nonzero">
            <g id="Group-2" transform="translate(417.000000, 282.000000)">
                <g id="pdf" transform="translate(993.000000, 22.000000)">
                    <path d="M12.2142857,0 C9.975,0 8.14285714,1.8 8.14285714,4 L8.14285714,60 C8.14285714,62.2 9.975,64 12.2142857,64 L52.9285714,64 C55.1678571,64 57,62.2 57,60 L57,16 L40.7142857,0 L12.2142857,0 Z" id="Path" fill="#E2E5E7"></path>
                    <path d="M44.7857143,16 L57,16 L40.7142857,0 L40.7142857,12 C40.7142857,14.2 42.5464286,16 44.7857143,16 Z" id="Path" fill="#B0B7BD"></path>
                    <polygon id="Path" fill="#CAD1D8" points="57 28 44.7857143 16 57 16"></polygon>
                    <path d="M48.8571429,52 C48.8571429,53.1 47.9410714,54 46.8214286,54 L2.03571429,54 C0.916071429,54 0,53.1 0,52 L0,32 C0,30.9 0.916071429,30 2.03571429,30 L46.8214286,30 C47.9410714,30 48.8571429,30.9 48.8571429,32 L48.8571429,52 Z" id="Path" fill="#F15642"></path>
                    <g id="Group" transform="translate(8.873679, 36.790000)" fill="#FFFFFF">
                        <path d="M0,1.104 C0,0.576 0.423428571,0 1.10539286,0 L4.86535714,0 C6.9825,0 8.88792857,1.392 8.88792857,4.06 C8.88792857,6.588 6.9825,7.996 4.86535714,7.996 L2.14767857,7.996 L2.14767857,10.108 C2.14767857,10.812 1.69167857,11.21 1.10539286,11.21 C0.567964286,11.21 0,10.812 0,10.108 L0,1.104 L0,1.104 Z M2.14767857,2.014 L2.14767857,5.998 L4.86535714,5.998 C5.9565,5.998 6.81964286,5.052 6.81964286,4.06 C6.81964286,2.942 5.9565,2.014 4.86535714,2.014 L2.14767857,2.014 Z" id="Shape"></path>
                        <path d="M12.0758571,11.21 C11.5384286,11.21 10.9521429,10.922 10.9521429,10.22 L10.9521429,1.136 C10.9521429,0.562 11.5384286,0.144 12.0758571,0.144 L15.80325,0.144 C23.24175,0.144 23.0788929,11.21 15.9498214,11.21 L12.0758571,11.21 L12.0758571,11.21 Z M13.1018571,2.096 L13.1018571,9.26 L15.80325,9.26 C20.1983571,9.26 20.3937857,2.096 15.80325,2.096 L13.1018571,2.096 L13.1018571,2.096 Z" id="Shape"></path>
                        <path d="M25.7171786,2.224 L25.7171786,4.766 L29.868,4.766 C30.4542857,4.766 31.0405714,5.342 31.0405714,5.9 C31.0405714,6.428 30.4542857,6.86 29.868,6.86 L25.7171786,6.86 L25.7171786,10.218 C25.7171786,10.778 25.3120714,11.208 24.7420714,11.208 C24.0255,11.208 23.5878214,10.778 23.5878214,10.218 L23.5878214,1.134 C23.5878214,0.56 24.0275357,0.142 24.7420714,0.142 L30.4563214,0.142 C31.1728929,0.142 31.5963214,0.56 31.5963214,1.134 C31.5963214,1.646 31.1728929,2.222 30.4563214,2.222 L25.7171786,2.222 L25.7171786,2.224 Z" id="Path"></path>
                    </g>
                    <path d="M46.8214286,54 L8.14285714,54 L8.14285714,56 L46.8214286,56 C47.9410714,56 48.8571429,55.1 48.8571429,54 L48.8571429,52 C48.8571429,53.1 47.9410714,54 46.8214286,54 Z" id="Path" fill="#CAD1D8"></path>
                </g>
            </g>
        </g>
    </g>
</svg>